<svg width="203" height="288" viewBox="0 0 203 288" fill="none" xmlns="http://www.w3.org/2000/svg">
<path d="M202.906 56.6901H0L18.2419 264.647L101.312 287.66L184.944 264.647L202.906 56.6901Z" fill="#264DE4"/>
<path d="M184.383 74.09H101.593V269.138L168.386 251.176L184.383 74.09Z" fill="#1700FF"/>
<path d="M165.58 99.0673H37.3256L40.1321 124.606H137.235L134.99 150.425L42.0966 150.986L44.0611 176.525H132.745L129.938 208.799L101.312 216.938L73.248 208.799L71.2835 188.593H45.7449L48.832 229.005L101.874 243.599L153.793 229.005L165.58 99.0673Z" fill="white"/>
<path d="M47.4288 0.28064H78.5803V13.1903L60.6191 13.4709V26.0999H78.5803V38.7289H47.4288V0.28064Z" fill="black"/>
<path d="M84.4738 0H115.625V11.787H97.6641V13.4709H115.625V39.5708C115.625 39.5708 84.4738 39.4585 84.4738 40.1321V27.5031H102.435V25.8192H84.4738V0Z" fill="black"/>
<path d="M121.519 0.28064H152.67V12.0677H134.709V13.7515H152.67V39.8514C152.67 39.8514 121.519 39.7392 121.519 40.4127V27.7837H139.48V26.0999H121.519V0.28064Z" fill="black"/>
</svg>
