<svg width="192" height="288" viewBox="0 0 192 288" fill="none" xmlns="http://www.w3.org/2000/svg">
<path d="M96.1785 191.798H43.6085C43.6085 191.798 27.9477 193.897 19.377 201.245C9.19119 209.976 2.83504 219.183 0.895343 232.458C-0.992085 245.376 0.215344 254.195 7.05589 265.314C15.1911 278.538 25.7974 284.733 41.1442 287.081C55.7182 289.312 67.6559 284.985 79.3396 275.992C91.0061 267.013 95.3571 247.243 95.3571 247.243L96.1785 191.798Z" fill="#00E080"/>
<path d="M95.7677 96.9259V0.410645H40.3228C40.3228 0.410645 23.679 4.6976 15.6806 12.7317C6.32942 22.1248 0.7701 32.7627 0.0739225 45.9987C-0.596284 58.7409 3.3168 68.8961 10.7522 79.2656C18.8468 90.5545 37.8586 96.9259 37.8586 96.9259H95.7677Z" fill="#FE2B00"/>
<path d="M96.6631 192.209V96.5153H40.3967C40.3967 96.5153 22.9315 100.802 14.9331 108.836C5.58193 118.229 0.844013 128.867 0.147836 142.103C-0.522371 154.845 3.39071 165.001 10.8261 175.37C18.9207 186.659 37.1111 191.388 37.1111 191.388L96.6631 192.209Z" fill="#BB00FF"/>
<ellipse cx="143.409" cy="144.157" rx="48.0523" ry="48.463" fill="#00B3FF"/>
<path d="M155.32 0H95.7678V96.9259L155.32 95.6938C155.32 95.6938 167.253 92.0434 174.212 85.8369C185.749 75.5475 192.168 63.9192 191.872 48.463C191.656 37.1544 189.348 29.3726 182.837 20.1245C175.28 9.39153 155.32 0 155.32 0Z" fill="#FF5E5B"/>
</svg>
