<svg width="323" height="288" viewBox="0 0 323 288" fill="none" xmlns="http://www.w3.org/2000/svg">
<path d="M96.3613 256.147C84.0774 246.485 70.9737 237.221 62.0197 224.178C43.1773 201.174 28.6701 174.541 18.7512 146.552C12.7577 128.354 10.7048 108.842 2.97718 91.3457C-5.10635 78.6384 4.36212 64.747 18.2823 60.7086C24.4782 59.5193 35.3754 53.6743 22.2228 57.851C10.4315 66.5047 9.2895 49.9986 21.3794 48.9527C29.6333 47.8562 32.6714 41.1003 29.8475 35.019C20.9914 29.2415 51.33 22.8937 36.0637 14.2738C20.1615 -2.88182 58.3086 -6.18474 48.8958 13.2988C46.6438 28.2816 75.5519 10.5525 68.8449 27.8565C75.6599 36.1644 94.3725 29.7459 93.9086 41.4022C103.839 42.0854 107.248 50.4422 116.57 51.0832C126.233 55.4472 143.746 58.8851 147.035 69.7739C137.449 77.3615 115.253 54.096 114.187 75.1044C117.081 106.136 116.344 138.103 127.698 167.654C133.068 185.548 146.086 199.633 157.843 213.57C169.095 227.219 184.332 236.828 199.863 244.918C213.487 251.345 228.174 255.606 243.022 258.278C249.044 253.673 259.677 236.547 269.073 243.769C269.518 251.883 250.426 260.731 268.174 259.833C278.595 256.691 285.825 267.893 294.406 257.787C302.313 267.154 327.27 251.804 321.644 270.948C314.037 275.857 302.942 272.89 295.322 279.642C282.76 273.367 272.757 285.256 258.849 283.753C243.403 286.52 227.69 287.636 212.029 287.66C186.34 285.631 160.105 284.775 135.664 275.83C121.899 271.83 108.461 263.99 96.3613 256.147V256.147ZM118.058 265.548C131.502 271.361 144.648 277.49 159.382 279.337C182.757 282.589 206.894 287.589 230.354 283.028C219.736 278.234 208.76 284.895 198.183 279.6C185.498 282.329 171.885 278.905 158.987 277.218C144.321 270.685 128.495 266.193 114.76 257.714C97.5995 251.446 123.636 265.752 128.27 266.911C138.999 273.001 116.474 263.791 113.298 261.259C104.313 256.218 103.168 257.271 112.409 262.389C114.269 263.479 116.108 264.621 118.06 265.548H118.058ZM92.4764 247.47C105.504 252.295 92.4191 238.31 86.4509 239.12C83.8058 234.532 76.3464 231.634 81.6078 229.169C72.141 232.455 71.6906 216.673 67.2423 218.928C57.2273 215.765 63.3456 204.564 51.416 197.685C50.3263 190.437 39.564 184.15 36.1329 173.217C34.6147 167.618 23.9704 151.544 30.5105 166.503C36.0772 180.906 45.8712 193.24 54.0222 205.558C60.3514 217.287 67.826 229.545 79.3525 236.863C83.239 240.591 86.9907 246.301 92.4764 247.47V247.47ZM54.9483 206.266C55.4038 204.298 57.3302 210.524 54.9483 206.266V206.266ZM108.078 253.254C110.963 251.962 103.93 251.627 108.078 253.254V253.254ZM115.15 255.835C114.418 252.273 111.923 257.826 115.15 255.835V255.835ZM124.003 259.526C128.216 255.513 117.508 256.996 124.003 259.526V259.526ZM139.174 267.983C141.735 264.197 130.978 266.554 139.174 267.983V267.983ZM110.042 247.672C116.587 243.438 101.586 247.615 110.042 247.672V247.672ZM116.681 250.984C116.496 248.745 114.315 251.987 116.681 250.984V250.984ZM149.869 271.699C155.205 275.067 181.026 279.079 164.857 273.08C162.151 273.65 134.878 265.366 149.869 271.699ZM97.1811 230.664C96.6632 228.42 88.8985 228.184 97.1811 230.664V230.664ZM112.633 239.668C116.653 236.865 104.286 237.506 112.633 239.668V239.668ZM125.629 247.637C131.398 245.461 116.266 245.453 125.629 247.637V247.637ZM90.8958 223.818C97.1541 228.617 116.143 224.432 100.482 220.951C93.3536 217.152 77.2894 214.551 88.239 223.241L90.8941 223.817L90.8958 223.818ZM134.431 250.388C137.039 245.945 123.495 247.851 134.431 250.388V250.388ZM121.201 239.876C136.511 244.206 108.328 230.193 117.424 238.282L119.44 239.193L121.201 239.876V239.876ZM147.725 255.204C162.224 255.343 134.63 253.205 147.725 255.204V255.204ZM85.3156 215.428C84.7488 212.729 81.7394 215.655 85.3156 215.428V215.428ZM172.251 268.963C172.637 264.084 167.519 272.591 172.251 268.963V268.963ZM110.057 230.579C109.18 228.01 105.528 230.473 110.057 230.579V230.579ZM86.6904 213.732C95.0152 213.233 75.2955 210.065 86.6904 213.732V213.732ZM59.0087 195.84C57.9729 191.85 49.9518 188.667 59.0087 195.84V195.84ZM131.68 241.959C130.155 240.22 130.963 242.339 131.68 241.959V241.959ZM176.912 269.715C176.767 267.058 174.449 270.72 176.912 269.715V269.715ZM127.677 237.824C128.491 234.4 120.578 236.789 127.677 237.824V237.824ZM93.9794 216.469C100.17 215.806 84.0606 212.282 93.9794 216.469V216.469ZM150.981 251.888C160.63 248.066 141.576 250.022 150.981 251.888V251.888ZM121.331 231.762C132.452 233.196 108.099 224.196 118.891 230.955L121.331 231.762ZM159.984 255.528C170.366 249.321 166.944 270.064 177.6 257.283C188.109 249.607 168.523 266.77 181.476 258.649C190.845 252.384 204.683 261.62 213.424 264.632C219.709 264.324 225.823 270.069 232.267 266.574C244.672 263.234 208.006 261.618 217.618 255.69C206.265 258.993 197.881 251.751 192.294 244.481C179.562 241.541 164.839 235.031 158.484 223.763C155.893 219.532 162.229 224.358 156.247 217.442C148.575 210.618 144.743 202.872 139.594 194.576C133.441 191.293 132.724 181.633 132.101 194.252C132.152 186.288 124.672 180.926 122.849 183.156C122.815 175.484 130.85 179.33 125.226 173.654C124.014 165.703 120.03 157.419 118.831 148.443C116.968 144.116 118.567 134.849 112.476 144.644C110.258 154.997 111.741 131.924 115.192 139.533C119.721 131.768 113.564 132.681 113.313 133.759C116.265 127.209 115.18 117.916 112.542 121.462C114.116 114.518 115.027 95.9087 110.189 99.2066C113.122 91.9463 115.75 65.9851 103.019 75.8838C97.8609 75.9563 88.9272 77.7562 84.7049 79.8564C97.947 87.1555 83.3723 82.493 77.9827 81.3324C77.281 88.0867 71.942 85.165 65.2721 85.2308C75.9247 86.5499 60.0849 96.128 53.9733 92.4068C46.0365 96.2006 60.8221 105.669 54.1319 108.596C54.9534 113.01 41.9728 107.003 42.9917 117.195C35.286 113.955 41.9307 129.287 45.7852 124.102C58.8923 127.649 55.0124 135.734 55.3448 143.416C53.2108 147.892 44.8017 132.895 53.4723 133.59C46.6337 122.479 45.9066 129.574 40.2235 134.736C38.901 135.11 54.7206 142.08 44.7933 145.527C53.528 146.874 53.776 154.518 55.5556 159.354C60.8035 164.821 59.7306 153.315 66.0109 159.887C62.0366 154.034 44.9569 143.393 58.7067 146.805C58.6342 140.913 56.2202 136.161 60.4341 136.278C64.6057 128.72 56.0651 154.907 65.4694 145.302C68.0723 144.167 68.7167 137.738 73.3978 145.91C80.1925 152.596 75.8522 157.443 66.2639 151.319C67.9795 157.139 79.0893 159.217 77.0009 168.318C79.2158 176.321 82.3113 173.374 85.0103 172.91C87.129 180.686 88.33 174.968 88.4313 171.268C98.1258 173.343 95.8552 179.075 98.8899 183.078C105.57 186.095 89.3253 162.638 100.796 176.027C112.864 186.921 105.322 191.469 94.4922 189.725C101.346 189.168 103.558 198.989 112.13 198.645C119.949 202.363 125.241 216.649 111.766 210.701C107.093 206.487 90.5517 201.288 104.062 209.304C116.538 215.082 126.447 218.54 138.481 225.792C147.094 231.941 150.814 238.983 154.078 240.375C146.841 243.833 132.267 237.615 143.088 235.709C136.339 234.479 128.746 231.067 135.21 239.478C140.709 244.066 154.69 243.582 157.197 244.1C155.072 248.782 151.426 249.154 157.283 249.518C150.748 253 159.378 253.539 159.984 255.528V255.528ZM146.622 217.793C142.646 213.636 141.619 205.848 145.915 212.624C148.12 213.51 152.976 225.35 146.622 217.793ZM190.138 245.436C192.618 245.275 190.211 247.32 190.138 245.436V245.436ZM140.343 207.599C140.192 201.314 141.782 212.447 140.343 207.599V207.599ZM136.02 201.779C131.018 192.117 142.324 204.515 136.02 201.779V201.779ZM83.6051 165.604C86.542 164.821 85.0508 170.629 83.6051 165.604V165.604ZM125.318 188.215C127.123 181.439 127.439 193.9 125.318 188.215V188.215ZM95.8485 167.723C93.7719 163.985 100.194 171.23 95.8485 167.723V167.723ZM121.14 175.832C116.403 165.216 124.493 170.034 122.187 177.569L121.14 175.832ZM77.5256 146.745C75.4068 143.261 71.9032 133.044 73.0317 129.926C74.0523 135.004 83.8345 151.787 77.8309 136.876C71.1947 124.378 85.7609 140.933 87.2606 144.051C87.9572 147.153 83.1665 143.204 86.4121 150.474C80.4911 142.197 82.9168 155.047 77.5256 146.745ZM64.0474 137.457C64.6007 129.36 67.1327 143.008 64.0474 137.457V137.457ZM70.11 139.543C73.003 133.432 75.0155 148.062 70.11 139.543V139.543ZM55.5236 128.26C50.5051 123.273 46.8749 118.678 55.7597 125.166C59.1841 125.299 48.1519 114.712 56.5829 121.804C65.4492 123.42 60.9604 136.338 55.5236 128.26ZM63.1854 128.061C66.1003 125.173 64.7323 130.903 63.1854 128.061V128.061ZM67.9002 129.572C63.4806 121.29 73.2611 133.044 67.9002 129.572V129.572ZM58.5279 120.615C43.9397 107.633 76.8609 127.405 60.9115 123.022L58.5279 120.616V120.615ZM100.329 144.903C94.0148 141.117 98.6555 118.253 100.808 133.891C106.945 131.905 100.469 141.966 105.047 141.873C104.325 148.221 102.277 150.503 100.327 144.903H100.329ZM115.789 154.04C116.408 147.149 117.091 158.75 115.789 154.04V154.04ZM113.104 151.387C113.799 148.443 113.174 154.852 113.104 151.387V151.387ZM61.3905 116.35C52.0182 103.419 88.6286 129.43 67.3925 119.63C65.1742 119.049 62.5039 118.842 61.3905 116.349V116.35ZM91.1623 132.135C90.275 121.246 93.1427 133.939 91.1623 132.135V132.135ZM113.767 146.635C115.516 140.432 113.896 150.737 113.767 146.635V146.635ZM62.8261 111.413C68.3962 110.224 85.9111 121.197 69.8266 114.55C68.0385 112.57 64.2296 113.471 62.8261 111.413ZM110.659 135.257C111.255 124.124 113.984 128.607 110.68 136.851L110.659 135.257ZM66.9707 107.541C69.2396 104.213 60.9452 92.4894 68.1667 103.336C71.2875 105.816 77.2 107.489 71.9791 108.532C80.1908 115.777 69.9768 110.495 66.9707 107.541V107.541ZM108.294 131.779C109.863 119.097 109.678 139.209 108.294 131.779V131.779ZM62.2323 95.8261C63.9664 95.0839 63.1483 98.1371 62.2323 95.8261V95.8261ZM73.0115 102.241C75.7847 96.4216 78.1278 108.732 73.0115 102.241V102.241ZM103.414 119.154C103.385 116.919 103.988 122.406 103.414 119.154V119.154ZM101.653 115.256C97.4325 104.844 105.578 120.768 101.653 115.256V115.256ZM99.062 108.43C98.3535 104.129 101.469 113.835 99.062 108.43V108.43ZM103.279 101.575C100.383 96.4722 106.936 79.0888 107.667 89.868C104.61 98.2704 106.785 102.97 108.917 91.7017C112.856 82.8337 108.067 109.201 103.279 101.575V101.575ZM107.613 75.7201C108.875 74.1716 107.893 77.5892 107.613 75.7201V75.7201ZM100.376 218.321C98.6588 216.823 100.592 219.274 100.376 218.321V218.321ZM115.283 225.861C123.576 227.99 123.534 224.571 116.039 223.557C112.007 219.805 99.288 215.828 110.674 223.091C111.427 225.001 113.81 224.957 115.283 225.861V225.861ZM85.8402 206.305C90.41 209.713 103.048 215.961 92.3482 207.604C95.9564 203.41 85.4438 201.18 88.9306 198.377C80.061 192.948 81.9334 193.431 88.1479 193.603C77.4868 188.837 89.6863 189.193 89.1128 186.752C85.0018 185.941 68.6964 179.504 78.2897 187.28C68.5379 182.309 75.9652 189.133 73.0182 188.411C63.0454 185.693 81.898 196.007 71.4326 193.446C77.1545 197.98 86.8338 205.058 73.8532 198.243C72.1427 200.706 83.1412 204.438 85.8402 206.307V206.305ZM101.432 215.262C120.393 221.372 92.1373 207.8 101.432 215.262V215.262ZM181.25 263.617C181.495 259.855 178.659 266.825 181.25 263.617V263.617ZM189.454 267.07C193.828 262.831 189.632 273.821 196.702 266.032C196.778 260.456 196.483 257.163 188.578 263.936C186.399 265.144 185.425 270.283 189.455 267.07H189.454ZM59.2296 185.286C57.8852 180.007 49.8135 180.032 59.2296 185.286V185.286ZM67.9896 191.025C64.7356 185.632 56.3839 186.143 67.9896 191.025V191.025ZM117.825 221.08C122.69 225.402 140.173 224.252 123.734 221.614C121.3 218.014 108.276 218.881 117.825 221.08ZM186.333 263.391C193.823 257.107 179.079 266.194 186.333 263.391V263.391ZM201.908 274.094C201.955 272.077 198.681 274.976 201.908 274.094V274.094ZM201.931 271.27C210.224 262.483 193.897 271.79 201.931 271.27V271.27ZM37.6848 167.249C30.6167 157.163 33.2905 152.63 26.4755 144.396C25.185 138.099 14.782 123.81 21.0943 138.948C26.8769 147.802 28.5942 161.51 37.6848 167.249V167.249ZM199.332 268.478C214.59 258.617 193.07 264.182 199.332 268.478V268.478ZM210.978 273.04C218.62 266.479 206.147 271.668 210.978 273.04V273.04ZM56.6335 174.138C58.8197 170.886 50.9875 173.723 56.6335 174.138V174.138ZM208.547 269.924C215.944 265.155 206.844 265.887 207.206 270.363L208.547 269.924ZM108.154 206.646C107.901 203.426 104.247 206.921 108.154 206.646V206.646ZM114.359 210.217C112.387 206.231 111.327 210.843 114.359 210.217V210.217ZM220.416 273.148C229.895 266.311 214.672 271.839 218.427 274.443L220.416 273.148ZM216.79 271.393C224.509 264.924 208.637 274.261 216.79 271.393V271.393ZM235.328 283.741C240.514 280.27 229.033 282.618 235.328 283.741V283.741ZM61.3855 171.793C68.3354 173.35 89.1516 188.905 76.8711 172.869C70.579 171.007 74.3525 155.629 67.9373 158.352C72.2439 165.547 71.4798 168.608 62.4381 164.072C51.0736 158.526 56.0516 166.822 58.2715 169.108C55.2469 169.796 62.2762 171.736 61.3855 171.793V171.793ZM29.7311 146.792C30.9744 141.647 18.2772 118.486 23.7343 135.186C25.7045 138.685 25.5055 145.314 29.7311 146.792ZM87.8324 182.613C84.2545 179.62 87.6637 182.189 87.8324 182.613V182.613ZM96.643 184.662C96.6379 179.214 86.9046 182.449 96.643 184.662V184.662ZM172.993 232.796C171.537 229.071 167.237 232.708 172.993 232.796V232.796ZM176.66 235.473C176.12 233.39 174.545 235.876 176.66 235.473V235.473ZM206.923 254.535C209.834 252.386 203.291 254.26 206.923 254.535V254.535ZM45.5423 150.83C53.867 147.607 36.6237 148.531 45.5423 150.83V150.83ZM166.272 226.892C166.18 221.5 160.966 228.228 166.272 226.892V226.892ZM42.2529 143.165C47.6003 141.358 37.3069 141.976 42.2529 143.165V143.165ZM57.7756 150.683C57.6777 148.912 56.1342 151.355 57.7756 150.683V150.683ZM247.094 266.78C253.972 265.385 269.641 270.28 272.175 264.958C263.825 264.754 243.282 259.064 242.31 266.314L244.139 266.601L247.094 266.78V266.78ZM62.708 151.927C62.8278 146.466 58.4503 151.724 62.708 151.927V151.927ZM21.8973 123.617C20.0434 113.211 14.8478 122.042 21.8973 123.617V123.617ZM31.6306 126.063C31.7486 122.723 22.7221 123.057 31.6306 126.063V126.063ZM37.1905 128.796C35.5829 127.492 35.9321 130.439 37.1905 128.796V128.796ZM72.1849 151.244C73.833 149.73 68.2848 150.122 72.1849 151.244V151.244ZM33.4878 122.634C32.5465 114.775 22.2144 121.457 33.4878 122.634V122.634ZM13.5337 109.689C13.2486 106.062 11.5887 111.055 13.5337 109.689V109.689ZM16.5009 107.447C16.0168 103.145 13.9537 107.995 16.5009 107.447V107.447ZM32.8974 117.236C39.8322 114.512 20.2694 111.602 31.4804 116.721L32.8974 117.236ZM252.357 252.792C256.796 248.723 246.718 251.534 252.357 252.792V252.792ZM278.87 266.535C280.648 261.274 274.393 267.227 278.87 266.535V266.535ZM34.5775 108.641C35.3063 103.552 29.0783 109.652 34.5775 108.641V108.641ZM11.2446 93.009C9.99124 85.8246 10.1633 73.2134 22.1503 77.4762C6.14852 80.6526 33.2247 97.3645 29.8054 84.1697C36.5343 84.4987 42.9681 80.1937 39.4375 86.7287C52.6947 85.2645 61.8848 73.7684 74.6899 75.3794C84.6645 74.0586 95.5701 73.0582 106.319 69.0435C115.158 68.4058 123.665 58.8918 118.82 53.2509C106.768 52.232 94.1532 53.7401 80.8319 56.3885C66.0716 59.4552 52.6609 65.2868 37.7691 67.7884C23.2518 69.7385 40.6874 73.1611 36.531 73.9236C28.9552 76.5535 45.5642 78.3264 35.5475 81.0962C29.3617 79.9205 22.9246 77.795 25.5662 71.2752C11.6596 73.0802 -0.560207 78.851 10.4265 93.0022L11.2446 93.009V93.009ZM44.7528 75.9445C48.0136 63.9339 62.2205 85.8279 50.0969 77.5386C48.6495 76.4556 46.2676 75.5717 44.7528 75.9445ZM45.3871 70.1197C50.0935 66.6143 47.8887 72.0866 45.3871 70.1197V70.1197ZM51.362 70.2158C51.7871 64.6879 65.0426 73.1409 53.5482 72.2064L51.362 70.2158ZM59.5367 66.9281C62.5224 63.4413 60.3936 70.032 59.5367 66.9281V66.9281ZM61.6284 65.528C66.5979 59.5564 89.774 61.7156 72.809 64.946C68.2629 61.5216 64.7778 66.9652 61.6267 65.528H61.6284ZM91.8742 60.8655C91.1168 44.5533 106.899 66.6633 91.8742 60.8655V60.8655ZM100.455 60.8199C103.593 52.598 112.631 57.5204 101.906 59.1668C102.141 60.0423 101.592 63.411 100.455 60.8199ZM31.192 104.421C40.5677 98.6803 21.2394 99.4394 31.192 104.421V104.421ZM38.1251 106.347C41.4111 102.852 30.9811 104.93 38.1251 106.347V106.347ZM17.6986 91.8501C23.0545 87.7341 11.3593 90.2847 17.6986 91.8501V91.8501ZM294.519 265.029C294.675 260.255 290.425 267.181 294.519 265.029V265.029ZM266.391 245.832C267.19 240.336 262.776 246.313 266.391 245.832V245.832ZM302.254 266.881C309.743 266.906 324.947 264.553 308.65 264.562C306.095 264.961 293.75 264.875 302.254 266.881ZM44.2215 102.978C50.2824 102.562 53.7051 96.2917 43.0491 96.6527C26.5345 94.9422 57.6187 102.307 40.9303 100.2C38.6868 101.685 44.0916 103.388 44.2198 102.978H44.2215ZM49.5587 105.679C48.9262 101.788 47.6863 107.747 49.5587 105.679V105.679ZM55.8913 88.7935C58.5228 85.531 52.2527 87.9214 55.8913 88.7935V88.7935ZM35.7331 55.098C46.551 51.4172 61.345 47.2827 66.4512 56.9097C61.2539 50.6531 64.3544 44.4943 69.2632 53.6422C76.2064 62.8981 79.6814 49.4318 75.1673 46.3279C80.3123 52.7212 86.1658 55.7424 78.6119 46.7328C86.8203 36.8594 62.1766 48.0249 56.5762 47.9136C53.8805 49.1214 28.7527 54.3204 35.7331 55.0997V55.098ZM42.074 42.9558C48.243 38.3 63.4097 45.7257 53.6781 38.3287C52.725 37.4886 32.3627 43.9376 42.0724 42.9558H42.074ZM64.5653 43.8836C71.7851 44.0692 61.4513 34.184 70.0544 38.6644C68.6424 34.0474 60.0377 33.182 55.8306 31.3383C53.4521 35.5588 60.6736 43.941 64.5653 43.8853V43.8836ZM46.0163 23.469C48.5146 20.0834 41.6388 25.1862 46.0163 23.469V23.469ZM55.2098 25.6703C66.8459 24.1268 52.2443 20.6603 52.865 25.5455L55.2098 25.6703ZM38.0458 12.2377C29.8526 1.54287 53.4538 14.0342 45.129 2.83671C38.1234 -2.74181 31.391 9.11529 38.0441 12.2377H38.0458ZM143.189 68.8697C146.946 62.2082 127.675 59.8904 140.657 66.5081C141.851 66.9095 141.582 69.3302 143.187 68.8697H143.189Z" fill="black"/>
</svg>
