<svg width="204" height="288" viewBox="0 0 204 288" fill="none" xmlns="http://www.w3.org/2000/svg">
<path d="M203.747 56.9707H0L19.0838 264.647L101.593 287.66L185.225 264.647L203.747 56.9707Z" fill="#E44D26"/>
<path d="M31.9934 13.1903V0H18.8031V39.2901H31.9934V26.0999H44.0611V39.2901H57.2513V0H44.0611V12.9096L31.9934 13.1903Z" fill="black"/>
<path d="M98.2254 0.28064H62.8642V13.1903H74.09V39.0095H86.719L86.9996 13.1903H98.2254V0.28064Z" fill="black"/>
<path d="M117.87 0.561295H104.119V39.0095H116.748L117.029 19.9257L126.009 33.116L134.709 20.2064L135.27 39.0095H147.338L147.899 0.561295H133.867L126.009 13.1903L117.87 0.561295Z" fill="black"/>
<path d="M167.544 0H154.073L154.354 39.0095H185.225V26.0999H167.544V0Z" fill="black"/>
<path d="M185.225 73.8093L102.154 74.3706V269.699L169.509 251.176L185.225 73.8093Z" fill="#F16529"/>
<path d="M166.141 98.506L38.1676 99.0673L45.4643 176.525H133.587L130.219 209.08L101.593 217.499L73.5287 209.641L71.8448 189.996L46.0256 189.435L49.3933 229.847L102.154 243.88L154.354 229.847L161.09 150.706H68.4771L65.6707 124.325L163.896 125.448L166.141 98.506Z" fill="white"/>
</svg>
