<svg width="288" height="288" viewBox="0 0 288 288" fill="none" xmlns="http://www.w3.org/2000/svg">
<g opacity="0.05">
<path opacity="0.05" d="M231.177 4.28508C223.318 10.516 216.365 13.0302 211.796 14.1233C211.796 14.5606 211.884 14.987 211.949 15.4024C211.949 15.4024 223.023 15.9817 237.004 4.91912C239.17 3.06282 241.731 1.72445 244.492 1.00565C241.442 -0.49195 237.091 -0.393567 231.177 4.28508Z" fill="black"/>
</g>
<path d="M0 0H287.682V287.66H0V0Z" fill="#F7DF1E"/>
<path d="M75.6562 240.393L97.672 227.067C101.924 234.599 105.783 240.972 115.053 240.972C123.94 240.972 129.537 237.496 129.537 223.985V132.062H156.57V224.356C156.57 252.352 140.173 265.098 116.212 265.098C94.5894 265.098 82.0401 253.893 75.6671 240.382L75.6562 240.393ZM171.251 237.485L193.256 224.739C199.05 234.205 206.582 241.136 219.907 241.136C231.112 241.136 238.25 235.539 238.25 227.811C238.25 218.541 230.915 215.261 218.573 209.85L211.818 206.953C192.316 198.656 179.373 188.228 179.373 166.212C179.373 145.934 194.819 130.488 218.956 130.488C236.14 130.488 248.471 136.479 257.38 152.111L236.337 165.633C231.702 157.325 226.685 154.045 218.956 154.045C211.042 154.045 206.013 159.063 206.013 165.633C206.013 173.744 211.031 177.023 222.618 182.03L229.374 184.927C252.33 194.765 265.294 204.811 265.294 227.406C265.294 251.739 246.175 265.065 220.476 265.065C195.333 265.065 179.155 253.04 171.284 237.452" fill="black"/>
</svg>
