<svg width="221" height="313" viewBox="0 0 221 313" fill="none" xmlns="http://www.w3.org/2000/svg">
<path d="M220.5 60.5L0 61.5L19.5 287L110 312.5L200.5 287L220.5 60.5Z" fill="#E6A700"/>
<path d="M200 79H110L110.5 292.5L182.5 272.5L200 79Z" fill="#EFC800"/>
<path d="M169.5 89.5H109.5V119L143 121L146 150H175L169.5 89.5Z" fill="#FEFEFE"/>
<path d="M175 163H109.5V191.5H126H143.5L140 226L109.5 235V265L167 248.5L175 163Z" fill="#FEFEFE"/>
<path d="M109.5 89.5H58L48.5 191.5H109.5V163H79.5L84.5 120L109.5 119V89.5Z" fill="#EAEBED"/>
<path d="M77.5 204H48.5L52.5 248.5L109.5 265V235L79 225.5L77.5 204Z" fill="#EAECEC"/>
<path d="M103.5 0H90.5V28H70.5V41.5H103.5V0Z" fill="black"/>
<path d="M149.5 0H110.5V9.5L128.5 30.5H110.5V41.5H150.5V31.5L131.5 10.5H149.5V0Z" fill="black"/>
</svg>
