<svg width="295" height="288" viewBox="0 0 295 288" fill="none" xmlns="http://www.w3.org/2000/svg">
<g clip-path="url(#clip0_21_37)">
<path d="M52.2352 0.029541H242.74C271.623 0.029541 294.975 23.3818 294.975 52.2648V235.395C294.975 264.278 271.623 287.631 242.74 287.631H52.2352C23.3522 287.631 0 264.278 0 235.395V52.2648C0 23.3818 23.3522 0.029541 52.2352 0.029541Z" fill="#001E36"/>
<path d="M66.3694 201.719V75.2482C66.3694 74.3879 66.7382 73.8962 67.5985 73.8962C69.6879 73.8962 71.6544 73.8963 74.4813 73.7733C77.431 73.6504 80.5037 73.6504 83.8221 73.5275C87.1406 73.4046 90.7049 73.4046 94.515 73.2817C98.3251 73.1588 102.012 73.1588 105.699 73.1588C115.778 73.1588 124.135 74.3879 131.018 76.9689C137.164 79.0583 142.817 82.4997 147.488 87.0472C151.421 90.9802 154.493 95.7736 156.46 101.059C158.303 106.221 159.287 111.506 159.287 117.036C159.287 127.606 156.829 136.333 151.912 143.215C146.996 150.098 140.113 155.26 132.124 158.21C123.767 161.283 114.549 162.389 104.47 162.389C101.521 162.389 99.5542 162.389 98.3251 162.266C97.096 162.143 95.3753 162.143 93.0401 162.143V201.596C93.163 202.456 92.5485 203.194 91.6882 203.317H67.8443C66.8611 203.317 66.3694 202.825 66.3694 201.719ZM93.163 97.6172V138.914C94.8837 139.037 96.4815 139.16 97.9564 139.16H104.47C109.264 139.16 114.057 138.422 118.605 136.947C122.538 135.841 125.979 133.506 128.683 130.433C131.264 127.361 132.493 123.182 132.493 117.774C132.616 113.964 131.633 110.154 129.666 106.835C127.577 103.64 124.627 101.181 121.063 99.8295C116.515 97.9859 111.599 97.2485 106.56 97.3714C103.364 97.3714 100.537 97.3714 98.2022 97.4943C95.7441 97.3714 94.0234 97.4943 93.163 97.6172V97.6172ZM235.98 131.416C232.293 129.45 228.36 128.098 224.181 127.238C219.634 126.254 215.086 125.64 210.416 125.64C207.958 125.517 205.377 125.886 203.041 126.5C201.444 126.869 200.092 127.729 199.231 128.958C198.617 129.942 198.248 131.171 198.248 132.277C198.248 133.383 198.74 134.489 199.477 135.472C200.583 136.824 202.058 137.93 203.656 138.791C206.483 140.266 209.432 141.618 212.382 142.847C219.019 145.059 225.41 148.132 231.31 151.819C235.366 154.4 238.684 157.841 241.019 162.02C242.986 165.953 243.969 170.255 243.846 174.679C243.969 180.456 242.248 186.233 239.053 191.026C235.612 195.942 230.818 199.752 225.287 201.965C219.265 204.546 211.891 205.898 203.041 205.898C197.388 205.898 191.857 205.406 186.326 204.3C182.024 203.562 177.723 202.21 173.79 200.367C172.929 199.875 172.315 199.015 172.438 198.032V176.646C172.438 176.277 172.561 175.786 172.929 175.54C173.298 175.294 173.667 175.417 174.035 175.663C178.829 178.49 183.868 180.456 189.276 181.685C193.946 182.914 198.863 183.529 203.779 183.529C208.449 183.529 211.768 182.914 213.98 181.808C215.946 180.948 217.298 178.858 217.298 176.646C217.298 174.925 216.315 173.327 214.349 171.73C212.382 170.132 208.326 168.288 202.304 165.953C196.036 163.741 190.259 160.791 184.851 157.104C181.041 154.4 177.846 150.836 175.51 146.657C173.544 142.724 172.561 138.422 172.683 134.12C172.683 128.835 174.158 123.796 176.862 119.249C179.935 114.332 184.482 110.399 189.767 107.941C195.544 104.992 202.796 103.64 211.522 103.64C216.561 103.64 221.723 104.008 226.762 104.746C230.449 105.237 234.014 106.221 237.332 107.573C237.824 107.696 238.315 108.187 238.561 108.679C238.684 109.17 238.807 109.662 238.807 110.154V130.187C238.807 130.679 238.561 131.171 238.193 131.416C237.086 131.662 236.472 131.662 235.98 131.416V131.416Z" fill="#31A8FF"/>
</g>
<defs>
<clipPath id="clip0_21_37">
<rect width="294.975" height="287.66" fill="white"/>
</clipPath>
</defs>
</svg>
