<svg width="285" height="288" viewBox="0 0 285 288" fill="none" xmlns="http://www.w3.org/2000/svg">
<path d="M140.565 0.00250126C128.832 0.056251 117.629 1.05702 107.772 2.80261C78.7321 7.93443 73.4595 18.6716 73.4595 38.4771V64.6328H142.085V73.3504H47.7032C27.7594 73.3504 10.2933 85.3392 4.83133 108.144C-1.47019 134.285 -1.74918 150.597 4.83133 177.891C9.70976 198.209 21.3607 212.685 41.3044 212.685H64.9005V181.331C64.9005 158.679 84.4987 138.7 107.772 138.7H176.319C195.4 138.7 210.631 122.99 210.631 103.827V38.4745C210.631 19.8771 194.942 5.90474 176.319 2.80005C164.527 0.839463 152.298 -0.053808 140.565 0.00250126V0.00250126ZM103.452 21.0366C110.542 21.0366 116.329 26.9209 116.329 34.1541C116.329 41.3617 110.539 47.1922 103.452 47.1922C96.339 47.1922 90.575 41.3642 90.575 34.1541C90.575 26.9209 96.339 21.0366 103.452 21.0366Z" fill="url(#paint0_linear_21_61)"/>
<path d="M219.19 73.3479V103.821C219.19 127.448 199.16 147.333 176.319 147.333H107.772C88.9957 147.333 73.4595 163.402 73.4595 182.207V247.553C73.4595 266.153 89.6305 277.093 107.772 282.427C129.495 288.815 150.327 289.97 176.319 282.427C193.595 277.425 210.631 267.356 210.631 247.553V221.4H142.085V212.683H244.944C264.891 212.683 272.321 198.769 279.257 177.889C286.424 156.394 286.119 135.718 279.257 108.142C274.327 88.2878 264.914 73.3479 244.944 73.3479H219.19V73.3479ZM180.636 238.836C187.749 238.836 193.513 244.664 193.513 251.874C193.513 259.107 187.749 264.991 180.636 264.991C173.547 264.991 167.76 259.107 167.76 251.874C167.76 244.666 173.549 238.836 180.636 238.836Z" fill="url(#paint1_linear_21_61)"/>
<defs>
<linearGradient id="paint0_linear_21_61" x1="-6.76839" y1="8.16985" x2="151.482" y2="143.004" gradientUnits="userSpaceOnUse">
<stop stop-color="#5A9FD4"/>
<stop offset="1" stop-color="#306998"/>
</linearGradient>
<linearGradient id="paint1_linear_21_61" x1="210.862" y1="227.059" x2="154.085" y2="147.506" gradientUnits="userSpaceOnUse">
<stop stop-color="#FFD43B"/>
<stop offset="1" stop-color="#FFE873"/>
</linearGradient>
</defs>
</svg>
