<svg width="600" height="600" viewBox="0 0 600 600" fill="none" xmlns="http://www.w3.org/2000/svg">
<circle cx="300" cy="400" r="200" fill="#1700FF"/>
<circle cx="200" cy="200" r="200" fill="#D89A3E"/>
<circle cx="400" cy="200" r="200" fill="#EA3D32"/>
<path d="M300 373.244C247.283 342.748 209.777 288.882 201.65 225.812C230.692 209.38 264.25 200 300 200C335.75 200 369.308 209.38 398.35 225.812C390.223 288.882 352.717 342.748 300 373.244Z" fill="white"/>
<path d="M398.35 225.812C399.439 217.362 400 208.747 400 200C400 125.972 359.78 61.3374 300 26.7565C240.22 61.3374 200 125.972 200 200C200 208.747 200.561 217.362 201.65 225.812C230.692 209.38 264.25 200 300 200C335.75 200 369.308 209.38 398.35 225.812Z" fill="#E05A33"/>
<path d="M201.65 225.812C148.067 256.132 109.862 310.462 101.65 374.188C130.692 390.62 164.25 400 200 400C236.429 400 270.583 390.261 300 373.244C247.283 342.748 209.777 288.882 201.65 225.812Z" fill="#56BD66"/>
<path d="M398.35 225.812C390.223 288.882 352.717 342.748 300 373.244C329.417 390.261 363.571 400 400 400C435.75 400 469.308 390.62 498.35 374.188C490.138 310.462 451.933 256.132 398.35 225.812Z" fill="#6A45A2"/>
<path d="M459.469 184.02H455.145L455.121 182.203H459.047C459.695 182.203 460.262 182.094 460.746 181.875C461.231 181.656 461.606 181.344 461.871 180.938C462.145 180.523 462.281 180.031 462.281 179.461C462.281 178.836 462.16 178.328 461.918 177.938C461.684 177.539 461.32 177.25 460.828 177.07C460.344 176.883 459.727 176.789 458.977 176.789H455.648V192H453.387V174.938H458.977C459.852 174.938 460.633 175.027 461.32 175.207C462.008 175.379 462.59 175.652 463.066 176.027C463.551 176.395 463.918 176.863 464.168 177.434C464.418 178.004 464.543 178.688 464.543 179.484C464.543 180.188 464.363 180.824 464.004 181.395C463.645 181.957 463.145 182.418 462.504 182.777C461.871 183.137 461.129 183.367 460.277 183.469L459.469 184.02ZM459.363 192H454.254L455.531 190.16H459.363C460.082 190.16 460.691 190.035 461.191 189.785C461.699 189.535 462.086 189.184 462.352 188.73C462.617 188.27 462.75 187.727 462.75 187.102C462.75 186.469 462.637 185.922 462.41 185.461C462.184 185 461.828 184.645 461.344 184.395C460.859 184.145 460.234 184.02 459.469 184.02H456.246L456.27 182.203H460.676L461.156 182.859C461.977 182.93 462.672 183.164 463.242 183.562C463.813 183.953 464.246 184.453 464.543 185.062C464.848 185.672 465 186.344 465 187.078C465 188.141 464.766 189.039 464.297 189.773C463.836 190.5 463.184 191.055 462.34 191.438C461.496 191.812 460.504 192 459.363 192ZM475.488 189.832V183.305C475.488 182.805 475.387 182.371 475.184 182.004C474.988 181.629 474.691 181.34 474.293 181.137C473.895 180.934 473.402 180.832 472.816 180.832C472.27 180.832 471.789 180.926 471.375 181.113C470.969 181.301 470.648 181.547 470.414 181.852C470.188 182.156 470.074 182.484 470.074 182.836H467.906C467.906 182.383 468.023 181.934 468.258 181.488C468.492 181.043 468.828 180.641 469.266 180.281C469.711 179.914 470.242 179.625 470.859 179.414C471.484 179.195 472.18 179.086 472.945 179.086C473.867 179.086 474.68 179.242 475.383 179.555C476.094 179.867 476.648 180.34 477.047 180.973C477.453 181.598 477.656 182.383 477.656 183.328V189.234C477.656 189.656 477.691 190.105 477.762 190.582C477.84 191.059 477.953 191.469 478.102 191.812V192H475.84C475.731 191.75 475.645 191.418 475.582 191.004C475.52 190.582 475.488 190.191 475.488 189.832ZM475.863 184.312L475.887 185.836H473.695C473.078 185.836 472.527 185.887 472.043 185.988C471.559 186.082 471.152 186.227 470.824 186.422C470.496 186.617 470.246 186.863 470.074 187.16C469.902 187.449 469.816 187.789 469.816 188.18C469.816 188.578 469.906 188.941 470.086 189.27C470.266 189.598 470.535 189.859 470.895 190.055C471.262 190.242 471.711 190.336 472.242 190.336C472.906 190.336 473.492 190.195 474 189.914C474.508 189.633 474.91 189.289 475.207 188.883C475.512 188.477 475.676 188.082 475.699 187.699L476.625 188.742C476.57 189.07 476.422 189.434 476.18 189.832C475.938 190.23 475.613 190.613 475.207 190.98C474.809 191.34 474.332 191.641 473.777 191.883C473.231 192.117 472.613 192.234 471.926 192.234C471.066 192.234 470.313 192.066 469.664 191.73C469.023 191.395 468.523 190.945 468.164 190.383C467.813 189.812 467.637 189.176 467.637 188.473C467.637 187.793 467.77 187.195 468.035 186.68C468.301 186.156 468.684 185.723 469.184 185.379C469.684 185.027 470.285 184.762 470.988 184.582C471.691 184.402 472.477 184.312 473.344 184.312H475.863ZM486.141 190.453C486.656 190.453 487.133 190.348 487.57 190.137C488.008 189.926 488.367 189.637 488.648 189.27C488.93 188.895 489.09 188.469 489.129 187.992H491.191C491.152 188.742 490.898 189.441 490.43 190.09C489.969 190.73 489.363 191.25 488.613 191.648C487.863 192.039 487.039 192.234 486.141 192.234C485.188 192.234 484.356 192.066 483.645 191.73C482.941 191.395 482.356 190.934 481.887 190.348C481.426 189.762 481.078 189.09 480.844 188.332C480.617 187.566 480.504 186.758 480.504 185.906V185.414C480.504 184.562 480.617 183.758 480.844 183C481.078 182.234 481.426 181.559 481.887 180.973C482.356 180.387 482.941 179.926 483.645 179.59C484.356 179.254 485.188 179.086 486.141 179.086C487.133 179.086 488 179.289 488.742 179.695C489.484 180.094 490.066 180.641 490.488 181.336C490.918 182.023 491.152 182.805 491.191 183.68H489.129C489.09 183.156 488.941 182.684 488.684 182.262C488.434 181.84 488.09 181.504 487.652 181.254C487.223 180.996 486.719 180.867 486.141 180.867C485.477 180.867 484.918 181 484.465 181.266C484.02 181.523 483.664 181.875 483.398 182.32C483.141 182.758 482.953 183.246 482.836 183.785C482.727 184.316 482.672 184.859 482.672 185.414V185.906C482.672 186.461 482.727 187.008 482.836 187.547C482.945 188.086 483.129 188.574 483.387 189.012C483.652 189.449 484.008 189.801 484.453 190.066C484.906 190.324 485.469 190.453 486.141 190.453ZM495.809 174V192H493.629V174H495.809ZM503.555 179.32L498.023 185.238L494.93 188.449L494.754 186.141L496.969 183.492L500.906 179.32H503.555ZM501.574 192L497.051 185.953L498.176 184.02L504.129 192H501.574ZM516.961 190.16V192H507.926V190.16H516.961ZM508.383 174.938V192H506.121V174.938H508.383ZM515.766 182.273V184.113H507.926V182.273H515.766ZM516.844 174.938V176.789H507.926V174.938H516.844ZM521.602 182.027V192H519.434V179.32H521.484L521.602 182.027ZM521.086 185.18L520.184 185.145C520.191 184.277 520.32 183.477 520.57 182.742C520.82 182 521.172 181.355 521.625 180.809C522.078 180.262 522.617 179.84 523.242 179.543C523.875 179.238 524.574 179.086 525.34 179.086C525.965 179.086 526.527 179.172 527.027 179.344C527.527 179.508 527.953 179.773 528.305 180.141C528.664 180.508 528.938 180.984 529.125 181.57C529.313 182.148 529.406 182.855 529.406 183.691V192H527.227V183.668C527.227 183.004 527.129 182.473 526.934 182.074C526.738 181.668 526.453 181.375 526.078 181.195C525.703 181.008 525.242 180.914 524.695 180.914C524.156 180.914 523.664 181.027 523.219 181.254C522.781 181.48 522.402 181.793 522.082 182.191C521.77 182.59 521.523 183.047 521.344 183.562C521.172 184.07 521.086 184.609 521.086 185.18ZM540.691 189.539V174H542.871V192H540.879L540.691 189.539ZM532.16 185.801V185.555C532.16 184.586 532.277 183.707 532.512 182.918C532.754 182.121 533.094 181.438 533.531 180.867C533.977 180.297 534.504 179.859 535.113 179.555C535.731 179.242 536.418 179.086 537.176 179.086C537.973 179.086 538.668 179.227 539.262 179.508C539.863 179.781 540.371 180.184 540.785 180.715C541.207 181.238 541.539 181.871 541.781 182.613C542.023 183.355 542.191 184.195 542.285 185.133V186.211C542.199 187.141 542.031 187.977 541.781 188.719C541.539 189.461 541.207 190.094 540.785 190.617C540.371 191.141 539.863 191.543 539.262 191.824C538.66 192.098 537.957 192.234 537.152 192.234C536.41 192.234 535.731 192.074 535.113 191.754C534.504 191.434 533.977 190.984 533.531 190.406C533.094 189.828 532.754 189.148 532.512 188.367C532.277 187.578 532.16 186.723 532.16 185.801ZM534.34 185.555V185.801C534.34 186.434 534.402 187.027 534.527 187.582C534.66 188.137 534.863 188.625 535.137 189.047C535.41 189.469 535.758 189.801 536.18 190.043C536.602 190.277 537.106 190.395 537.691 190.395C538.41 190.395 539 190.242 539.461 189.938C539.93 189.633 540.305 189.23 540.586 188.73C540.867 188.23 541.086 187.688 541.242 187.102V184.277C541.148 183.848 541.012 183.434 540.832 183.035C540.66 182.629 540.434 182.27 540.152 181.957C539.879 181.637 539.539 181.383 539.133 181.195C538.734 181.008 538.262 180.914 537.715 180.914C537.121 180.914 536.609 181.039 536.18 181.289C535.758 181.531 535.41 181.867 535.137 182.297C534.863 182.719 534.66 183.211 534.527 183.773C534.402 184.328 534.34 184.922 534.34 185.555Z" fill="white"/>
<path d="M57.1836 174.938V192H54.9219V174.938H57.1836ZM64.3321 182.613V184.465H56.6914V182.613H64.3321ZM65.4922 174.938V176.789H56.6914V174.938H65.4922ZM69.7227 181.312V192H67.5547V179.32H69.6641L69.7227 181.312ZM73.6836 179.25L73.6719 181.266C73.4922 181.227 73.3203 181.203 73.1563 181.195C73 181.18 72.8203 181.172 72.6172 181.172C72.1172 181.172 71.6758 181.25 71.293 181.406C70.9102 181.562 70.586 181.781 70.3203 182.062C70.0547 182.344 69.8438 182.68 69.6875 183.07C69.5391 183.453 69.4414 183.875 69.3946 184.336L68.7852 184.688C68.7852 183.922 68.8594 183.203 69.0078 182.531C69.1641 181.859 69.4024 181.266 69.7227 180.75C70.043 180.227 70.4492 179.82 70.9414 179.531C71.4414 179.234 72.0352 179.086 72.7227 179.086C72.8789 179.086 73.0586 179.105 73.2617 179.145C73.4649 179.176 73.6055 179.211 73.6836 179.25ZM74.8789 185.801V185.531C74.8789 184.617 75.0117 183.77 75.2774 182.988C75.543 182.199 75.9258 181.516 76.4258 180.938C76.9258 180.352 77.5313 179.898 78.2422 179.578C78.9531 179.25 79.75 179.086 80.6328 179.086C81.5235 179.086 82.3242 179.25 83.0352 179.578C83.7539 179.898 84.3633 180.352 84.8633 180.938C85.3711 181.516 85.7578 182.199 86.0235 182.988C86.2891 183.77 86.4219 184.617 86.4219 185.531V185.801C86.4219 186.715 86.2891 187.562 86.0235 188.344C85.7578 189.125 85.3711 189.809 84.8633 190.395C84.3633 190.973 83.7578 191.426 83.0469 191.754C82.3438 192.074 81.5469 192.234 80.6563 192.234C79.7656 192.234 78.9649 192.074 78.2539 191.754C77.543 191.426 76.9336 190.973 76.4258 190.395C75.9258 189.809 75.543 189.125 75.2774 188.344C75.0117 187.562 74.8789 186.715 74.8789 185.801ZM77.0469 185.531V185.801C77.0469 186.434 77.1211 187.031 77.2696 187.594C77.418 188.148 77.6406 188.641 77.9375 189.07C78.2422 189.5 78.6211 189.84 79.0742 190.09C79.5274 190.332 80.0547 190.453 80.6563 190.453C81.25 190.453 81.7696 190.332 82.2149 190.09C82.668 189.84 83.043 189.5 83.3399 189.07C83.6367 188.641 83.8594 188.148 84.0078 187.594C84.1641 187.031 84.2422 186.434 84.2422 185.801V185.531C84.2422 184.906 84.1641 184.316 84.0078 183.762C83.8594 183.199 83.6328 182.703 83.3281 182.273C83.0313 181.836 82.6563 181.492 82.2031 181.242C81.7578 180.992 81.2344 180.867 80.6328 180.867C80.0391 180.867 79.5156 180.992 79.0625 181.242C78.6172 181.492 78.2422 181.836 77.9375 182.273C77.6406 182.703 77.418 183.199 77.2696 183.762C77.1211 184.316 77.0469 184.906 77.0469 185.531ZM91.3086 182.027V192H89.1406V179.32H91.1914L91.3086 182.027ZM90.793 185.18L89.8906 185.145C89.8985 184.277 90.0274 183.477 90.2774 182.742C90.5274 182 90.8789 181.355 91.3321 180.809C91.7852 180.262 92.3242 179.84 92.9492 179.543C93.5821 179.238 94.2813 179.086 95.0469 179.086C95.6719 179.086 96.2344 179.172 96.7344 179.344C97.2344 179.508 97.6602 179.773 98.0117 180.141C98.3711 180.508 98.6446 180.984 98.8321 181.57C99.0196 182.148 99.1133 182.855 99.1133 183.691V192H96.9336V183.668C96.9336 183.004 96.836 182.473 96.6406 182.074C96.4453 181.668 96.1602 181.375 95.7852 181.195C95.4102 181.008 94.9492 180.914 94.4024 180.914C93.8633 180.914 93.3711 181.027 92.9258 181.254C92.4883 181.48 92.1094 181.793 91.7891 182.191C91.4766 182.59 91.2305 183.047 91.0508 183.562C90.8789 184.07 90.793 184.609 90.793 185.18ZM107.715 179.32V180.984H100.859V179.32H107.715ZM103.18 176.238H105.348V188.859C105.348 189.289 105.414 189.613 105.547 189.832C105.68 190.051 105.852 190.195 106.063 190.266C106.273 190.336 106.5 190.371 106.742 190.371C106.922 190.371 107.109 190.355 107.305 190.324C107.508 190.285 107.66 190.254 107.762 190.23L107.773 192C107.602 192.055 107.375 192.105 107.094 192.152C106.82 192.207 106.488 192.234 106.098 192.234C105.566 192.234 105.078 192.129 104.633 191.918C104.188 191.707 103.832 191.355 103.566 190.863C103.309 190.363 103.18 189.691 103.18 188.848V176.238ZM121.426 190.16V192H112.391V190.16H121.426ZM112.848 174.938V192H110.586V174.938H112.848ZM120.23 182.273V184.113H112.391V182.273H120.23ZM121.309 174.938V176.789H112.391V174.938H121.309ZM126.066 182.027V192H123.898V179.32H125.949L126.066 182.027ZM125.551 185.18L124.648 185.145C124.656 184.277 124.785 183.477 125.035 182.742C125.285 182 125.637 181.355 126.09 180.809C126.543 180.262 127.082 179.84 127.707 179.543C128.34 179.238 129.039 179.086 129.805 179.086C130.43 179.086 130.992 179.172 131.492 179.344C131.992 179.508 132.418 179.773 132.77 180.141C133.129 180.508 133.402 180.984 133.59 181.57C133.777 182.148 133.871 182.855 133.871 183.691V192H131.691V183.668C131.691 183.004 131.594 182.473 131.398 182.074C131.203 181.668 130.918 181.375 130.543 181.195C130.168 181.008 129.707 180.914 129.16 180.914C128.621 180.914 128.129 181.027 127.684 181.254C127.246 181.48 126.867 181.793 126.547 182.191C126.234 182.59 125.988 183.047 125.809 183.562C125.637 184.07 125.551 184.609 125.551 185.18ZM145.156 189.539V174H147.336V192H145.344L145.156 189.539ZM136.625 185.801V185.555C136.625 184.586 136.742 183.707 136.977 182.918C137.219 182.121 137.559 181.438 137.996 180.867C138.441 180.297 138.969 179.859 139.578 179.555C140.195 179.242 140.883 179.086 141.641 179.086C142.438 179.086 143.133 179.227 143.727 179.508C144.328 179.781 144.836 180.184 145.25 180.715C145.672 181.238 146.004 181.871 146.246 182.613C146.488 183.355 146.656 184.195 146.75 185.133V186.211C146.664 187.141 146.496 187.977 146.246 188.719C146.004 189.461 145.672 190.094 145.25 190.617C144.836 191.141 144.328 191.543 143.727 191.824C143.125 192.098 142.422 192.234 141.617 192.234C140.875 192.234 140.195 192.074 139.578 191.754C138.969 191.434 138.441 190.984 137.996 190.406C137.559 189.828 137.219 189.148 136.977 188.367C136.742 187.578 136.625 186.723 136.625 185.801ZM138.805 185.555V185.801C138.805 186.434 138.867 187.027 138.992 187.582C139.125 188.137 139.328 188.625 139.602 189.047C139.875 189.469 140.223 189.801 140.645 190.043C141.066 190.277 141.57 190.395 142.156 190.395C142.875 190.395 143.465 190.242 143.926 189.938C144.395 189.633 144.77 189.23 145.051 188.73C145.332 188.23 145.551 187.688 145.707 187.102V184.277C145.613 183.848 145.477 183.434 145.297 183.035C145.125 182.629 144.898 182.27 144.617 181.957C144.344 181.637 144.004 181.383 143.598 181.195C143.199 181.008 142.727 180.914 142.18 180.914C141.586 180.914 141.074 181.039 140.645 181.289C140.223 181.531 139.875 181.867 139.602 182.297C139.328 182.719 139.125 183.211 138.992 183.773C138.867 184.328 138.805 184.922 138.805 185.555Z" fill="white"/>
<path d="M242.134 494.667H238.572L238.595 492.827H242.134C243.353 492.827 244.368 492.573 245.181 492.065C245.993 491.549 246.603 490.831 247.009 489.909C247.423 488.979 247.63 487.893 247.63 486.651V485.608C247.63 484.632 247.513 483.764 247.279 483.007C247.044 482.241 246.7 481.596 246.247 481.073C245.794 480.542 245.24 480.139 244.583 479.866C243.935 479.592 243.189 479.456 242.345 479.456H238.501V477.604H242.345C243.462 477.604 244.482 477.792 245.404 478.167C246.325 478.534 247.118 479.069 247.783 479.772C248.454 480.467 248.97 481.311 249.329 482.303C249.689 483.288 249.868 484.397 249.868 485.632V486.651C249.868 487.885 249.689 488.999 249.329 489.991C248.97 490.975 248.45 491.815 247.771 492.51C247.099 493.206 246.286 493.741 245.333 494.116C244.388 494.483 243.322 494.667 242.134 494.667ZM239.779 477.604V494.667H237.517V477.604H239.779ZM260.415 492.499V485.971C260.415 485.471 260.314 485.038 260.111 484.671C259.915 484.296 259.618 484.007 259.22 483.803C258.822 483.6 258.329 483.499 257.743 483.499C257.197 483.499 256.716 483.592 256.302 483.78C255.896 483.967 255.575 484.214 255.341 484.518C255.115 484.823 255.001 485.151 255.001 485.503H252.833C252.833 485.049 252.95 484.6 253.185 484.155C253.419 483.71 253.755 483.307 254.193 482.948C254.638 482.581 255.169 482.292 255.786 482.081C256.411 481.862 257.107 481.753 257.872 481.753C258.794 481.753 259.607 481.909 260.31 482.221C261.021 482.534 261.575 483.007 261.974 483.639C262.38 484.264 262.583 485.049 262.583 485.995V491.901C262.583 492.323 262.618 492.772 262.689 493.249C262.767 493.725 262.88 494.135 263.029 494.479V494.667H260.767C260.658 494.417 260.572 494.085 260.509 493.671C260.447 493.249 260.415 492.858 260.415 492.499ZM260.79 486.979L260.814 488.503H258.622C258.005 488.503 257.454 488.553 256.97 488.655C256.486 488.749 256.079 488.893 255.751 489.089C255.423 489.284 255.173 489.53 255.001 489.827C254.829 490.116 254.743 490.456 254.743 490.846C254.743 491.245 254.833 491.608 255.013 491.936C255.193 492.264 255.462 492.526 255.822 492.721C256.189 492.909 256.638 493.003 257.169 493.003C257.833 493.003 258.419 492.862 258.927 492.581C259.435 492.299 259.837 491.956 260.134 491.549C260.439 491.143 260.603 490.749 260.626 490.366L261.552 491.409C261.497 491.737 261.349 492.1 261.107 492.499C260.865 492.897 260.54 493.28 260.134 493.647C259.736 494.007 259.259 494.307 258.704 494.549C258.158 494.784 257.54 494.901 256.853 494.901C255.993 494.901 255.24 494.733 254.591 494.397C253.95 494.061 253.45 493.612 253.091 493.049C252.74 492.479 252.564 491.842 252.564 491.139C252.564 490.46 252.697 489.862 252.962 489.346C253.228 488.823 253.611 488.389 254.111 488.046C254.611 487.694 255.212 487.428 255.915 487.249C256.618 487.069 257.404 486.979 258.271 486.979H260.79ZM271.302 481.987V483.651H264.447V481.987H271.302ZM266.767 478.905H268.935V491.526C268.935 491.956 269.001 492.28 269.134 492.499C269.267 492.717 269.439 492.862 269.65 492.932C269.861 493.003 270.087 493.038 270.329 493.038C270.509 493.038 270.697 493.022 270.892 492.991C271.095 492.952 271.247 492.921 271.349 492.897L271.361 494.667C271.189 494.721 270.962 494.772 270.681 494.819C270.408 494.874 270.075 494.901 269.685 494.901C269.154 494.901 268.665 494.796 268.22 494.585C267.775 494.374 267.419 494.022 267.154 493.53C266.896 493.03 266.767 492.358 266.767 491.514V478.905ZM281.322 492.499V485.971C281.322 485.471 281.22 485.038 281.017 484.671C280.822 484.296 280.525 484.007 280.126 483.803C279.728 483.6 279.236 483.499 278.65 483.499C278.103 483.499 277.622 483.592 277.208 483.78C276.802 483.967 276.482 484.214 276.247 484.518C276.021 484.823 275.908 485.151 275.908 485.503H273.74C273.74 485.049 273.857 484.6 274.091 484.155C274.325 483.71 274.661 483.307 275.099 482.948C275.544 482.581 276.075 482.292 276.693 482.081C277.318 481.862 278.013 481.753 278.779 481.753C279.7 481.753 280.513 481.909 281.216 482.221C281.927 482.534 282.482 483.007 282.88 483.639C283.286 484.264 283.49 485.049 283.49 485.995V491.901C283.49 492.323 283.525 492.772 283.595 493.249C283.673 493.725 283.786 494.135 283.935 494.479V494.667H281.673C281.564 494.417 281.478 494.085 281.415 493.671C281.353 493.249 281.322 492.858 281.322 492.499ZM281.697 486.979L281.72 488.503H279.529C278.911 488.503 278.361 488.553 277.876 488.655C277.392 488.749 276.986 488.893 276.658 489.089C276.329 489.284 276.079 489.53 275.908 489.827C275.736 490.116 275.65 490.456 275.65 490.846C275.65 491.245 275.74 491.608 275.919 491.936C276.099 492.264 276.368 492.526 276.728 492.721C277.095 492.909 277.544 493.003 278.075 493.003C278.74 493.003 279.325 492.862 279.833 492.581C280.341 492.299 280.743 491.956 281.04 491.549C281.345 491.143 281.509 490.749 281.533 490.366L282.458 491.409C282.404 491.737 282.255 492.1 282.013 492.499C281.771 492.897 281.447 493.28 281.04 493.647C280.642 494.007 280.165 494.307 279.611 494.549C279.064 494.784 278.447 494.901 277.759 494.901C276.9 494.901 276.146 494.733 275.497 494.397C274.857 494.061 274.357 493.612 273.997 493.049C273.646 492.479 273.47 491.842 273.47 491.139C273.47 490.46 273.603 489.862 273.868 489.346C274.134 488.823 274.517 488.389 275.017 488.046C275.517 487.694 276.118 487.428 276.822 487.249C277.525 487.069 278.31 486.979 279.177 486.979H281.697ZM302.275 490.354C302.275 489.956 302.212 489.604 302.087 489.299C301.97 488.987 301.759 488.706 301.454 488.456C301.158 488.206 300.743 487.967 300.212 487.741C299.689 487.514 299.025 487.284 298.22 487.049C297.376 486.799 296.615 486.522 295.935 486.217C295.255 485.905 294.673 485.549 294.189 485.151C293.704 484.753 293.333 484.296 293.075 483.78C292.818 483.264 292.689 482.674 292.689 482.01C292.689 481.346 292.825 480.733 293.099 480.171C293.372 479.608 293.763 479.12 294.271 478.706C294.786 478.284 295.4 477.956 296.111 477.721C296.822 477.487 297.615 477.37 298.49 477.37C299.771 477.37 300.857 477.616 301.747 478.108C302.646 478.592 303.329 479.229 303.798 480.018C304.267 480.799 304.501 481.635 304.501 482.526H302.251C302.251 481.885 302.115 481.319 301.841 480.827C301.568 480.327 301.154 479.936 300.599 479.655C300.044 479.366 299.341 479.221 298.49 479.221C297.685 479.221 297.021 479.342 296.497 479.585C295.974 479.827 295.583 480.155 295.325 480.569C295.075 480.983 294.95 481.456 294.95 481.987C294.95 482.346 295.025 482.674 295.173 482.971C295.329 483.26 295.568 483.53 295.888 483.78C296.216 484.03 296.63 484.26 297.13 484.471C297.638 484.682 298.243 484.885 298.947 485.081C299.915 485.354 300.751 485.659 301.454 485.995C302.158 486.331 302.736 486.71 303.189 487.132C303.65 487.546 303.99 488.018 304.208 488.549C304.435 489.073 304.548 489.667 304.548 490.331C304.548 491.026 304.408 491.655 304.126 492.217C303.845 492.78 303.443 493.26 302.919 493.659C302.396 494.057 301.767 494.366 301.033 494.585C300.306 494.796 299.493 494.901 298.595 494.901C297.806 494.901 297.029 494.792 296.263 494.573C295.505 494.354 294.814 494.026 294.189 493.589C293.572 493.151 293.075 492.612 292.7 491.971C292.333 491.323 292.15 490.573 292.15 489.721H294.4C294.4 490.307 294.513 490.811 294.74 491.233C294.966 491.647 295.275 491.991 295.665 492.264C296.064 492.538 296.513 492.741 297.013 492.874C297.521 492.999 298.048 493.061 298.595 493.061C299.384 493.061 300.052 492.952 300.599 492.733C301.146 492.514 301.56 492.202 301.841 491.796C302.13 491.389 302.275 490.909 302.275 490.354ZM312.177 493.12C312.693 493.12 313.169 493.014 313.607 492.803C314.044 492.592 314.404 492.303 314.685 491.936C314.966 491.561 315.126 491.135 315.165 490.659H317.228C317.189 491.409 316.935 492.108 316.466 492.757C316.005 493.397 315.4 493.917 314.65 494.315C313.9 494.706 313.075 494.901 312.177 494.901C311.224 494.901 310.392 494.733 309.681 494.397C308.978 494.061 308.392 493.6 307.923 493.014C307.462 492.428 307.115 491.757 306.88 490.999C306.654 490.233 306.54 489.424 306.54 488.573V488.081C306.54 487.229 306.654 486.424 306.88 485.667C307.115 484.901 307.462 484.225 307.923 483.639C308.392 483.053 308.978 482.592 309.681 482.257C310.392 481.921 311.224 481.753 312.177 481.753C313.169 481.753 314.036 481.956 314.779 482.362C315.521 482.76 316.103 483.307 316.525 484.003C316.954 484.69 317.189 485.471 317.228 486.346H315.165C315.126 485.823 314.978 485.35 314.72 484.928C314.47 484.507 314.126 484.171 313.689 483.921C313.259 483.663 312.755 483.534 312.177 483.534C311.513 483.534 310.954 483.667 310.501 483.932C310.056 484.19 309.7 484.542 309.435 484.987C309.177 485.424 308.99 485.913 308.872 486.452C308.763 486.983 308.708 487.526 308.708 488.081V488.573C308.708 489.128 308.763 489.674 308.872 490.214C308.982 490.753 309.165 491.241 309.423 491.678C309.689 492.116 310.044 492.467 310.49 492.733C310.943 492.991 311.505 493.12 312.177 493.12ZM322.021 481.987V494.667H319.841V481.987H322.021ZM319.677 478.624C319.677 478.272 319.783 477.975 319.993 477.733C320.212 477.491 320.533 477.37 320.954 477.37C321.368 477.37 321.685 477.491 321.904 477.733C322.13 477.975 322.243 478.272 322.243 478.624C322.243 478.96 322.13 479.249 321.904 479.491C321.685 479.725 321.368 479.842 320.954 479.842C320.533 479.842 320.212 479.725 319.993 479.491C319.783 479.249 319.677 478.96 319.677 478.624ZM330.763 494.901C329.88 494.901 329.079 494.753 328.361 494.456C327.65 494.151 327.036 493.725 326.521 493.178C326.013 492.632 325.622 491.983 325.349 491.233C325.075 490.483 324.939 489.663 324.939 488.772V488.28C324.939 487.249 325.091 486.331 325.396 485.526C325.7 484.714 326.115 484.026 326.638 483.464C327.161 482.901 327.755 482.475 328.419 482.186C329.083 481.897 329.771 481.753 330.482 481.753C331.388 481.753 332.169 481.909 332.825 482.221C333.49 482.534 334.033 482.971 334.454 483.534C334.876 484.089 335.189 484.745 335.392 485.503C335.595 486.253 335.697 487.073 335.697 487.964V488.936H326.228V487.167H333.529V487.003C333.497 486.44 333.38 485.893 333.177 485.362C332.982 484.831 332.669 484.393 332.24 484.049C331.81 483.706 331.224 483.534 330.482 483.534C329.99 483.534 329.536 483.639 329.122 483.85C328.708 484.053 328.353 484.358 328.056 484.764C327.759 485.171 327.529 485.667 327.365 486.253C327.2 486.839 327.118 487.514 327.118 488.28V488.772C327.118 489.374 327.2 489.94 327.365 490.471C327.536 490.995 327.783 491.456 328.103 491.854C328.431 492.253 328.825 492.565 329.286 492.792C329.755 493.018 330.286 493.132 330.88 493.132C331.646 493.132 332.294 492.975 332.825 492.663C333.357 492.35 333.822 491.932 334.22 491.409L335.533 492.452C335.259 492.866 334.911 493.26 334.49 493.635C334.068 494.01 333.548 494.315 332.931 494.549C332.322 494.784 331.599 494.901 330.763 494.901ZM340.396 484.694V494.667H338.228V481.987H340.279L340.396 484.694ZM339.88 487.846L338.978 487.811C338.986 486.944 339.115 486.143 339.365 485.409C339.615 484.667 339.966 484.022 340.419 483.475C340.872 482.928 341.411 482.507 342.036 482.21C342.669 481.905 343.368 481.753 344.134 481.753C344.759 481.753 345.322 481.839 345.822 482.01C346.322 482.174 346.747 482.44 347.099 482.807C347.458 483.174 347.732 483.651 347.919 484.237C348.107 484.815 348.2 485.522 348.2 486.358V494.667H346.021V486.335C346.021 485.671 345.923 485.139 345.728 484.741C345.533 484.335 345.247 484.042 344.872 483.862C344.497 483.674 344.036 483.581 343.49 483.581C342.95 483.581 342.458 483.694 342.013 483.921C341.575 484.147 341.197 484.46 340.876 484.858C340.564 485.257 340.318 485.714 340.138 486.229C339.966 486.737 339.88 487.276 339.88 487.846ZM356.568 493.12C357.083 493.12 357.56 493.014 357.997 492.803C358.435 492.592 358.794 492.303 359.075 491.936C359.357 491.561 359.517 491.135 359.556 490.659H361.618C361.579 491.409 361.325 492.108 360.857 492.757C360.396 493.397 359.79 493.917 359.04 494.315C358.29 494.706 357.466 494.901 356.568 494.901C355.615 494.901 354.783 494.733 354.072 494.397C353.368 494.061 352.783 493.6 352.314 493.014C351.853 492.428 351.505 491.757 351.271 490.999C351.044 490.233 350.931 489.424 350.931 488.573V488.081C350.931 487.229 351.044 486.424 351.271 485.667C351.505 484.901 351.853 484.225 352.314 483.639C352.783 483.053 353.368 482.592 354.072 482.257C354.783 481.921 355.615 481.753 356.568 481.753C357.56 481.753 358.427 481.956 359.169 482.362C359.911 482.76 360.493 483.307 360.915 484.003C361.345 484.69 361.579 485.471 361.618 486.346H359.556C359.517 485.823 359.368 485.35 359.111 484.928C358.861 484.507 358.517 484.171 358.079 483.921C357.65 483.663 357.146 483.534 356.568 483.534C355.904 483.534 355.345 483.667 354.892 483.932C354.447 484.19 354.091 484.542 353.825 484.987C353.568 485.424 353.38 485.913 353.263 486.452C353.154 486.983 353.099 487.526 353.099 488.081V488.573C353.099 489.128 353.154 489.674 353.263 490.214C353.372 490.753 353.556 491.241 353.814 491.678C354.079 492.116 354.435 492.467 354.88 492.733C355.333 492.991 355.896 493.12 356.568 493.12ZM369.318 494.901C368.435 494.901 367.634 494.753 366.915 494.456C366.204 494.151 365.591 493.725 365.075 493.178C364.568 492.632 364.177 491.983 363.904 491.233C363.63 490.483 363.493 489.663 363.493 488.772V488.28C363.493 487.249 363.646 486.331 363.95 485.526C364.255 484.714 364.669 484.026 365.193 483.464C365.716 482.901 366.31 482.475 366.974 482.186C367.638 481.897 368.325 481.753 369.036 481.753C369.943 481.753 370.724 481.909 371.38 482.221C372.044 482.534 372.587 482.971 373.009 483.534C373.431 484.089 373.743 484.745 373.947 485.503C374.15 486.253 374.251 487.073 374.251 487.964V488.936H364.783V487.167H372.083V487.003C372.052 486.44 371.935 485.893 371.732 485.362C371.536 484.831 371.224 484.393 370.794 484.049C370.365 483.706 369.779 483.534 369.036 483.534C368.544 483.534 368.091 483.639 367.677 483.85C367.263 484.053 366.908 484.358 366.611 484.764C366.314 485.171 366.083 485.667 365.919 486.253C365.755 486.839 365.673 487.514 365.673 488.28V488.772C365.673 489.374 365.755 489.94 365.919 490.471C366.091 490.995 366.337 491.456 366.658 491.854C366.986 492.253 367.38 492.565 367.841 492.792C368.31 493.018 368.841 493.132 369.435 493.132C370.2 493.132 370.849 492.975 371.38 492.663C371.911 492.35 372.376 491.932 372.775 491.409L374.087 492.452C373.814 492.866 373.466 493.26 373.044 493.635C372.622 494.01 372.103 494.315 371.486 494.549C370.876 494.784 370.154 494.901 369.318 494.901Z" fill="white"/>
<path d="M150.382 350.156L153.315 341.714H154.743L151.059 351.667H150.04L150.382 350.156ZM147.641 341.714L150.546 350.156L150.908 351.667H149.89L146.212 341.714H147.641ZM157.266 344.27V351.667H155.994V344.27H157.266ZM155.899 342.308C155.899 342.103 155.96 341.93 156.083 341.789C156.211 341.647 156.398 341.577 156.644 341.577C156.885 341.577 157.07 341.647 157.198 341.789C157.33 341.93 157.396 342.103 157.396 342.308C157.396 342.504 157.33 342.673 157.198 342.814C157.07 342.951 156.885 343.019 156.644 343.019C156.398 343.019 156.211 342.951 156.083 342.814C155.96 342.673 155.899 342.504 155.899 342.308ZM163.603 349.705C163.603 349.522 163.562 349.354 163.48 349.199C163.402 349.039 163.241 348.896 162.994 348.768C162.753 348.636 162.388 348.522 161.901 348.426C161.491 348.34 161.119 348.237 160.786 348.119C160.458 348 160.178 347.857 159.946 347.688C159.718 347.519 159.542 347.321 159.419 347.093C159.296 346.866 159.235 346.599 159.235 346.294C159.235 346.002 159.298 345.726 159.426 345.466C159.558 345.207 159.743 344.977 159.98 344.776C160.221 344.575 160.511 344.418 160.848 344.304C161.185 344.19 161.561 344.133 161.976 344.133C162.568 344.133 163.074 344.238 163.493 344.448C163.913 344.658 164.234 344.938 164.457 345.289C164.681 345.635 164.792 346.02 164.792 346.444H163.528C163.528 346.239 163.466 346.041 163.343 345.849C163.225 345.653 163.049 345.491 162.817 345.364C162.589 345.236 162.309 345.172 161.976 345.172C161.625 345.172 161.34 345.227 161.121 345.337C160.907 345.441 160.75 345.576 160.65 345.74C160.554 345.904 160.506 346.077 160.506 346.259C160.506 346.396 160.529 346.519 160.575 346.629C160.625 346.733 160.711 346.831 160.834 346.922C160.957 347.009 161.13 347.091 161.354 347.169C161.577 347.246 161.862 347.324 162.208 347.401C162.814 347.538 163.313 347.702 163.705 347.893C164.097 348.085 164.389 348.319 164.58 348.597C164.772 348.875 164.867 349.213 164.867 349.609C164.867 349.933 164.799 350.229 164.662 350.498C164.53 350.767 164.337 350.999 164.081 351.195C163.831 351.386 163.53 351.537 163.179 351.646C162.833 351.751 162.443 351.803 162.01 351.803C161.358 351.803 160.807 351.687 160.356 351.455C159.905 351.222 159.563 350.922 159.33 350.552C159.098 350.183 158.982 349.794 158.982 349.383H160.253C160.271 349.73 160.372 350.005 160.554 350.211C160.736 350.411 160.96 350.555 161.224 350.641C161.488 350.723 161.75 350.764 162.01 350.764C162.356 350.764 162.646 350.719 162.878 350.628C163.115 350.536 163.295 350.411 163.418 350.252C163.541 350.092 163.603 349.91 163.603 349.705ZM171.054 349.958V344.27H172.325V351.667H171.116L171.054 349.958ZM171.293 348.399L171.82 348.385C171.82 348.878 171.767 349.333 171.662 349.753C171.562 350.167 171.398 350.527 171.17 350.833C170.942 351.138 170.644 351.377 170.275 351.55C169.906 351.719 169.457 351.803 168.928 351.803C168.568 351.803 168.238 351.751 167.937 351.646C167.641 351.541 167.385 351.38 167.171 351.161C166.957 350.942 166.791 350.657 166.672 350.306C166.558 349.955 166.501 349.534 166.501 349.042V344.27H167.766V349.055C167.766 349.388 167.802 349.664 167.875 349.882C167.953 350.097 168.055 350.268 168.183 350.395C168.315 350.518 168.461 350.605 168.62 350.655C168.784 350.705 168.953 350.73 169.126 350.73C169.664 350.73 170.09 350.628 170.405 350.422C170.719 350.213 170.945 349.933 171.081 349.582C171.223 349.226 171.293 348.832 171.293 348.399ZM175.627 341.167V351.667H174.356V341.167H175.627ZM179.032 344.27V351.667H177.76V344.27H179.032ZM177.664 342.308C177.664 342.103 177.726 341.93 177.849 341.789C177.977 341.647 178.163 341.577 178.409 341.577C178.651 341.577 178.836 341.647 178.963 341.789C179.095 341.93 179.161 342.103 179.161 342.308C179.161 342.504 179.095 342.673 178.963 342.814C178.836 342.951 178.651 343.019 178.409 343.019C178.163 343.019 177.977 342.951 177.849 342.814C177.726 342.673 177.664 342.504 177.664 342.308ZM185.368 349.705C185.368 349.522 185.327 349.354 185.245 349.199C185.168 349.039 185.006 348.896 184.76 348.768C184.519 348.636 184.154 348.522 183.666 348.426C183.256 348.34 182.885 348.237 182.552 348.119C182.224 348 181.944 347.857 181.711 347.688C181.483 347.519 181.308 347.321 181.185 347.093C181.062 346.866 181 346.599 181 346.294C181 346.002 181.064 345.726 181.192 345.466C181.324 345.207 181.508 344.977 181.745 344.776C181.987 344.575 182.276 344.418 182.614 344.304C182.951 344.19 183.327 344.133 183.741 344.133C184.334 344.133 184.84 344.238 185.259 344.448C185.678 344.658 186 344.938 186.223 345.289C186.446 345.635 186.558 346.02 186.558 346.444H185.293C185.293 346.239 185.232 346.041 185.109 345.849C184.99 345.653 184.815 345.491 184.582 345.364C184.354 345.236 184.074 345.172 183.741 345.172C183.391 345.172 183.106 345.227 182.887 345.337C182.673 345.441 182.516 345.576 182.415 345.74C182.32 345.904 182.272 346.077 182.272 346.259C182.272 346.396 182.295 346.519 182.34 346.629C182.39 346.733 182.477 346.831 182.6 346.922C182.723 347.009 182.896 347.091 183.119 347.169C183.343 347.246 183.628 347.324 183.974 347.401C184.58 347.538 185.079 347.702 185.471 347.893C185.863 348.085 186.155 348.319 186.346 348.597C186.537 348.875 186.633 349.213 186.633 349.609C186.633 349.933 186.565 350.229 186.428 350.498C186.296 350.767 186.102 350.999 185.847 351.195C185.596 351.386 185.296 351.537 184.945 351.646C184.598 351.751 184.209 351.803 183.776 351.803C183.124 351.803 182.573 351.687 182.121 351.455C181.67 351.222 181.328 350.922 181.096 350.552C180.864 350.183 180.747 349.794 180.747 349.383H182.019C182.037 349.73 182.137 350.005 182.32 350.211C182.502 350.411 182.725 350.555 182.99 350.641C183.254 350.723 183.516 350.764 183.776 350.764C184.122 350.764 184.411 350.719 184.644 350.628C184.881 350.536 185.061 350.411 185.184 350.252C185.307 350.092 185.368 349.91 185.368 349.705ZM192.656 350.402V346.594C192.656 346.303 192.596 346.05 192.478 345.836C192.364 345.617 192.191 345.448 191.958 345.33C191.726 345.211 191.439 345.152 191.097 345.152C190.778 345.152 190.498 345.207 190.256 345.316C190.019 345.425 189.832 345.569 189.696 345.747C189.563 345.924 189.497 346.116 189.497 346.321H188.233C188.233 346.057 188.301 345.795 188.438 345.535C188.575 345.275 188.77 345.04 189.026 344.831C189.285 344.616 189.595 344.448 189.955 344.325C190.32 344.197 190.726 344.133 191.172 344.133C191.71 344.133 192.184 344.225 192.594 344.407C193.009 344.589 193.332 344.865 193.565 345.234C193.802 345.599 193.92 346.057 193.92 346.608V350.053C193.92 350.299 193.941 350.561 193.982 350.839C194.027 351.117 194.093 351.357 194.18 351.557V351.667H192.861C192.797 351.521 192.747 351.327 192.71 351.086C192.674 350.839 192.656 350.612 192.656 350.402ZM192.874 347.182L192.888 348.071H191.61C191.25 348.071 190.928 348.101 190.646 348.16C190.363 348.214 190.126 348.299 189.935 348.413C189.743 348.527 189.598 348.67 189.497 348.843C189.397 349.012 189.347 349.21 189.347 349.438C189.347 349.671 189.399 349.882 189.504 350.074C189.609 350.265 189.766 350.418 189.976 350.532C190.19 350.641 190.452 350.696 190.762 350.696C191.149 350.696 191.491 350.614 191.787 350.45C192.084 350.286 192.318 350.085 192.491 349.848C192.669 349.611 192.765 349.381 192.779 349.158L193.319 349.766C193.287 349.958 193.2 350.17 193.059 350.402C192.918 350.634 192.728 350.858 192.491 351.072C192.259 351.282 191.981 351.457 191.658 351.598C191.338 351.735 190.978 351.803 190.577 351.803C190.076 351.803 189.636 351.705 189.258 351.509C188.884 351.313 188.593 351.051 188.383 350.723C188.178 350.391 188.075 350.019 188.075 349.609C188.075 349.213 188.153 348.864 188.308 348.563C188.463 348.258 188.686 348.005 188.978 347.804C189.269 347.599 189.62 347.444 190.031 347.339C190.441 347.235 190.899 347.182 191.405 347.182H192.874ZM199.006 344.27V345.241H195.007V344.27H199.006ZM196.361 342.472H197.625V349.835C197.625 350.085 197.664 350.274 197.741 350.402C197.819 350.53 197.919 350.614 198.042 350.655C198.165 350.696 198.297 350.716 198.439 350.716C198.544 350.716 198.653 350.707 198.767 350.689C198.885 350.666 198.974 350.648 199.033 350.634L199.04 351.667C198.94 351.699 198.808 351.728 198.644 351.755C198.484 351.787 198.291 351.803 198.063 351.803C197.753 351.803 197.468 351.742 197.208 351.619C196.949 351.496 196.741 351.291 196.586 351.004C196.436 350.712 196.361 350.32 196.361 349.828V342.472ZM201.864 344.27V351.667H200.592V344.27H201.864ZM200.496 342.308C200.496 342.103 200.558 341.93 200.681 341.789C200.809 341.647 200.995 341.577 201.241 341.577C201.483 341.577 201.668 341.647 201.795 341.789C201.927 341.93 201.993 342.103 201.993 342.308C201.993 342.504 201.927 342.673 201.795 342.814C201.668 342.951 201.483 343.019 201.241 343.019C200.995 343.019 200.809 342.951 200.681 342.814C200.558 342.673 200.496 342.504 200.496 342.308ZM203.559 348.05V347.893C203.559 347.36 203.636 346.866 203.791 346.41C203.946 345.95 204.17 345.551 204.461 345.214C204.753 344.872 205.106 344.607 205.521 344.421C205.936 344.229 206.4 344.133 206.915 344.133C207.435 344.133 207.902 344.229 208.317 344.421C208.736 344.607 209.091 344.872 209.383 345.214C209.679 345.551 209.905 345.95 210.06 346.41C210.215 346.866 210.292 347.36 210.292 347.893V348.05C210.292 348.584 210.215 349.078 210.06 349.534C209.905 349.99 209.679 350.388 209.383 350.73C209.091 351.067 208.738 351.332 208.324 351.523C207.913 351.71 207.449 351.803 206.929 351.803C206.409 351.803 205.942 351.71 205.528 351.523C205.113 351.332 204.757 351.067 204.461 350.73C204.17 350.388 203.946 349.99 203.791 349.534C203.636 349.078 203.559 348.584 203.559 348.05ZM204.824 347.893V348.05C204.824 348.42 204.867 348.768 204.953 349.096C205.04 349.42 205.17 349.707 205.343 349.958C205.521 350.208 205.742 350.407 206.006 350.552C206.27 350.694 206.578 350.764 206.929 350.764C207.275 350.764 207.578 350.694 207.838 350.552C208.102 350.407 208.321 350.208 208.494 349.958C208.668 349.707 208.797 349.42 208.884 349.096C208.975 348.768 209.021 348.42 209.021 348.05V347.893C209.021 347.529 208.975 347.185 208.884 346.861C208.797 346.533 208.665 346.243 208.488 345.993C208.314 345.738 208.096 345.537 207.831 345.391C207.572 345.245 207.266 345.172 206.915 345.172C206.569 345.172 206.264 345.245 205.999 345.391C205.74 345.537 205.521 345.738 205.343 345.993C205.17 346.243 205.04 346.533 204.953 346.861C204.867 347.185 204.824 347.529 204.824 347.893ZM213.143 345.849V351.667H211.878V344.27H213.075L213.143 345.849ZM212.842 347.688L212.316 347.668C212.32 347.162 212.395 346.695 212.541 346.266C212.687 345.833 212.892 345.457 213.157 345.138C213.421 344.819 213.735 344.573 214.1 344.4C214.469 344.222 214.877 344.133 215.324 344.133C215.688 344.133 216.016 344.184 216.308 344.284C216.6 344.38 216.848 344.534 217.053 344.749C217.263 344.963 217.422 345.241 217.532 345.583C217.641 345.92 217.696 346.332 217.696 346.82V351.667H216.424V346.806C216.424 346.419 216.367 346.109 216.253 345.877C216.139 345.64 215.973 345.469 215.754 345.364C215.535 345.255 215.267 345.2 214.948 345.2C214.633 345.2 214.346 345.266 214.086 345.398C213.831 345.53 213.61 345.713 213.423 345.945C213.241 346.177 213.097 346.444 212.992 346.745C212.892 347.041 212.842 347.355 212.842 347.688Z" fill="white"/>
<path d="M251.965 269.604V286.667H248.449V269.604H251.965ZM258.762 276.893V279.635H251.004V276.893H258.762ZM259.582 269.604V272.358H251.004V269.604H259.582ZM268.652 283.631V273.987H272.027V286.667H268.852L268.652 283.631ZM269.027 281.03L270.023 281.006C270.023 281.85 269.926 282.635 269.73 283.362C269.535 284.081 269.242 284.706 268.852 285.237C268.461 285.76 267.969 286.171 267.375 286.467C266.781 286.756 266.082 286.901 265.277 286.901C264.66 286.901 264.09 286.815 263.566 286.643C263.051 286.464 262.605 286.186 262.23 285.811C261.863 285.428 261.574 284.94 261.363 284.346C261.16 283.745 261.059 283.022 261.059 282.178V273.987H264.434V282.202C264.434 282.577 264.477 282.893 264.562 283.151C264.656 283.409 264.785 283.62 264.949 283.784C265.113 283.948 265.305 284.065 265.523 284.135C265.75 284.206 266 284.241 266.273 284.241C266.969 284.241 267.516 284.1 267.914 283.819C268.32 283.538 268.605 283.155 268.77 282.671C268.941 282.178 269.027 281.631 269.027 281.03ZM278.168 268.667V286.667H274.781V268.667H278.168ZM284.52 268.667V286.667H281.133V268.667H284.52ZM302.379 282.202C302.379 281.897 302.332 281.624 302.238 281.381C302.152 281.131 301.988 280.905 301.746 280.702C301.504 280.491 301.164 280.284 300.727 280.081C300.289 279.878 299.723 279.667 299.027 279.448C298.254 279.198 297.52 278.917 296.824 278.604C296.137 278.292 295.527 277.928 294.996 277.514C294.473 277.092 294.059 276.604 293.754 276.049C293.457 275.495 293.309 274.85 293.309 274.116C293.309 273.405 293.465 272.76 293.777 272.182C294.09 271.596 294.527 271.096 295.09 270.682C295.652 270.26 296.316 269.936 297.082 269.71C297.855 269.483 298.703 269.37 299.625 269.37C300.883 269.37 301.98 269.596 302.918 270.049C303.855 270.503 304.582 271.124 305.098 271.913C305.621 272.702 305.883 273.604 305.883 274.62H302.391C302.391 274.12 302.285 273.682 302.074 273.307C301.871 272.924 301.559 272.624 301.137 272.405C300.723 272.186 300.199 272.077 299.566 272.077C298.957 272.077 298.449 272.171 298.043 272.358C297.637 272.538 297.332 272.784 297.129 273.096C296.926 273.401 296.824 273.745 296.824 274.128C296.824 274.417 296.895 274.678 297.035 274.913C297.184 275.147 297.402 275.366 297.691 275.569C297.98 275.772 298.336 275.964 298.758 276.143C299.18 276.323 299.668 276.499 300.223 276.671C301.152 276.952 301.969 277.268 302.672 277.62C303.383 277.971 303.977 278.366 304.453 278.803C304.93 279.241 305.289 279.737 305.531 280.292C305.773 280.846 305.895 281.475 305.895 282.178C305.895 282.921 305.75 283.585 305.461 284.171C305.172 284.756 304.754 285.253 304.207 285.659C303.66 286.065 303.008 286.374 302.25 286.585C301.492 286.796 300.645 286.901 299.707 286.901C298.863 286.901 298.031 286.792 297.211 286.573C296.391 286.346 295.645 286.006 294.973 285.553C294.309 285.1 293.777 284.522 293.379 283.819C292.98 283.116 292.781 282.284 292.781 281.323H296.309C296.309 281.854 296.391 282.303 296.555 282.671C296.719 283.038 296.949 283.335 297.246 283.561C297.551 283.788 297.91 283.952 298.324 284.053C298.746 284.155 299.207 284.206 299.707 284.206C300.316 284.206 300.816 284.12 301.207 283.948C301.605 283.776 301.898 283.538 302.086 283.233C302.281 282.928 302.379 282.585 302.379 282.202ZM314.285 273.987V276.378H306.902V273.987H314.285ZM308.73 270.858H312.105V282.846C312.105 283.214 312.152 283.495 312.246 283.69C312.348 283.885 312.496 284.022 312.691 284.1C312.887 284.171 313.133 284.206 313.43 284.206C313.641 284.206 313.828 284.198 313.992 284.182C314.164 284.159 314.309 284.135 314.426 284.112L314.437 286.596C314.148 286.69 313.836 286.764 313.5 286.819C313.164 286.874 312.793 286.901 312.387 286.901C311.645 286.901 310.996 286.78 310.441 286.538C309.895 286.288 309.473 285.889 309.176 285.342C308.879 284.796 308.73 284.077 308.73 283.186V270.858ZM323.051 283.807V278.159C323.051 277.753 322.984 277.405 322.852 277.116C322.719 276.819 322.512 276.589 322.23 276.424C321.957 276.26 321.602 276.178 321.164 276.178C320.789 276.178 320.465 276.245 320.191 276.378C319.918 276.503 319.707 276.686 319.559 276.928C319.41 277.163 319.336 277.44 319.336 277.76H315.961C315.961 277.221 316.086 276.71 316.336 276.225C316.586 275.741 316.949 275.315 317.426 274.948C317.902 274.573 318.469 274.28 319.125 274.069C319.789 273.858 320.531 273.753 321.352 273.753C322.336 273.753 323.211 273.917 323.977 274.245C324.742 274.573 325.344 275.065 325.781 275.721C326.227 276.378 326.449 277.198 326.449 278.182V283.608C326.449 284.303 326.492 284.874 326.578 285.319C326.664 285.756 326.789 286.139 326.953 286.467V286.667H323.543C323.379 286.323 323.254 285.893 323.168 285.378C323.09 284.854 323.051 284.331 323.051 283.807ZM323.496 278.944L323.52 280.854H321.633C321.187 280.854 320.801 280.905 320.473 281.006C320.145 281.108 319.875 281.253 319.664 281.44C319.453 281.62 319.297 281.831 319.195 282.073C319.102 282.315 319.055 282.581 319.055 282.87C319.055 283.159 319.121 283.421 319.254 283.655C319.387 283.881 319.578 284.061 319.828 284.194C320.078 284.319 320.371 284.381 320.707 284.381C321.215 284.381 321.656 284.28 322.031 284.077C322.406 283.874 322.695 283.624 322.898 283.327C323.109 283.03 323.219 282.749 323.227 282.483L324.117 283.913C323.992 284.233 323.82 284.565 323.602 284.909C323.391 285.253 323.121 285.577 322.793 285.881C322.465 286.178 322.07 286.424 321.609 286.62C321.148 286.807 320.602 286.901 319.969 286.901C319.164 286.901 318.434 286.741 317.777 286.421C317.129 286.092 316.613 285.643 316.23 285.073C315.855 284.495 315.668 283.839 315.668 283.104C315.668 282.44 315.793 281.85 316.043 281.335C316.293 280.819 316.66 280.385 317.145 280.034C317.637 279.674 318.25 279.405 318.984 279.225C319.719 279.038 320.57 278.944 321.539 278.944H323.496ZM334.289 284.264C334.703 284.264 335.07 284.186 335.391 284.03C335.711 283.866 335.961 283.639 336.141 283.35C336.328 283.053 336.426 282.706 336.434 282.307H339.609C339.602 283.198 339.363 283.991 338.895 284.686C338.426 285.374 337.797 285.917 337.008 286.315C336.219 286.706 335.336 286.901 334.359 286.901C333.375 286.901 332.516 286.737 331.781 286.409C331.055 286.081 330.449 285.628 329.965 285.049C329.48 284.464 329.117 283.784 328.875 283.01C328.633 282.229 328.512 281.393 328.512 280.503V280.163C328.512 279.264 328.633 278.428 328.875 277.655C329.117 276.874 329.48 276.194 329.965 275.616C330.449 275.03 331.055 274.573 331.781 274.245C332.508 273.917 333.359 273.753 334.336 273.753C335.375 273.753 336.285 273.952 337.066 274.35C337.855 274.749 338.473 275.319 338.918 276.061C339.371 276.796 339.602 277.667 339.609 278.674H336.434C336.426 278.253 336.336 277.87 336.164 277.526C336 277.182 335.758 276.909 335.437 276.706C335.125 276.495 334.738 276.389 334.277 276.389C333.785 276.389 333.383 276.495 333.07 276.706C332.758 276.909 332.516 277.19 332.344 277.549C332.172 277.901 332.051 278.303 331.98 278.756C331.918 279.202 331.887 279.671 331.887 280.163V280.503C331.887 280.995 331.918 281.467 331.98 281.921C332.043 282.374 332.16 282.776 332.332 283.128C332.512 283.479 332.758 283.756 333.07 283.96C333.383 284.163 333.789 284.264 334.289 284.264ZM344.941 268.655V286.667H341.566V268.655H344.941ZM352.934 273.987L347.426 280.268L344.473 283.256L343.242 280.819L345.586 277.842L348.879 273.987H352.934ZM349.43 286.667L345.68 280.807L348.012 278.768L353.32 286.667H349.43Z" fill="black"/>
<path d="M407.129 343.26V344.333H402.152V343.26H407.129ZM402.412 334.38V344.333H401.093V334.38H402.412ZM408.113 340.717V340.56C408.113 340.027 408.191 339.532 408.346 339.077C408.501 338.616 408.724 338.217 409.016 337.88C409.307 337.538 409.661 337.274 410.075 337.087C410.49 336.896 410.955 336.8 411.47 336.8C411.989 336.8 412.456 336.896 412.871 337.087C413.29 337.274 413.646 337.538 413.938 337.88C414.234 338.217 414.459 338.616 414.614 339.077C414.769 339.532 414.847 340.027 414.847 340.56V340.717C414.847 341.25 414.769 341.745 414.614 342.201C414.459 342.656 414.234 343.055 413.938 343.397C413.646 343.734 413.293 343.998 412.878 344.19C412.468 344.377 412.003 344.47 411.483 344.47C410.964 344.47 410.497 344.377 410.082 344.19C409.667 343.998 409.312 343.734 409.016 343.397C408.724 343.055 408.501 342.656 408.346 342.201C408.191 341.745 408.113 341.25 408.113 340.717ZM409.378 340.56V340.717C409.378 341.086 409.421 341.435 409.508 341.763C409.594 342.087 409.724 342.374 409.897 342.624C410.075 342.875 410.296 343.073 410.561 343.219C410.825 343.36 411.133 343.431 411.483 343.431C411.83 343.431 412.133 343.36 412.393 343.219C412.657 343.073 412.876 342.875 413.049 342.624C413.222 342.374 413.352 342.087 413.439 341.763C413.53 341.435 413.575 341.086 413.575 340.717V340.56C413.575 340.195 413.53 339.851 413.439 339.528C413.352 339.2 413.22 338.91 413.042 338.66C412.869 338.404 412.65 338.204 412.386 338.058C412.126 337.912 411.821 337.839 411.47 337.839C411.123 337.839 410.818 337.912 410.554 338.058C410.294 338.204 410.075 338.404 409.897 338.66C409.724 338.91 409.594 339.2 409.508 339.528C409.421 339.851 409.378 340.195 409.378 340.56ZM421.225 336.937H422.373V344.176C422.373 344.828 422.241 345.384 421.977 345.844C421.712 346.304 421.343 346.653 420.869 346.89C420.4 347.132 419.857 347.252 419.242 347.252C418.987 347.252 418.686 347.211 418.34 347.129C417.998 347.052 417.661 346.917 417.328 346.726C417 346.539 416.724 346.286 416.501 345.967L417.164 345.215C417.474 345.589 417.798 345.849 418.135 345.995C418.477 346.14 418.814 346.213 419.147 346.213C419.548 346.213 419.894 346.138 420.186 345.988C420.477 345.837 420.703 345.614 420.862 345.318C421.026 345.026 421.108 344.666 421.108 344.238V338.564L421.225 336.937ZM416.132 340.717V340.574C416.132 340.009 416.198 339.496 416.33 339.036C416.467 338.571 416.661 338.172 416.911 337.839C417.166 337.507 417.474 337.251 417.834 337.074C418.194 336.891 418.6 336.8 419.051 336.8C419.516 336.8 419.921 336.882 420.268 337.046C420.619 337.206 420.915 337.44 421.156 337.75C421.402 338.056 421.596 338.425 421.737 338.858C421.879 339.291 421.977 339.781 422.031 340.328V340.956C421.981 341.499 421.883 341.986 421.737 342.419C421.596 342.852 421.402 343.221 421.156 343.527C420.915 343.832 420.619 344.067 420.268 344.231C419.917 344.39 419.507 344.47 419.037 344.47C418.595 344.47 418.194 344.377 417.834 344.19C417.479 344.003 417.173 343.741 416.918 343.404C416.663 343.066 416.467 342.67 416.33 342.214C416.198 341.754 416.132 341.255 416.132 340.717ZM417.397 340.574V340.717C417.397 341.086 417.433 341.433 417.506 341.756C417.583 342.08 417.7 342.365 417.855 342.611C418.014 342.857 418.217 343.05 418.463 343.192C418.709 343.328 419.003 343.397 419.345 343.397C419.764 343.397 420.11 343.308 420.384 343.13C420.657 342.953 420.874 342.718 421.033 342.426C421.197 342.134 421.325 341.818 421.416 341.476V339.828C421.366 339.578 421.288 339.336 421.184 339.104C421.083 338.867 420.951 338.657 420.787 338.475C420.628 338.288 420.429 338.14 420.192 338.031C419.955 337.921 419.677 337.867 419.358 337.867C419.012 337.867 418.714 337.939 418.463 338.085C418.217 338.227 418.014 338.423 417.855 338.673C417.7 338.919 417.583 339.206 417.506 339.535C417.433 339.858 417.397 340.204 417.397 340.574ZM425.668 336.937V344.333H424.397V336.937H425.668ZM424.301 334.975C424.301 334.77 424.362 334.597 424.485 334.455C424.613 334.314 424.8 334.244 425.046 334.244C425.287 334.244 425.472 334.314 425.6 334.455C425.732 334.597 425.798 334.77 425.798 334.975C425.798 335.171 425.732 335.34 425.6 335.481C425.472 335.618 425.287 335.686 425.046 335.686C424.8 335.686 424.613 335.618 424.485 335.481C424.362 335.34 424.301 335.171 424.301 334.975ZM430.658 343.431C430.959 343.431 431.237 343.37 431.492 343.246C431.747 343.123 431.957 342.955 432.121 342.741C432.285 342.522 432.379 342.273 432.401 341.995H433.605C433.582 342.433 433.434 342.841 433.16 343.219C432.891 343.593 432.538 343.896 432.101 344.128C431.663 344.356 431.182 344.47 430.658 344.47C430.102 344.47 429.617 344.372 429.202 344.176C428.792 343.98 428.45 343.711 428.177 343.37C427.908 343.028 427.705 342.636 427.568 342.194C427.436 341.747 427.37 341.275 427.37 340.779V340.492C427.37 339.995 427.436 339.525 427.568 339.083C427.705 338.637 427.908 338.243 428.177 337.901C428.45 337.559 428.792 337.29 429.202 337.094C429.617 336.898 430.102 336.8 430.658 336.8C431.237 336.8 431.743 336.919 432.176 337.156C432.609 337.388 432.948 337.707 433.194 338.113C433.445 338.514 433.582 338.969 433.605 339.48H432.401C432.379 339.175 432.292 338.899 432.142 338.653C431.996 338.407 431.795 338.211 431.54 338.065C431.289 337.914 430.995 337.839 430.658 337.839C430.271 337.839 429.945 337.917 429.681 338.072C429.421 338.222 429.214 338.427 429.059 338.687C428.908 338.942 428.799 339.227 428.731 339.541C428.667 339.851 428.635 340.168 428.635 340.492V340.779C428.635 341.102 428.667 341.421 428.731 341.736C428.794 342.05 428.901 342.335 429.052 342.59C429.207 342.845 429.414 343.05 429.674 343.205C429.938 343.356 430.266 343.431 430.658 343.431Z" fill="white"/>
<path d="M299.284 126.595L295.989 135.667H294.642L298.436 125.714H299.304L299.284 126.595ZM302.045 135.667L298.744 126.595L298.723 125.714H299.591L303.399 135.667H302.045ZM301.874 131.982V133.062H296.283V131.982H301.874ZM308.403 131.763H305.744V130.69H308.403C308.918 130.69 309.335 130.608 309.654 130.444C309.973 130.28 310.205 130.052 310.351 129.76C310.501 129.469 310.577 129.136 310.577 128.762C310.577 128.421 310.501 128.099 310.351 127.798C310.205 127.498 309.973 127.256 309.654 127.074C309.335 126.887 308.918 126.794 308.403 126.794H306.051V135.667H304.732V125.714H308.403C309.155 125.714 309.79 125.843 310.31 126.103C310.829 126.363 311.224 126.723 311.493 127.183C311.761 127.639 311.896 128.161 311.896 128.749C311.896 129.387 311.761 129.931 311.493 130.382C311.224 130.834 310.829 131.178 310.31 131.415C309.79 131.647 309.155 131.763 308.403 131.763ZM314.979 125.714V135.667H313.66V125.714H314.979Z" fill="white"/>
</svg>
