<svg width="484" height="470" viewBox="0 0 484 470" fill="none" xmlns="http://www.w3.org/2000/svg">
<path d="M167.726 467.04C154.309 469.016 140.731 469.673 127.186 469C94.5262 467.35 62.4061 457.85 34.9563 439.99C22.7859 432.07 11.1761 422.34 4.87625 409.27C-3.67404 391.52 -0.68381 369.05 11.5261 353.59C15.9799 348.014 21.4582 343.34 27.6663 339.82C28.5862 339.3 29.5261 338.8 30.4763 338.32C40.8208 333.118 52.4398 330.991 63.9564 332.19C83.5359 334.33 101.606 346.29 112.046 363C121.346 377.9 124.586 395.48 126.496 413.1C126.856 416.42 127.166 419.75 127.466 423.06C125.802 432.65 123.186 442.05 119.656 451.12C119.477 451.562 119.33 452.017 119.216 452.48C121.216 456.82 123.119 461.2 124.926 465.62C126.624 466.542 128.525 467.023 130.456 467.02H167.646L167.726 467.04Z" fill="#F2F2F2"/>
<path d="M124.156 467.89C123.909 468 123.643 468.06 123.374 468.066C123.104 468.072 122.835 468.025 122.584 467.926C122.333 467.827 122.103 467.68 121.91 467.491C121.716 467.303 121.562 467.078 121.456 466.83C121.296 466.45 121.146 466.07 120.986 465.69C119.546 462.19 118.036 458.723 116.456 455.29C96.2282 410.984 66.0565 371.94 28.2859 341.19C28.0694 341.038 27.8978 340.831 27.7888 340.59C27.6798 340.349 27.6375 340.083 27.6662 339.82C27.7211 339.519 27.8433 339.234 28.0239 338.986C28.2044 338.739 28.4385 338.535 28.7087 338.391C28.979 338.247 29.2783 338.165 29.5844 338.153C29.8905 338.141 30.1954 338.198 30.4763 338.32C30.6268 338.388 30.768 338.476 30.8962 338.58C47.0561 351.742 61.8809 366.463 75.156 382.53C88.4339 398.582 100.125 415.883 110.066 434.19C112.776 439.19 115.349 444.26 117.786 449.4C118.266 450.42 118.746 451.45 119.216 452.48C121.216 456.82 123.119 461.2 124.926 465.62C124.956 465.69 124.986 465.77 125.016 465.84C125.108 466.029 125.159 466.236 125.165 466.446C125.171 466.656 125.132 466.866 125.05 467.06C124.969 467.254 124.847 467.428 124.693 467.571C124.538 467.714 124.355 467.823 124.156 467.89Z" fill="white"/>
<path d="M322.526 205C329.706 205 335.526 199.18 335.526 192C335.526 184.82 329.706 179 322.526 179C315.346 179 309.526 184.82 309.526 192C309.526 199.18 315.346 205 322.526 205Z" fill="#6C63FF"/>
<path d="M321.238 196.959C320.945 196.96 320.66 196.865 320.426 196.69L320.412 196.679L317.357 194.34C317.215 194.232 317.096 194.096 317.006 193.942C316.916 193.788 316.858 193.617 316.834 193.44C316.811 193.263 316.822 193.083 316.868 192.911C316.914 192.738 316.994 192.577 317.102 192.435C317.211 192.293 317.346 192.174 317.501 192.085C317.655 191.996 317.826 191.938 318.003 191.915C318.18 191.891 318.36 191.903 318.532 191.95C318.705 191.996 318.866 192.076 319.008 192.185L320.987 193.702L325.663 187.604C325.771 187.462 325.907 187.344 326.061 187.254C326.215 187.165 326.386 187.107 326.562 187.084C326.739 187.061 326.919 187.072 327.091 187.118C327.263 187.164 327.425 187.244 327.566 187.352L327.537 187.392L327.567 187.353C327.852 187.572 328.039 187.896 328.086 188.253C328.133 188.609 328.037 188.97 327.818 189.256L322.317 196.43C322.19 196.595 322.027 196.729 321.839 196.82C321.652 196.912 321.446 196.96 321.238 196.959V196.959Z" fill="white"/>
<path d="M322.526 243C329.706 243 335.526 237.18 335.526 230C335.526 222.82 329.706 217 322.526 217C315.346 217 309.526 222.82 309.526 230C309.526 237.18 315.346 243 322.526 243Z" fill="#6C63FF"/>
<path d="M321.238 234.959C320.945 234.96 320.66 234.865 320.426 234.69L320.412 234.679L317.357 232.34C317.215 232.232 317.096 232.096 317.006 231.942C316.916 231.788 316.858 231.617 316.834 231.44C316.811 231.263 316.822 231.083 316.868 230.911C316.914 230.738 316.994 230.577 317.102 230.435C317.211 230.293 317.346 230.174 317.501 230.085C317.655 229.996 317.826 229.938 318.003 229.915C318.18 229.891 318.36 229.903 318.532 229.95C318.705 229.996 318.866 230.076 319.008 230.185L320.987 231.702L325.663 225.604C325.771 225.462 325.907 225.344 326.061 225.254C326.215 225.165 326.386 225.107 326.562 225.084C326.739 225.061 326.919 225.072 327.091 225.118C327.263 225.164 327.425 225.244 327.566 225.352L327.537 225.392L327.567 225.353C327.852 225.572 328.039 225.896 328.086 226.253C328.133 226.609 328.037 226.97 327.818 227.256L322.317 234.43C322.19 234.595 322.027 234.729 321.839 234.82C321.652 234.912 321.446 234.96 321.238 234.959V234.959Z" fill="white"/>
<path d="M329.526 287C336.706 287 342.526 281.18 342.526 274C342.526 266.82 336.706 261 329.526 261C322.346 261 316.526 266.82 316.526 274C316.526 281.18 322.346 287 329.526 287Z" fill="#6C63FF"/>
<path d="M328.238 278.959C327.945 278.96 327.66 278.865 327.426 278.69L327.412 278.679L324.357 276.34C324.215 276.232 324.096 276.096 324.006 275.942C323.916 275.788 323.858 275.617 323.834 275.44C323.811 275.263 323.822 275.083 323.868 274.911C323.914 274.738 323.994 274.577 324.102 274.435C324.211 274.293 324.346 274.174 324.501 274.085C324.655 273.996 324.826 273.938 325.003 273.915C325.18 273.891 325.36 273.903 325.532 273.95C325.705 273.996 325.866 274.076 326.008 274.185L327.987 275.702L332.663 269.604C332.771 269.462 332.907 269.344 333.061 269.254C333.215 269.165 333.386 269.107 333.562 269.084C333.739 269.061 333.919 269.072 334.091 269.118C334.263 269.164 334.425 269.244 334.566 269.352L334.537 269.392L334.567 269.353C334.852 269.572 335.039 269.896 335.086 270.253C335.133 270.609 335.037 270.97 334.818 271.256L329.317 278.43C329.19 278.595 329.027 278.729 328.839 278.82C328.652 278.912 328.446 278.96 328.238 278.959V278.959Z" fill="white"/>
<path d="M454.882 382.539C454.747 382.539 454.663 382.536 454.633 382.534L438.493 382.536V380.156H454.691C455.066 380.17 462.718 380.386 469.768 371.831C480.274 359.082 488.901 327.522 470.341 249.567C445.383 144.747 466.199 52.1437 476.306 17.1953C476.804 15.4663 476.893 13.6451 476.567 11.8757C476.24 10.1063 475.506 8.43721 474.423 7.00021C473.34 5.5632 471.938 4.3977 470.327 3.5958C468.716 2.7939 466.941 2.37759 465.142 2.37972H224.108C222.275 2.38218 220.469 2.81667 218.836 3.64796C217.203 4.47924 215.789 5.68388 214.708 7.1641C210.426 13.0541 204.55 24.3693 200.873 44.8291L198.531 44.4085C202.288 23.5042 208.355 11.8561 212.784 5.76508C214.085 3.98149 215.789 2.52993 217.756 1.52824C219.724 0.526545 221.9 0.00296261 224.108 6.47662e-06H465.142C467.31 -0.00208019 469.449 0.500081 471.39 1.46682C473.331 2.43356 475.021 3.83838 476.325 5.5703C477.63 7.30223 478.514 9.31379 478.907 11.4461C479.301 13.5784 479.193 15.773 478.593 17.8565C468.537 52.6235 447.829 144.746 472.656 249.017C491.477 328.067 482.429 360.312 471.525 373.441C464.332 382.101 456.407 382.539 454.882 382.539Z" fill="#E6E6E6"/>
<path d="M411.453 425.969C411.318 425.969 411.233 425.965 411.203 425.964L395.064 425.965V423.586H411.262C411.639 423.597 419.288 423.815 426.338 415.261C436.844 402.512 445.472 370.951 426.911 292.997C401.954 188.176 422.769 95.5731 432.877 60.6248C433.375 58.8957 433.464 57.0746 433.137 55.3052C432.81 53.5358 432.076 51.8667 430.994 50.4297C429.911 48.9927 428.508 47.8272 426.898 47.0253C425.287 46.2234 423.512 45.807 421.712 45.8092H180.678C178.846 45.8116 177.04 46.2461 175.406 47.0774C173.773 47.9087 172.359 49.1133 171.279 50.5935C166.997 56.4835 161.121 67.7987 157.444 88.2586L155.102 87.8379C158.859 66.9336 164.926 55.2855 169.354 49.1945C170.655 47.4109 172.359 45.9594 174.327 44.9577C176.294 43.956 178.47 43.4324 180.678 43.4294H421.713C423.881 43.4274 426.02 43.9295 427.961 44.8963C429.902 45.863 431.591 47.2678 432.896 48.9998C434.2 50.7317 435.084 52.7433 435.478 54.8756C435.871 57.0078 435.764 59.2024 435.163 61.2859C425.107 96.053 404.4 188.176 429.226 292.446C448.048 371.497 439 403.741 428.095 416.871C420.903 425.53 412.978 425.969 411.453 425.969Z" fill="#CCCCCC"/>
<path d="M385.796 335.88C360.966 231.61 381.676 139.48 391.736 104.72C392.335 102.636 392.442 100.442 392.048 98.3102C391.654 96.1783 390.77 94.1671 389.465 92.4353C388.161 90.7035 386.472 89.2984 384.532 88.3308C382.592 87.3633 380.454 86.8597 378.286 86.8599H137.246C135.039 86.862 132.864 87.3848 130.897 88.3856C128.93 89.3864 127.227 90.8371 125.926 92.6199C116.196 106 96.0061 150.37 118.556 273.14C130.616 338.82 130.436 383.6 126.496 413.1C124.286 429.71 120.876 441.47 117.786 449.4L117.456 450.24C116.805 451.845 116.466 453.558 116.456 455.29C116.433 457.245 116.825 459.183 117.606 460.976C118.387 462.768 119.539 464.375 120.986 465.69C121.93 466.574 122.998 467.315 124.156 467.89C125.118 468.381 126.135 468.753 127.186 469C128.257 469.261 129.355 469.392 130.456 469.39H367.776C367.806 469.39 367.886 469.4 368.026 469.4C369.546 469.4 377.476 468.96 384.666 460.3C395.566 447.17 404.616 414.93 385.796 335.88ZM382.906 458.69C375.856 467.25 368.206 467.03 367.836 467.02H130.456C128.556 467.019 126.684 466.553 125.006 465.662C123.327 464.772 121.892 463.483 120.826 461.91C119.888 460.549 119.259 459.001 118.981 457.372C118.703 455.744 118.783 454.074 119.216 452.48C119.329 452.016 119.476 451.562 119.656 451.12C123.186 442.049 125.802 432.65 127.466 423.06C133.106 392.31 134.156 344.86 120.896 272.71C98.5163 150.85 118.306 107.15 127.846 94.0199C128.928 92.5418 130.343 91.339 131.976 90.5087C133.609 89.6783 135.414 89.2437 137.246 89.2399H378.286C380.084 89.2386 381.858 89.6554 383.468 90.4572C385.078 91.2591 386.479 92.4241 387.561 93.8603C388.643 95.2965 389.377 96.9647 389.704 98.733C390.031 100.501 389.943 102.322 389.446 104.05C379.336 139 358.526 231.61 383.486 336.43C402.046 414.38 393.416 445.94 382.906 458.69Z" fill="#3F3D56"/>
<path d="M271.286 200.4H147.1C144.575 200.4 142.154 199.398 140.369 197.612C138.584 195.827 137.581 193.406 137.581 190.882C137.581 188.357 138.584 185.936 140.369 184.151C142.154 182.366 144.575 181.363 147.1 181.363H271.286C273.81 181.363 276.231 182.366 278.016 184.151C279.801 185.936 280.804 188.357 280.804 190.882C280.804 193.406 279.801 195.827 278.016 197.612C276.231 199.398 273.81 200.4 271.286 200.4V200.4Z" fill="#CCCCCC"/>
<path d="M271.286 241.4H147.1C144.575 241.4 142.154 240.398 140.369 238.612C138.584 236.827 137.581 234.406 137.581 231.882C137.581 229.357 138.584 226.936 140.369 225.151C142.154 223.366 144.575 222.363 147.1 222.363H271.286C273.81 222.363 276.231 223.366 278.016 225.151C279.801 226.936 280.804 229.357 280.804 231.882C280.804 234.406 279.801 236.827 278.016 238.612C276.231 240.398 273.81 241.4 271.286 241.4V241.4Z" fill="#CCCCCC"/>
<path d="M281.286 283.4H157.1C154.575 283.4 152.154 282.398 150.369 280.612C148.584 278.827 147.581 276.406 147.581 273.882C147.581 271.357 148.584 268.936 150.369 267.151C152.154 265.366 154.575 264.363 157.1 264.363H281.286C283.81 264.363 286.231 265.366 288.016 267.151C289.801 268.936 290.804 271.357 290.804 273.882C290.804 276.406 289.801 278.827 288.016 280.612C286.231 282.398 283.81 283.4 281.286 283.4V283.4Z" fill="#CCCCCC"/>
<path d="M288.286 327.4H164.1C161.575 327.4 159.154 326.397 157.369 324.612C155.584 322.827 154.581 320.406 154.581 317.882C154.581 315.357 155.584 312.936 157.369 311.151C159.154 309.366 161.575 308.363 164.1 308.363H288.286C290.81 308.363 293.231 309.366 295.016 311.151C296.801 312.936 297.804 315.357 297.804 317.882C297.804 320.406 296.801 322.827 295.016 324.612C293.231 326.397 290.81 327.4 288.286 327.4Z" fill="#CCCCCC"/>
<path d="M288.338 126.491H199.1C197.849 126.492 196.61 126.247 195.454 125.769C194.298 125.291 193.247 124.59 192.362 123.706C191.478 122.822 190.776 121.772 190.297 120.617C189.818 119.461 189.571 118.223 189.571 116.972C189.571 115.721 189.818 114.483 190.297 113.327C190.776 112.171 191.478 111.122 192.362 110.238C193.247 109.354 194.298 108.653 195.454 108.175C196.61 107.697 197.849 107.452 199.1 107.453H288.338C290.863 107.453 293.284 108.456 295.069 110.241C296.854 112.026 297.857 114.447 297.857 116.972C297.857 119.496 296.854 121.918 295.069 123.703C293.284 125.488 290.863 126.491 288.338 126.491Z" fill="#6C63FF"/>
<path d="M337.526 330.882C344.706 330.882 350.526 325.061 350.526 317.882C350.526 310.702 344.706 304.882 337.526 304.882C330.346 304.882 324.526 310.702 324.526 317.882C324.526 325.061 330.346 330.882 337.526 330.882Z" fill="#CCCCCC"/>
<path d="M294.286 370.4H170.1C167.575 370.4 165.154 369.397 163.369 367.612C161.584 365.827 160.581 363.406 160.581 360.882C160.581 358.357 161.584 355.936 163.369 354.151C165.154 352.366 167.575 351.363 170.1 351.363H294.286C296.81 351.363 299.231 352.366 301.016 354.151C302.801 355.936 303.804 358.357 303.804 360.882C303.804 363.406 302.801 365.827 301.016 367.612C299.231 369.397 296.81 370.4 294.286 370.4Z" fill="#CCCCCC"/>
<path d="M343.526 373.882C350.706 373.882 356.526 368.061 356.526 360.882C356.526 353.702 350.706 347.882 343.526 347.882C336.346 347.882 330.526 353.702 330.526 360.882C330.526 368.061 336.346 373.882 343.526 373.882Z" fill="#CCCCCC"/>
</svg>
