<svg width="427" height="310" viewBox="0 0 427 310" fill="none" xmlns="http://www.w3.org/2000/svg">
<g clip-path="url(#clip0_25_194)">
<path d="M248.279 54.6494C256.267 54.6494 262.743 48.1736 262.743 40.1852C262.743 32.1969 256.267 25.721 248.279 25.721C240.29 25.721 233.814 32.1969 233.814 40.1852C233.814 48.1736 240.29 54.6494 248.279 54.6494Z" fill="#F2F2F2"/>
<path d="M360.482 269.314C381.981 252.939 392.25 225.421 385.821 199.172C385.662 198.519 385.493 197.869 385.316 197.219C381.054 181.638 370.51 166.829 355.142 161.85C342.239 157.67 328.154 160.885 314.693 159.222C288.267 155.959 267.78 134.577 253.365 112.191C238.949 89.8044 227.871 64.7458 208.716 46.2513C177.142 15.7662 125.638 9.20269 86.4907 29.0462C47.3439 48.8898 22.4078 92.9145 23.4713 136.791C24.5348 180.667 50.582 222.615 88.4092 244.872C102.305 253.048 118.378 258.84 134.373 256.813C148.251 255.054 160.862 247.597 174.675 245.383C196.393 241.902 217.973 251.722 236.757 263.164C255.542 274.607 273.686 288.17 295.032 293.474C315.759 298.625 341.437 283.82 360.482 269.314Z" fill="#F2F2F2"/>
<path d="M329.593 29.9675C329.122 29.6533 328.645 29.3553 328.174 29.052C314.55 20.339 299.948 13.2606 284.669 7.96313L281.126 56.8364H258.666V0.828788C257.252 0.536263 255.828 0.259991 254.403 -3.05176e-05V56.8364H227.713C213.019 56.8364 198.928 50.9995 188.538 40.6099C178.148 30.2202 172.311 16.1288 172.311 1.43557V1.43552C170.881 1.74429 169.462 2.07474 168.043 2.42685V56.8364H146.304L142.929 10.2329C127.227 16.2547 112.32 24.1737 98.5406 33.8136C98.3023 33.9761 98.0639 34.1441 97.831 34.3066C96.6338 35.1462 95.4529 36.0022 94.2773 36.8689V223.321H158.346L157.214 207.638L150.984 121.533H276.44L270.21 207.638L269.078 223.321H332.437V31.8526C331.494 31.2134 330.546 30.585 329.593 29.9675ZM168.043 107.313H149.955L146.612 61.1051H168.043V107.313ZM254.403 107.313H224.024V106.398C224.024 105.957 223.937 105.522 223.768 105.115C223.6 104.709 223.353 104.339 223.041 104.028C222.73 103.717 222.36 103.471 221.953 103.303C221.546 103.135 221.11 103.049 220.67 103.05H207.463C207.024 103.05 206.588 103.136 206.182 103.304C205.776 103.472 205.407 103.719 205.096 104.03C204.785 104.341 204.538 104.71 204.37 105.116C204.202 105.522 204.115 105.958 204.116 106.398V107.313H172.311V61.1051H254.403V107.313ZM258.666 107.313V61.1051H280.817L277.475 107.313H258.666Z" fill="#3F3D56"/>
<path d="M-1.90735e-05 235.261C4.70598 240.837 9.79605 246.078 15.233 250.944L410.998 251.486C416.434 246.62 421.525 241.379 426.231 235.803L-1.90735e-05 235.261Z" fill="#3F3D56"/>
<path d="M268.381 185.045V231.472C268.381 232.063 268.617 232.631 269.035 233.049C269.453 233.467 270.021 233.703 270.612 233.703H339.412C340.004 233.703 340.571 233.467 340.99 233.049C341.408 232.631 341.643 232.063 341.644 231.472V185.045C341.642 184.454 341.407 183.887 340.989 183.469C340.57 183.052 340.004 182.817 339.412 182.816H270.612C270.021 182.817 269.454 183.052 269.036 183.469C268.618 183.887 268.382 184.454 268.381 185.045V185.045Z" fill="#3F3D56"/>
<path d="M269.995 185.623V230.899C269.995 231.215 270.121 231.518 270.345 231.742C270.568 231.965 270.871 232.091 271.187 232.092H338.84C339.156 232.091 339.459 231.965 339.682 231.742C339.906 231.518 340.032 231.215 340.032 230.899V185.623C340.032 185.306 339.907 185.002 339.683 184.778C339.459 184.554 339.156 184.428 338.84 184.427H271.187C270.871 184.428 270.568 184.554 270.344 184.778C270.12 185.002 269.995 185.306 269.995 185.623V185.623Z" fill="#6C63FF"/>
<path d="M266.942 240.526C267.068 240.684 267.228 240.812 267.41 240.899C267.593 240.986 267.792 241.031 267.995 241.03H341.664C341.865 241.03 342.064 240.984 342.246 240.898C342.428 240.811 342.588 240.685 342.715 240.528C342.842 240.372 342.932 240.189 342.979 239.993C343.027 239.797 343.03 239.593 342.989 239.396L341.845 233.964C341.798 233.743 341.696 233.537 341.548 233.365C341.401 233.193 341.213 233.06 341.001 232.98C340.848 232.92 340.685 232.889 340.52 232.889H269.134C268.969 232.889 268.806 232.92 268.653 232.98C268.441 233.06 268.253 233.193 268.105 233.365C267.958 233.537 267.856 233.743 267.809 233.964L266.665 239.396C266.624 239.593 266.628 239.797 266.676 239.992C266.724 240.188 266.815 240.37 266.942 240.526V240.526Z" fill="#2F2E41"/>
<path d="M337.992 235.229H339.732C339.878 235.229 339.997 235.11 339.997 234.964V234.132C339.997 233.986 339.878 233.867 339.732 233.867H337.992C337.846 233.867 337.728 233.986 337.728 234.132V234.964C337.728 235.11 337.846 235.229 337.992 235.229Z" fill="#3F3D56"/>
<path d="M333.454 235.229H335.194C335.34 235.229 335.459 235.11 335.459 234.964V234.132C335.459 233.986 335.34 233.867 335.194 233.867H333.454C333.308 233.867 333.19 233.986 333.19 234.132V234.964C333.19 235.11 333.308 235.229 333.454 235.229Z" fill="#3F3D56"/>
<path d="M328.916 235.229H330.656C330.802 235.229 330.921 235.11 330.921 234.964V234.132C330.921 233.986 330.802 233.867 330.656 233.867H328.916C328.77 233.867 328.652 233.986 328.652 234.132V234.964C328.652 235.11 328.77 235.229 328.916 235.229Z" fill="#3F3D56"/>
<path d="M324.378 235.229H326.118C326.264 235.229 326.383 235.11 326.383 234.964V234.132C326.383 233.986 326.264 233.867 326.118 233.867H324.378C324.232 233.867 324.114 233.986 324.114 234.132V234.964C324.114 235.11 324.232 235.229 324.378 235.229Z" fill="#3F3D56"/>
<path d="M319.84 235.229H321.58C321.726 235.229 321.845 235.11 321.845 234.964V234.132C321.845 233.986 321.726 233.867 321.58 233.867H319.84C319.694 233.867 319.576 233.986 319.576 234.132V234.964C319.576 235.11 319.694 235.229 319.84 235.229Z" fill="#3F3D56"/>
<path d="M315.302 235.229H317.043C317.189 235.229 317.307 235.11 317.307 234.964V234.132C317.307 233.986 317.189 233.867 317.043 233.867H315.302C315.156 233.867 315.038 233.986 315.038 234.132V234.964C315.038 235.11 315.156 235.229 315.302 235.229Z" fill="#3F3D56"/>
<path d="M310.764 235.229H312.505C312.651 235.229 312.769 235.11 312.769 234.964V234.132C312.769 233.986 312.651 233.867 312.505 233.867H310.764C310.618 233.867 310.5 233.986 310.5 234.132V234.964C310.5 235.11 310.618 235.229 310.764 235.229Z" fill="#3F3D56"/>
<path d="M306.226 235.229H307.967C308.113 235.229 308.231 235.11 308.231 234.964V234.132C308.231 233.986 308.113 233.867 307.967 233.867H306.226C306.08 233.867 305.962 233.986 305.962 234.132V234.964C305.962 235.11 306.08 235.229 306.226 235.229Z" fill="#3F3D56"/>
<path d="M301.689 235.229H303.429C303.575 235.229 303.693 235.11 303.693 234.964V234.132C303.693 233.986 303.575 233.867 303.429 233.867H301.689C301.543 233.867 301.424 233.986 301.424 234.132V234.964C301.424 235.11 301.543 235.229 301.689 235.229Z" fill="#3F3D56"/>
<path d="M297.151 235.229H298.891C299.037 235.229 299.155 235.11 299.155 234.964V234.132C299.155 233.986 299.037 233.867 298.891 233.867H297.151C297.005 233.867 296.886 233.986 296.886 234.132V234.964C296.886 235.11 297.005 235.229 297.151 235.229Z" fill="#3F3D56"/>
<path d="M292.613 235.229H294.353C294.499 235.229 294.617 235.11 294.617 234.964V234.132C294.617 233.986 294.499 233.867 294.353 233.867H292.613C292.467 233.867 292.348 233.986 292.348 234.132V234.964C292.348 235.11 292.467 235.229 292.613 235.229Z" fill="#3F3D56"/>
<path d="M288.075 235.229H289.815C289.961 235.229 290.079 235.11 290.079 234.964V234.132C290.079 233.986 289.961 233.867 289.815 233.867H288.075C287.929 233.867 287.81 233.986 287.81 234.132V234.964C287.81 235.11 287.929 235.229 288.075 235.229Z" fill="#3F3D56"/>
<path d="M283.537 235.229H285.277C285.423 235.229 285.542 235.11 285.542 234.964V234.132C285.542 233.986 285.423 233.867 285.277 233.867H283.537C283.391 233.867 283.272 233.986 283.272 234.132V234.964C283.272 235.11 283.391 235.229 283.537 235.229Z" fill="#3F3D56"/>
<path d="M278.999 235.229H280.739C280.885 235.229 281.004 235.11 281.004 234.964V234.132C281.004 233.986 280.885 233.867 280.739 233.867H278.999C278.853 233.867 278.735 233.986 278.735 234.132V234.964C278.735 235.11 278.853 235.229 278.999 235.229Z" fill="#3F3D56"/>
<path d="M274.461 235.229H276.201C276.347 235.229 276.466 235.11 276.466 234.964V234.132C276.466 233.986 276.347 233.867 276.201 233.867H274.461C274.315 233.867 274.197 233.986 274.197 234.132V234.964C274.197 235.11 274.315 235.229 274.461 235.229Z" fill="#3F3D56"/>
<path d="M269.923 235.229H271.663C271.809 235.229 271.928 235.11 271.928 234.964V234.132C271.928 233.986 271.809 233.867 271.663 233.867H269.923C269.777 233.867 269.659 233.986 269.659 234.132V234.964C269.659 235.11 269.777 235.229 269.923 235.229Z" fill="#3F3D56"/>
<path d="M338.046 237.497H339.786C339.932 237.497 340.05 237.379 340.05 237.233V236.401C340.05 236.255 339.932 236.136 339.786 236.136H338.046C337.9 236.136 337.781 236.255 337.781 236.401V237.233C337.781 237.379 337.9 237.497 338.046 237.497Z" fill="#3F3D56"/>
<path d="M333.508 237.497H335.248C335.394 237.497 335.512 237.379 335.512 237.233V236.401C335.512 236.255 335.394 236.136 335.248 236.136H333.508C333.362 236.136 333.243 236.255 333.243 236.401V237.233C333.243 237.379 333.362 237.497 333.508 237.497Z" fill="#3F3D56"/>
<path d="M328.97 237.497H330.71C330.856 237.497 330.974 237.379 330.974 237.233V236.401C330.974 236.255 330.856 236.136 330.71 236.136H328.97C328.824 236.136 328.705 236.255 328.705 236.401V237.233C328.705 237.379 328.824 237.497 328.97 237.497Z" fill="#3F3D56"/>
<path d="M324.432 237.497H326.172C326.318 237.497 326.436 237.379 326.436 237.233V236.401C326.436 236.255 326.318 236.136 326.172 236.136H324.432C324.286 236.136 324.167 236.255 324.167 236.401V237.233C324.167 237.379 324.286 237.497 324.432 237.497Z" fill="#3F3D56"/>
<path d="M319.894 237.497H321.634C321.78 237.497 321.899 237.379 321.899 237.233V236.401C321.899 236.255 321.78 236.136 321.634 236.136H319.894C319.748 236.136 319.629 236.255 319.629 236.401V237.233C319.629 237.379 319.748 237.497 319.894 237.497Z" fill="#3F3D56"/>
<path d="M315.356 237.497H317.096C317.242 237.497 317.361 237.379 317.361 237.233V236.401C317.361 236.255 317.242 236.136 317.096 236.136H315.356C315.21 236.136 315.092 236.255 315.092 236.401V237.233C315.092 237.379 315.21 237.497 315.356 237.497Z" fill="#3F3D56"/>
<path d="M310.818 237.497H312.558C312.704 237.497 312.823 237.379 312.823 237.233V236.401C312.823 236.255 312.704 236.136 312.558 236.136H310.818C310.672 236.136 310.554 236.255 310.554 236.401V237.233C310.554 237.379 310.672 237.497 310.818 237.497Z" fill="#3F3D56"/>
<path d="M306.28 237.497H308.02C308.166 237.497 308.285 237.379 308.285 237.233V236.401C308.285 236.255 308.166 236.136 308.02 236.136H306.28C306.134 236.136 306.016 236.255 306.016 236.401V237.233C306.016 237.379 306.134 237.497 306.28 237.497Z" fill="#3F3D56"/>
<path d="M301.742 237.497H303.482C303.628 237.497 303.747 237.379 303.747 237.233V236.401C303.747 236.255 303.628 236.136 303.482 236.136H301.742C301.596 236.136 301.478 236.255 301.478 236.401V237.233C301.478 237.379 301.596 237.497 301.742 237.497Z" fill="#3F3D56"/>
<path d="M297.204 237.497H298.944C299.09 237.497 299.209 237.379 299.209 237.233V236.401C299.209 236.255 299.09 236.136 298.944 236.136H297.204C297.058 236.136 296.94 236.255 296.94 236.401V237.233C296.94 237.379 297.058 237.497 297.204 237.497Z" fill="#3F3D56"/>
<path d="M292.667 237.497H294.407C294.553 237.497 294.671 237.379 294.671 237.233V236.401C294.671 236.255 294.553 236.136 294.407 236.136H292.667C292.521 236.136 292.402 236.255 292.402 236.401V237.233C292.402 237.379 292.521 237.497 292.667 237.497Z" fill="#3F3D56"/>
<path d="M288.129 237.497H289.869C290.015 237.497 290.133 237.379 290.133 237.233V236.401C290.133 236.255 290.015 236.136 289.869 236.136H288.129C287.982 236.136 287.864 236.255 287.864 236.401V237.233C287.864 237.379 287.982 237.497 288.129 237.497Z" fill="#3F3D56"/>
<path d="M283.591 237.497H285.331C285.477 237.497 285.595 237.379 285.595 237.233V236.401C285.595 236.255 285.477 236.136 285.331 236.136H283.591C283.445 236.136 283.326 236.255 283.326 236.401V237.233C283.326 237.379 283.445 237.497 283.591 237.497Z" fill="#3F3D56"/>
<path d="M279.053 237.497H280.793C280.939 237.497 281.057 237.379 281.057 237.233V236.401C281.057 236.255 280.939 236.136 280.793 236.136H279.053C278.907 236.136 278.788 236.255 278.788 236.401V237.233C278.788 237.379 278.907 237.497 279.053 237.497Z" fill="#3F3D56"/>
<path d="M274.515 237.497H276.255C276.401 237.497 276.519 237.379 276.519 237.233V236.401C276.519 236.255 276.401 236.136 276.255 236.136H274.515C274.369 236.136 274.25 236.255 274.25 236.401V237.233C274.25 237.379 274.369 237.497 274.515 237.497Z" fill="#3F3D56"/>
<path d="M269.977 237.497H271.717C271.863 237.497 271.981 237.379 271.981 237.233V236.401C271.981 236.255 271.863 236.136 271.717 236.136H269.977C269.831 236.136 269.712 236.255 269.712 236.401V237.233C269.712 237.379 269.831 237.497 269.977 237.497Z" fill="#3F3D56"/>
<path d="M300.381 240.22H318.004C318.15 240.22 318.268 240.102 318.268 239.956V239.123C318.268 238.977 318.15 238.859 318.004 238.859H300.381C300.235 238.859 300.116 238.977 300.116 239.123V239.956C300.116 240.102 300.235 240.22 300.381 240.22Z" fill="#3F3D56"/>
<path d="M281.71 194.333H280.17C279.703 194.333 279.324 194.712 279.324 195.179C279.324 195.646 279.703 196.024 280.17 196.024H281.71C282.177 196.024 282.556 195.646 282.556 195.179C282.556 194.712 282.177 194.333 281.71 194.333Z" fill="white"/>
<path d="M299.328 194.333H297.788C297.321 194.333 296.942 194.712 296.942 195.179C296.942 195.646 297.321 196.024 297.788 196.024H299.328C299.795 196.024 300.174 195.646 300.174 195.179C300.174 194.712 299.795 194.333 299.328 194.333Z" fill="white"/>
<path d="M304.32 194.333H302.78C302.313 194.333 301.934 194.712 301.934 195.179C301.934 195.646 302.313 196.024 302.78 196.024H304.32C304.787 196.024 305.166 195.646 305.166 195.179C305.166 194.712 304.787 194.333 304.32 194.333Z" fill="white"/>
<path d="M294.536 194.192H284.962C284.495 194.192 284.116 194.571 284.116 195.038C284.116 195.505 284.495 195.883 284.962 195.883H294.536C295.003 195.883 295.382 195.505 295.382 195.038C295.382 194.571 295.003 194.192 294.536 194.192Z" fill="white"/>
<path d="M318.027 194.192H308.453C307.986 194.192 307.607 194.571 307.607 195.038C307.607 195.505 307.986 195.883 308.453 195.883H318.027C318.494 195.883 318.873 195.505 318.873 195.038C318.873 194.571 318.494 194.192 318.027 194.192Z" fill="white"/>
<path d="M286.408 198.15H284.868C284.401 198.15 284.022 198.529 284.022 198.996C284.022 199.463 284.401 199.842 284.868 199.842H286.408C286.875 199.842 287.254 199.463 287.254 198.996C287.254 198.529 286.875 198.15 286.408 198.15Z" fill="white"/>
<path d="M304.026 198.15H302.486C302.019 198.15 301.64 198.529 301.64 198.996C301.64 199.463 302.019 199.842 302.486 199.842H304.026C304.494 199.842 304.872 199.463 304.872 198.996C304.872 198.529 304.494 198.15 304.026 198.15Z" fill="white"/>
<path d="M309.018 198.15H307.478C307.011 198.15 306.632 198.529 306.632 198.996C306.632 199.463 307.011 199.842 307.478 199.842H309.018C309.485 199.842 309.864 199.463 309.864 198.996C309.864 198.529 309.485 198.15 309.018 198.15Z" fill="white"/>
<path d="M299.234 198.009H289.66C289.193 198.009 288.814 198.388 288.814 198.855C288.814 199.322 289.193 199.7 289.66 199.7H299.234C299.701 199.7 300.08 199.322 300.08 198.855C300.08 198.388 299.701 198.009 299.234 198.009Z" fill="white"/>
<path d="M322.725 198.009H313.151C312.684 198.009 312.305 198.388 312.305 198.855C312.305 199.322 312.684 199.7 313.151 199.7H322.725C323.192 199.7 323.571 199.322 323.571 198.855C323.571 198.388 323.192 198.009 322.725 198.009Z" fill="white"/>
<path d="M291.106 201.967H289.566C289.099 201.967 288.72 202.346 288.72 202.813C288.72 203.28 289.099 203.659 289.566 203.659H291.106C291.573 203.659 291.952 203.28 291.952 202.813C291.952 202.346 291.573 201.967 291.106 201.967Z" fill="white"/>
<path d="M308.725 201.967H307.184C306.717 201.967 306.338 202.346 306.338 202.813C306.338 203.28 306.717 203.659 307.184 203.659H308.725C309.192 203.659 309.57 203.28 309.57 202.813C309.57 202.346 309.192 201.967 308.725 201.967Z" fill="white"/>
<path d="M313.716 201.967H312.176C311.709 201.967 311.33 202.346 311.33 202.813C311.33 203.28 311.709 203.659 312.176 203.659H313.716C314.184 203.659 314.562 203.28 314.562 202.813C314.562 202.346 314.184 201.967 313.716 201.967Z" fill="white"/>
<path d="M303.932 201.826H294.358C293.891 201.826 293.513 202.205 293.513 202.672C293.513 203.139 293.891 203.518 294.358 203.518H303.932C304.399 203.518 304.778 203.139 304.778 202.672C304.778 202.205 304.399 201.826 303.932 201.826Z" fill="white"/>
<path d="M327.423 201.826H317.849C317.382 201.826 317.003 202.205 317.003 202.672C317.003 203.139 317.382 203.518 317.849 203.518H327.423C327.89 203.518 328.269 203.139 328.269 202.672C328.269 202.205 327.89 201.826 327.423 201.826Z" fill="white"/>
<path d="M295.805 205.785H294.264C293.797 205.785 293.418 206.163 293.418 206.63C293.418 207.097 293.797 207.476 294.264 207.476H295.805C296.272 207.476 296.65 207.097 296.65 206.63C296.65 206.163 296.272 205.785 295.805 205.785Z" fill="white"/>
<path d="M313.423 205.785H311.882C311.415 205.785 311.037 206.163 311.037 206.63C311.037 207.097 311.415 207.476 311.882 207.476H313.423C313.89 207.476 314.268 207.097 314.268 206.63C314.268 206.163 313.89 205.785 313.423 205.785Z" fill="white"/>
<path d="M318.415 205.785H316.874C316.407 205.785 316.028 206.163 316.028 206.63C316.028 207.097 316.407 207.476 316.874 207.476H318.415C318.882 207.476 319.26 207.097 319.26 206.63C319.26 206.163 318.882 205.785 318.415 205.785Z" fill="white"/>
<path d="M308.631 205.644H299.056C298.589 205.644 298.211 206.022 298.211 206.489C298.211 206.956 298.589 207.335 299.056 207.335H308.631C309.098 207.335 309.476 206.956 309.476 206.489C309.476 206.022 309.098 205.644 308.631 205.644Z" fill="white"/>
<path d="M299.328 220.964H297.788C297.321 220.964 296.942 221.342 296.942 221.809C296.942 222.277 297.321 222.655 297.788 222.655H299.328C299.795 222.655 300.174 222.277 300.174 221.809C300.174 221.342 299.795 220.964 299.328 220.964Z" fill="white"/>
<path d="M304.32 220.964H302.78C302.313 220.964 301.934 221.342 301.934 221.809C301.934 222.277 302.313 222.655 302.78 222.655H304.32C304.787 222.655 305.166 222.277 305.166 221.809C305.166 221.342 304.787 220.964 304.32 220.964Z" fill="white"/>
<path d="M318.027 221.105H308.453C307.986 221.105 307.607 221.483 307.607 221.95C307.607 222.417 307.986 222.796 308.453 222.796H318.027C318.494 222.796 318.873 222.417 318.873 221.95C318.873 221.483 318.494 221.105 318.027 221.105Z" fill="white"/>
<path d="M281.71 220.964H280.17C279.703 220.964 279.324 221.342 279.324 221.809C279.324 222.277 279.703 222.655 280.17 222.655H281.71C282.177 222.655 282.556 222.277 282.556 221.809C282.556 221.342 282.177 220.964 281.71 220.964Z" fill="white"/>
<path d="M294.536 221.105H284.962C284.495 221.105 284.116 221.483 284.116 221.95C284.116 222.417 284.495 222.796 284.962 222.796H294.536C295.003 222.796 295.382 222.417 295.382 221.95C295.382 221.483 295.003 221.105 294.536 221.105Z" fill="white"/>
<path d="M286.408 217.146H284.868C284.401 217.146 284.022 217.525 284.022 217.992C284.022 218.459 284.401 218.838 284.868 218.838H286.408C286.875 218.838 287.254 218.459 287.254 217.992C287.254 217.525 286.875 217.146 286.408 217.146Z" fill="white"/>
<path d="M304.026 217.146H302.486C302.019 217.146 301.64 217.525 301.64 217.992C301.64 218.459 302.019 218.838 302.486 218.838H304.026C304.494 218.838 304.872 218.459 304.872 217.992C304.872 217.525 304.494 217.146 304.026 217.146Z" fill="white"/>
<path d="M309.018 217.146H307.478C307.011 217.146 306.632 217.525 306.632 217.992C306.632 218.459 307.011 218.838 307.478 218.838H309.018C309.485 218.838 309.864 218.459 309.864 217.992C309.864 217.525 309.485 217.146 309.018 217.146Z" fill="white"/>
<path d="M299.234 217.287H289.66C289.193 217.287 288.814 217.666 288.814 218.133C288.814 218.6 289.193 218.979 289.66 218.979H299.234C299.701 218.979 300.08 218.6 300.08 218.133C300.08 217.666 299.701 217.287 299.234 217.287Z" fill="white"/>
<path d="M291.106 213.329H289.566C289.099 213.329 288.72 213.708 288.72 214.175C288.72 214.642 289.099 215.021 289.566 215.021H291.106C291.573 215.021 291.952 214.642 291.952 214.175C291.952 213.708 291.573 213.329 291.106 213.329Z" fill="white"/>
<path d="M308.725 213.329H307.184C306.717 213.329 306.338 213.708 306.338 214.175C306.338 214.642 306.717 215.021 307.184 215.021H308.725C309.192 215.021 309.57 214.642 309.57 214.175C309.57 213.708 309.192 213.329 308.725 213.329Z" fill="white"/>
<path d="M313.716 213.329H312.176C311.709 213.329 311.33 213.708 311.33 214.175C311.33 214.642 311.709 215.021 312.176 215.021H313.716C314.184 215.021 314.562 214.642 314.562 214.175C314.562 213.708 314.184 213.329 313.716 213.329Z" fill="white"/>
<path d="M303.932 213.47H294.358C293.891 213.47 293.513 213.849 293.513 214.316C293.513 214.783 293.891 215.162 294.358 215.162H303.932C304.399 215.162 304.778 214.783 304.778 214.316C304.778 213.849 304.399 213.47 303.932 213.47Z" fill="white"/>
<path d="M295.805 209.512H294.264C293.797 209.512 293.418 209.891 293.418 210.358C293.418 210.824 293.797 211.203 294.264 211.203H295.805C296.272 211.203 296.65 210.824 296.65 210.358C296.65 209.891 296.272 209.512 295.805 209.512Z" fill="white"/>
<path d="M313.423 209.512H311.882C311.415 209.512 311.037 209.891 311.037 210.358C311.037 210.824 311.415 211.203 311.882 211.203H313.423C313.89 211.203 314.268 210.824 314.268 210.358C314.268 209.891 313.89 209.512 313.423 209.512Z" fill="white"/>
<path d="M318.415 209.512H316.874C316.407 209.512 316.028 209.891 316.028 210.358C316.028 210.824 316.407 211.203 316.874 211.203H318.415C318.882 211.203 319.26 210.824 319.26 210.358C319.26 209.891 318.882 209.512 318.415 209.512Z" fill="white"/>
<path d="M308.631 209.653H299.056C298.589 209.653 298.211 210.031 298.211 210.498C298.211 210.965 298.589 211.344 299.056 211.344H308.631C309.098 211.344 309.476 210.965 309.476 210.498C309.476 210.031 309.098 209.653 308.631 209.653Z" fill="white"/>
<path d="M273.52 265.7L266.289 254.269L288.987 236.175L298.356 225.795C299.574 224.446 301.124 223.441 302.851 222.879C304.579 222.317 306.423 222.218 308.201 222.593C309.979 222.967 311.627 223.802 312.981 225.013C314.335 226.224 315.348 227.769 315.918 229.494C316.762 232.05 316.581 234.834 315.411 237.259C314.242 239.684 312.176 241.559 309.65 242.49L294.835 247.948L273.52 265.7Z" fill="#FFB6B6"/>
<path d="M103.841 182.818V238.377H142.763V182.818C142.764 182.418 142.636 182.029 142.399 181.707C142.162 181.386 141.828 181.148 141.447 181.03C141.267 180.971 141.078 180.942 140.889 180.944H105.721C105.474 180.943 105.23 180.991 105.002 181.085C104.774 181.179 104.567 181.317 104.392 181.491C104.218 181.665 104.079 181.872 103.985 182.1C103.89 182.327 103.841 182.572 103.841 182.818V182.818ZM119.031 201.908C119.041 200.813 119.483 199.766 120.261 198.995C121.039 198.224 122.09 197.792 123.186 197.792C124.281 197.792 125.332 198.224 126.11 198.995C126.888 199.766 127.33 200.813 127.341 201.908V208.355C127.335 209.453 126.895 210.504 126.116 211.279C125.337 212.054 124.284 212.488 123.186 212.488C122.087 212.488 121.034 212.054 120.255 211.279C119.476 210.504 119.036 209.453 119.031 208.355V201.908Z" fill="#2F2E41"/>
<path d="M103.722 236.599V241.957C103.723 242.234 103.833 242.5 104.029 242.697C104.224 242.894 104.49 243.006 104.767 243.008H141.837C142.115 243.007 142.38 242.895 142.576 242.698C142.772 242.501 142.882 242.235 142.882 241.957V236.599H103.722Z" fill="#3F3D56"/>
<path d="M42.6112 99.1124V200.554C42.6122 201.847 43.1262 203.086 44.0403 204C44.9544 204.914 46.1939 205.428 47.4866 205.429H197.812C199.105 205.428 200.344 204.914 201.258 204C202.172 203.086 202.686 201.847 202.687 200.554V99.1124C202.684 97.8208 202.169 96.5831 201.256 95.6703C200.342 94.7575 199.103 94.2441 197.812 94.2424H47.4866C46.195 94.2441 44.9567 94.7575 44.0429 95.6703C43.1291 96.5831 42.6142 97.8208 42.6112 99.1124Z" fill="#3F3D56"/>
<path d="M46.1377 100.375V199.302C46.1389 199.993 46.4138 200.655 46.9022 201.144C47.3906 201.632 48.0526 201.907 48.7433 201.908H196.561C197.252 201.907 197.914 201.632 198.402 201.144C198.89 200.655 199.165 199.993 199.167 199.302V100.375C199.166 99.6831 198.892 99.0198 198.404 98.5303C197.915 98.0408 197.252 97.7651 196.561 97.7636H48.7433C48.0518 97.7651 47.3891 98.0408 46.9006 98.5303C46.4121 99.0198 46.1378 99.6831 46.1377 100.375Z" fill="white"/>
<path d="M73.57 242.645C73.7205 242.834 73.9117 242.986 74.1294 243.09C74.3471 243.194 74.5855 243.248 74.8268 243.246H162.769C163.009 243.246 163.247 243.192 163.464 243.089C163.681 242.985 163.872 242.834 164.023 242.648C164.175 242.461 164.283 242.243 164.34 242.009C164.396 241.775 164.4 241.532 164.351 241.296L162.985 234.812C162.929 234.547 162.807 234.301 162.631 234.096C162.455 233.891 162.23 233.732 161.978 233.636C161.795 233.564 161.6 233.528 161.404 233.528H76.1865C75.99 233.528 75.7952 233.564 75.6123 233.636C75.3596 233.732 75.1351 233.89 74.9591 234.096C74.7831 234.301 74.6613 234.547 74.6047 234.812L73.2396 241.296C73.191 241.531 73.1955 241.775 73.2526 242.008C73.3098 242.241 73.4182 242.459 73.57 242.645Z" fill="#2F2E41"/>
<path d="M191.763 111.391H53.4515C53.3077 111.388 53.1709 111.329 53.0704 111.226C52.9698 111.123 52.9135 110.985 52.9135 110.841C52.9135 110.697 52.9698 110.559 53.0704 110.457C53.1709 110.354 53.3077 110.294 53.4515 110.291H191.763C191.907 110.294 192.044 110.354 192.144 110.457C192.245 110.559 192.301 110.697 192.301 110.841C192.301 110.985 192.245 111.123 192.144 111.226C192.044 111.329 191.907 111.388 191.763 111.391V111.391Z" fill="#3F3D56"/>
<path d="M62.8665 107.483C64.6467 107.483 66.0899 106.008 66.0899 104.188C66.0899 102.368 64.6467 100.892 62.8665 100.892C61.0862 100.892 59.6431 102.368 59.6431 104.188C59.6431 106.008 61.0862 107.483 62.8665 107.483Z" fill="#3F3D56"/>
<path d="M74.002 107.483C75.7822 107.483 77.2254 106.008 77.2254 104.188C77.2254 102.368 75.7822 100.892 74.002 100.892C72.2217 100.892 70.7786 102.368 70.7786 104.188C70.7786 106.008 72.2217 107.483 74.002 107.483Z" fill="#3F3D56"/>
<path d="M85.1374 107.483C86.9177 107.483 88.3609 106.008 88.3609 104.188C88.3609 102.368 86.9177 100.892 85.1374 100.892C83.3571 100.892 81.914 102.368 81.914 104.188C81.914 106.008 83.3571 107.483 85.1374 107.483Z" fill="#3F3D56"/>
<path d="M185.058 101.707H177.149C176.993 101.711 176.844 101.776 176.735 101.887C176.625 101.999 176.564 102.149 176.564 102.306C176.564 102.462 176.625 102.612 176.735 102.724C176.844 102.836 176.993 102.901 177.149 102.905H185.058C185.215 102.902 185.365 102.838 185.476 102.726C185.586 102.614 185.648 102.463 185.648 102.306C185.648 102.149 185.586 101.998 185.476 101.886C185.365 101.774 185.215 101.709 185.058 101.707Z" fill="#3F3D56"/>
<path d="M185.058 103.955H177.149C176.992 103.959 176.843 104.023 176.734 104.135C176.625 104.247 176.563 104.397 176.563 104.554C176.563 104.711 176.625 104.861 176.734 104.973C176.843 105.085 176.992 105.149 177.149 105.153H185.058C185.215 105.151 185.366 105.087 185.476 104.975C185.587 104.863 185.649 104.712 185.649 104.554C185.649 104.396 185.587 104.245 185.476 104.133C185.366 104.021 185.215 103.957 185.058 103.955V103.955Z" fill="#3F3D56"/>
<path d="M185.058 106.203H177.149C176.993 106.207 176.844 106.272 176.735 106.384C176.625 106.495 176.564 106.646 176.564 106.802C176.564 106.958 176.625 107.109 176.735 107.22C176.844 107.332 176.993 107.397 177.149 107.401H185.058C185.215 107.398 185.365 107.334 185.476 107.222C185.586 107.11 185.648 106.959 185.648 106.802C185.648 106.645 185.586 106.494 185.476 106.382C185.365 106.27 185.215 106.206 185.058 106.203V106.203Z" fill="#3F3D56"/>
<path d="M375.731 238.951C375.969 239.646 376.422 240.247 377.024 240.669C377.626 241.09 378.345 241.31 379.08 241.297L393.431 240.928C394.171 240.913 394.886 240.66 395.47 240.205C396.054 239.75 396.475 239.119 396.671 238.405L398.702 216.689C399.422 217.015 400.207 217.177 400.997 217.161C401.684 217.143 402.361 216.991 402.99 216.712C403.618 216.433 404.185 216.033 404.658 215.535C405.132 215.037 405.503 214.451 405.75 213.809C405.997 213.168 406.115 212.484 406.098 211.797C406.081 211.11 405.928 210.433 405.649 209.805C405.371 209.177 404.971 208.61 404.473 208.136C403.975 207.662 403.388 207.292 402.747 207.045C402.106 206.798 401.422 206.679 400.735 206.697C400.419 206.696 400.103 206.728 399.794 206.794C399.458 206.431 399.049 206.141 398.595 205.945C398.14 205.749 397.649 205.65 397.154 205.655L375.079 206.225C374.896 206.232 374.714 206.255 374.534 206.293C374.05 206.383 373.591 206.576 373.188 206.859C372.785 207.141 372.446 207.507 372.196 207.931C371.946 208.355 371.79 208.828 371.738 209.318C371.686 209.807 371.739 210.303 371.895 210.77L375.731 238.951ZM399.118 215.214L400.563 210.04C400.728 209.442 400.731 208.811 400.574 208.212C400.644 208.211 400.706 208.178 400.776 208.178C401.767 208.157 402.726 208.531 403.442 209.216C404.158 209.901 404.573 210.842 404.596 211.833C404.619 212.824 404.249 213.783 403.566 214.501C402.882 215.219 401.942 215.637 400.952 215.663C400.311 215.683 399.677 215.528 399.118 215.214Z" fill="#2F2E41"/>
<path d="M374.533 206.293C375.004 208.982 380.291 210.872 386.649 210.544C392.496 210.274 397.276 208.221 398.152 205.788C397.828 205.692 397.491 205.647 397.153 205.655L375.078 206.225C374.895 206.232 374.713 206.254 374.533 206.293V206.293Z" fill="#3F3D56"/>
<path d="M387.815 227.018C387.844 227.01 387.872 226.998 387.897 226.982L391.013 224.942C391.05 224.917 391.081 224.884 391.103 224.844C391.124 224.805 391.135 224.76 391.135 224.715C391.135 224.67 391.124 224.626 391.103 224.587C391.081 224.547 391.05 224.513 391.013 224.489L387.775 222.367C387.745 222.347 387.712 222.334 387.677 222.327C387.642 222.32 387.606 222.321 387.571 222.328C387.536 222.335 387.503 222.349 387.473 222.369C387.444 222.389 387.418 222.415 387.399 222.444C387.379 222.474 387.366 222.508 387.359 222.543C387.353 222.578 387.353 222.614 387.36 222.649C387.368 222.683 387.382 222.717 387.402 222.746C387.422 222.775 387.448 222.8 387.478 222.82L390.37 224.715L387.601 226.528C387.547 226.563 387.508 226.616 387.489 226.678C387.471 226.739 387.475 226.805 387.501 226.864C387.527 226.923 387.572 226.97 387.63 226.998C387.688 227.027 387.753 227.033 387.815 227.018H387.815Z" fill="#6C63FF"/>
<path d="M382.892 227.245C382.944 227.232 382.991 227.203 383.027 227.163C383.063 227.123 383.086 227.072 383.094 227.019C383.101 226.966 383.092 226.911 383.068 226.863C383.045 226.814 383.007 226.774 382.96 226.747L380.087 225.1L382.864 223.038C382.893 223.017 382.917 222.99 382.935 222.96C382.953 222.929 382.965 222.895 382.97 222.86C382.976 222.825 382.974 222.789 382.965 222.755C382.956 222.72 382.941 222.688 382.92 222.659C382.899 222.631 382.872 222.607 382.842 222.588C382.811 222.57 382.777 222.558 382.742 222.553C382.707 222.548 382.671 222.549 382.637 222.558C382.602 222.567 382.57 222.582 382.541 222.603L379.432 224.913C379.396 224.939 379.367 224.975 379.348 225.015C379.329 225.056 379.321 225.101 379.323 225.146C379.326 225.191 379.34 225.234 379.364 225.272C379.387 225.311 379.42 225.342 379.459 225.365L382.691 227.217C382.752 227.252 382.824 227.262 382.892 227.245V227.245Z" fill="#6C63FF"/>
<path d="M387.505 228.805C387.531 228.799 387.556 228.788 387.579 228.774C387.61 228.756 387.636 228.731 387.657 228.703C387.678 228.674 387.693 228.641 387.702 228.607C387.71 228.572 387.712 228.536 387.706 228.501C387.701 228.466 387.688 228.432 387.67 228.402L383.252 221.138C383.214 221.077 383.154 221.033 383.084 221.016C383.015 220.999 382.941 221.011 382.88 221.048C382.818 221.085 382.774 221.145 382.757 221.215C382.74 221.285 382.752 221.359 382.789 221.42L387.207 228.684C387.237 228.733 387.282 228.772 387.336 228.794C387.39 228.815 387.449 228.82 387.505 228.805Z" fill="#6C63FF"/>
<path d="M139.133 141.293H115.195C114.218 141.293 113.426 142.085 113.426 143.062V145.401C113.426 146.377 114.218 147.169 115.195 147.169H139.133C140.11 147.169 140.902 146.377 140.902 145.401V143.062C140.902 142.085 140.11 141.293 139.133 141.293Z" fill="#6C63FF"/>
<path d="M153.087 153.044H101.241C100.264 153.044 99.4727 153.836 99.4727 154.813V157.151C99.4727 158.128 100.264 158.92 101.241 158.92H153.087C154.064 158.92 154.855 158.128 154.855 157.151V154.813C154.855 153.836 154.064 153.044 153.087 153.044Z" fill="#E6E6E6"/>
<path d="M153.087 164.795H101.241C100.264 164.795 99.4727 165.586 99.4727 166.563V168.902C99.4727 169.878 100.264 170.67 101.241 170.67H153.087C154.064 170.67 154.855 169.878 154.855 168.902V166.563C154.855 165.586 154.064 164.795 153.087 164.795Z" fill="#E6E6E6"/>
<path d="M157.482 204.143L157.599 204.513L157.606 204.526L161.14 215.272L165.207 227.656L172.857 250.929L172.931 254.544V254.557L173.5 283.638L171.924 287.581L173.698 294.045C173.698 294.045 172.882 284.274 168.507 289.885C166.029 293.074 163.13 296.337 160.751 299.396C164.218 300.798 167.74 302.067 171.318 303.202C172.091 303.45 172.869 303.684 173.648 303.919C173.815 303.969 173.982 304.018 174.149 304.067C186.009 307.575 198.271 309.546 210.633 309.932C211.276 309.951 211.907 309.963 212.518 309.975C212.735 309.981 212.945 309.988 213.155 309.988C213.847 309.994 214.533 310 215.225 310C216.622 310 218.012 309.979 219.396 309.938C229.642 309.649 239.828 308.272 249.782 305.829C249.714 301.719 249.528 296.918 249.263 291.788C249.139 289.273 246.364 286.548 246.198 283.916C246.08 281.938 248.571 280.078 248.441 278.07C247.6 265.704 246.55 270.451 245.771 261.694C245.691 260.835 245.617 260.013 245.549 259.228C245.048 253.605 244.702 250.089 244.702 250.089L248.027 229.133L253.249 196.233L252.847 195.571L252.396 195.349L224.853 181.717L223.357 177.885C222.922 176.781 222.166 175.833 221.187 175.162C220.208 174.492 219.05 174.129 217.864 174.122L199.72 174.048C198.779 174.043 197.85 174.264 197.01 174.69C196.171 175.117 195.445 175.738 194.894 176.501L189.981 183.305L157.482 204.143Z" fill="#3F3D56"/>
<path d="M177.041 245.751L172.931 254.544L170.126 260.551L165.299 285.82L162.883 288.385L160.813 279.306L139.146 284.117C138.435 280.168 138.955 284.25 138.517 279.918C138.64 279.795 138.77 279.671 138.9 279.548C139.246 279.226 139.536 278.923 139.53 278.633C139.283 263.69 140.024 238.261 146.217 222.855C147.186 220.339 148.465 217.954 150.023 215.754C150.147 215.588 150.264 215.421 150.382 215.254C153.237 211.256 155.041 207.319 157.6 204.52V204.514C157.615 204.501 157.63 204.486 157.643 204.47C157.652 204.466 157.66 204.459 157.667 204.452L175.243 195.133L175.996 216.317L176.534 231.544L177.041 245.751Z" fill="#3F3D56"/>
<path d="M240.413 248.248L245.546 259.231L247.338 263.056L252.163 288.323L254.571 290.881L256.646 281.805L257.621 281.605L275.204 277.963L280.329 294.24C281.484 292.315 281.939 290.051 281.618 287.829C281.296 285.608 280.217 283.566 278.563 282.048C278.213 281.731 277.921 281.423 277.929 281.131C278.221 263.556 277.146 231.465 267.438 218.257C264.354 214.065 262.504 209.89 259.813 206.973C259.804 206.965 259.804 206.957 259.796 206.957L253.246 196.232L252.846 195.573L252.396 195.348L240.413 248.248Z" fill="#3F3D56"/>
<path d="M209.316 168.884C222.647 168.884 233.454 158.077 233.454 144.746C233.454 131.415 222.647 120.608 209.316 120.608C195.985 120.608 185.178 131.415 185.178 144.746C185.178 158.077 195.985 168.884 209.316 168.884Z" fill="#FFB6B6"/>
<path d="M241.941 127.886C241.754 127.686 241.528 127.526 241.278 127.415C241.028 127.305 240.758 127.245 240.484 127.242L240.847 126.234C240.965 125.917 240.997 125.573 240.939 125.24C240.882 124.906 240.736 124.593 240.518 124.334C240.3 124.075 240.016 123.879 239.697 123.765C239.378 123.652 239.034 123.625 238.702 123.688L237.38 123.942L237.504 123.059C237.552 122.731 237.514 122.395 237.392 122.086C237.271 121.776 237.071 121.504 236.813 121.295C236.554 121.086 236.246 120.948 235.918 120.895C235.59 120.841 235.254 120.874 234.942 120.99C234.659 121.102 234.354 121.148 234.05 121.127C233.747 121.105 233.452 121.016 233.187 120.866C232.921 120.72 232.69 120.518 232.511 120.273C232.331 120.029 232.207 119.749 232.147 119.452L231.686 117.231L231.638 117.111C229.395 113.374 225.083 110.654 219.807 109.657C215.11 108.764 210.294 109.219 205.652 109.647C203.81 109.82 201.73 110.015 199.996 111.077C198.523 111.987 197.277 113.807 197.531 115.643C192.954 114.24 188.046 117.041 185.614 120.573C182.732 124.777 182.261 130.042 182.185 134.159C181.979 143.899 183.989 151.868 188.144 157.848C188.447 158.282 188.523 159.186 189.124 159.49L188.999 159.289C189.671 159.625 190.354 160.167 190.099 160.746C189.368 162.415 194.227 166.104 197.651 167.323C203.897 169.549 212.201 169.36 218.041 168.558L218.247 167.177C220.354 166.889 221.838 166.342 222.255 165.486C222.992 164.858 223.62 164.295 224.167 163.775L224.173 163.769C224.184 163.758 224.205 163.742 224.216 163.731C226.854 161.201 227.466 159.761 227.743 157.567C228.008 155.416 227.537 153.233 227.055 151.267C237.206 152.837 223.057 140.454 232.515 138.06C232.624 138.026 232.734 137.999 232.846 137.978C233.122 137.913 233.398 137.848 233.664 137.772C234.943 137.425 236.168 136.902 237.304 136.218C239.948 134.609 240.82 132.474 242.185 130.069C242.382 129.727 242.464 129.33 242.421 128.938C242.377 128.545 242.209 128.177 241.941 127.886V127.886Z" fill="#2F2E41"/>
<path d="M294.688 249.967C294.682 250.915 294.671 252.242 294.628 253.883C294.623 254.111 294.617 254.344 294.612 254.582C294.541 257.599 294.471 260.129 294.357 262.941C294.352 263.136 294.346 263.325 294.336 263.52C294.184 267.442 293.946 272.009 293.534 279.241C292.77 292.599 291.437 281.077 290.099 285.763C290.034 285.996 289.964 286.272 289.899 286.597C289.696 287.777 289.354 288.928 288.88 290.026C288.171 290.449 287.44 290.855 286.719 291.261C284.666 292.404 282.58 293.504 280.479 294.55C279.298 295.135 278.111 295.709 276.92 296.261C276.73 296.348 276.546 296.435 276.362 296.516C270.259 299.339 263.969 301.739 257.537 303.699C256.28 304.078 255.029 304.447 253.761 304.788C252.44 305.156 251.118 305.503 249.78 305.828C239.826 308.272 229.64 309.65 219.395 309.94C218.014 309.983 216.621 309.999 215.224 309.999C214.53 309.999 213.848 309.994 213.154 309.988C212.943 309.988 212.732 309.983 212.521 309.978C211.909 309.961 211.275 309.951 210.635 309.934C198.273 309.549 186.011 307.577 174.151 304.068L173.647 303.921C172.867 303.683 172.093 303.45 171.318 303.201C167.743 302.069 164.22 300.801 160.749 299.398C158.1 298.331 155.482 297.186 152.894 295.963C152.871 295.957 152.849 295.946 152.829 295.931C152.288 295.682 151.74 295.422 151.199 295.156C151.128 295.118 151.052 295.08 150.977 295.043C148.956 294.057 146.957 293.024 144.98 291.944C143.317 288.125 140.977 287.394 139.525 284.035C139.102 283.037 138.797 281.994 138.615 280.926C138.615 280.915 138.609 280.904 138.609 280.888C138.761 282.903 137.965 277.312 138.604 280.866C138.599 280.801 138.593 280.73 138.588 280.649C138.571 280.454 138.55 280.216 138.517 279.918C136.659 261.776 136.778 241.028 135.971 223.932C135.917 222.827 135.861 221.769 135.803 220.757C135.787 220.422 135.765 220.091 135.744 219.766C135.782 219.669 135.825 219.566 135.874 219.468C135.884 219.44 135.897 219.413 135.912 219.387C135.928 219.353 135.946 219.321 135.966 219.289C135.977 219.273 135.993 219.251 136.004 219.235C136.012 219.217 136.021 219.199 136.031 219.181C136.08 219.105 136.134 219.024 136.193 218.948C136.22 218.916 136.242 218.889 136.269 218.861C136.288 218.834 136.31 218.808 136.334 218.786C136.351 218.76 136.371 218.736 136.394 218.715C136.415 218.694 136.437 218.666 136.464 218.639C136.476 218.622 136.49 218.608 136.508 218.596C136.55 218.547 136.597 218.502 136.648 218.461C136.842 218.283 137.048 218.12 137.266 217.973C137.342 217.924 137.423 217.876 137.499 217.821C138.045 217.495 138.62 217.219 139.216 216.998C139.422 216.922 139.628 216.852 139.85 216.776C139.931 216.754 140.007 216.727 140.088 216.7C140.207 216.662 140.327 216.624 140.451 216.597C141.069 216.413 141.735 216.256 142.455 216.11C142.542 216.093 142.634 216.077 142.726 216.055C142.856 216.028 142.992 216.007 143.127 215.985C143.311 215.952 143.501 215.92 143.691 215.887C145.299 215.633 147.125 215.443 149.14 215.319C149.33 215.308 149.519 215.297 149.709 215.286C149.931 215.275 150.153 215.265 150.381 215.254C150.57 215.243 150.765 215.237 150.96 215.232C151.15 215.221 151.345 215.216 151.545 215.21C152.093 215.194 152.656 215.178 153.23 215.167C154.866 215.135 156.589 215.145 158.398 215.183C159.238 215.205 160.094 215.227 160.971 215.265C161.031 215.265 161.085 215.27 161.139 215.27C161.903 215.297 162.672 215.33 163.463 215.373C164.016 215.4 164.574 215.427 165.132 215.46C165.657 215.492 166.188 215.525 166.724 215.562C167.141 215.584 167.558 215.617 167.981 215.644C168.339 215.671 168.696 215.698 169.054 215.72L169.541 215.752C169.807 215.774 170.072 215.79 170.343 215.817C170.939 215.866 171.535 215.915 172.141 215.963C172.743 216.018 173.355 216.072 173.967 216.126C174.579 216.18 175.197 216.24 175.814 216.299C175.879 216.305 175.939 216.31 175.998 216.315C176.562 216.375 177.125 216.429 177.694 216.489C177.824 216.5 177.959 216.51 178.089 216.527C178.632 216.581 179.185 216.645 179.732 216.703C179.9 216.721 180.067 216.739 180.235 216.757C180.664 216.804 181.087 216.844 181.518 216.895C182.087 216.96 182.667 217.02 183.23 217.096C183.669 217.144 184.108 217.193 184.547 217.247C185.235 217.328 185.933 217.415 186.632 217.507C186.898 217.54 187.163 217.572 187.428 217.61C189.422 217.859 191.437 218.136 193.485 218.423C196.589 218.861 199.742 219.338 202.916 219.853C206.096 220.367 209.294 220.911 212.51 221.483C213.322 221.63 214.135 221.776 214.953 221.928C215.321 221.998 215.69 222.068 216.058 222.139C216.686 222.253 217.315 222.372 217.943 222.491C218.572 222.61 219.2 222.729 219.828 222.854C220.576 223 221.329 223.146 222.076 223.293C227.001 224.268 231.898 225.308 236.676 226.397C237.461 226.575 238.247 226.76 239.027 226.938C240.587 227.301 242.132 227.67 243.664 228.044C244.086 228.141 244.503 228.244 244.92 228.347C245.961 228.607 247.001 228.867 248.024 229.132L248.203 229.181C248.956 229.365 249.693 229.555 250.43 229.75C252.169 230.205 253.879 230.665 255.56 231.131C256.676 231.44 257.779 231.752 258.87 232.068C260.5 232.54 262.098 233.016 263.653 233.499C264.038 233.618 264.422 233.737 264.801 233.851C265.939 234.203 267.06 234.56 268.149 234.918C269.016 235.2 269.861 235.487 270.695 235.774C271.529 236.061 272.347 236.348 273.149 236.635C273.664 236.819 274.173 237.014 274.682 237.198C275.413 237.469 276.134 237.74 276.838 238.011C277.055 238.092 277.266 238.179 277.477 238.26C277.613 238.32 277.743 238.369 277.873 238.423C278.127 238.526 278.387 238.623 278.637 238.726C278.891 238.824 279.14 238.927 279.39 239.035C279.633 239.132 279.883 239.235 280.121 239.338C280.365 239.436 280.603 239.539 280.841 239.647C281.042 239.728 281.237 239.815 281.426 239.902C281.811 240.07 282.196 240.237 282.57 240.411C282.754 240.497 282.938 240.579 283.122 240.665L283.545 240.86C283.604 240.893 283.664 240.92 283.723 240.947C283.859 241.012 284 241.083 284.135 241.148C284.449 241.294 284.758 241.451 285.061 241.597C285.468 241.803 285.863 242.009 286.242 242.209C286.627 242.415 287.001 242.621 287.358 242.821C287.418 242.854 287.472 242.886 287.532 242.919C287.613 242.962 287.694 243.011 287.775 243.054C288.052 243.211 288.317 243.374 288.583 243.531C289.103 243.851 289.596 244.165 290.056 244.479C290.159 244.549 290.256 244.62 290.359 244.685C290.701 244.929 291.026 245.167 291.329 245.411C291.329 245.416 291.329 245.416 291.334 245.416C291.437 245.492 291.535 245.573 291.632 245.649C291.714 245.725 291.8 245.79 291.882 245.866C292.163 246.11 292.423 246.342 292.662 246.581C292.742 246.654 292.817 246.732 292.889 246.814C292.921 246.84 292.95 246.869 292.976 246.9C293.084 247.009 293.182 247.117 293.274 247.226C293.288 247.24 293.301 247.257 293.312 247.274C293.442 247.426 293.561 247.578 293.675 247.729C293.729 247.805 293.788 247.881 293.837 247.957C293.902 248.049 293.967 248.146 294.021 248.239C294.07 248.314 294.113 248.396 294.157 248.472C294.272 248.667 294.37 248.872 294.449 249.084C294.51 249.227 294.559 249.376 294.596 249.528C294.637 249.672 294.667 249.818 294.688 249.967V249.967Z" fill="#2F2E41"/>
<path opacity="0.2" d="M294.688 249.967C294.682 250.915 294.672 252.242 294.628 253.883C294.623 254.111 294.612 254.344 294.607 254.582C294.552 256.885 294.471 259.729 294.357 262.941C294.352 263.136 294.346 263.326 294.336 263.521C294.184 267.443 293.946 272.009 293.534 279.241C292.77 292.6 291.437 281.077 290.099 285.763C286.383 283.477 282.31 281.083 277.954 278.624C277.169 278.179 276.376 277.733 275.576 277.286C266.865 272.426 257.136 267.334 246.979 262.291C246.578 262.09 246.172 261.89 245.771 261.695C222.504 250.194 197.109 239.008 176.535 231.543C172.564 230.102 168.772 228.802 165.207 227.659C157.699 225.259 151.21 223.58 146.215 222.854C141.014 222.096 137.423 222.366 135.971 223.932C135.917 222.827 135.861 221.769 135.803 220.758C135.782 220.422 135.76 220.091 135.738 219.766C135.772 219.677 135.815 219.592 135.857 219.506C135.863 219.494 135.867 219.481 135.874 219.468C135.884 219.44 135.897 219.413 135.912 219.387C135.928 219.353 135.946 219.321 135.966 219.29C135.983 219.251 136.005 219.215 136.031 219.181C136.079 219.105 136.134 219.024 136.193 218.948C136.237 218.891 136.284 218.837 136.334 218.786C136.351 218.76 136.371 218.736 136.394 218.715C136.415 218.694 136.437 218.667 136.464 218.639C136.476 218.622 136.49 218.608 136.507 218.596C136.55 218.547 136.597 218.502 136.648 218.461C136.842 218.283 137.048 218.12 137.266 217.973C137.342 217.924 137.423 217.876 137.499 217.821C138.045 217.495 138.62 217.219 139.216 216.998C139.422 216.922 139.628 216.852 139.85 216.776C139.931 216.754 140.007 216.727 140.088 216.7C140.207 216.662 140.327 216.624 140.451 216.597C141.069 216.413 141.735 216.256 142.455 216.11C142.672 216.066 142.9 216.023 143.127 215.985C143.311 215.953 143.501 215.92 143.691 215.888C145.299 215.633 147.125 215.443 149.14 215.319C149.33 215.308 149.519 215.297 149.709 215.286C149.931 215.275 150.153 215.265 150.381 215.254C150.57 215.243 150.765 215.238 150.96 215.232C151.15 215.221 151.345 215.216 151.545 215.21C152.093 215.194 152.656 215.178 153.23 215.167C154.866 215.14 156.589 215.151 158.398 215.189C159.238 215.205 160.094 215.232 160.971 215.27C161.025 215.27 161.085 215.275 161.139 215.275C161.903 215.297 162.678 215.335 163.463 215.373C164.016 215.4 164.574 215.427 165.132 215.46C165.657 215.492 166.188 215.525 166.724 215.563C167.141 215.584 167.558 215.617 167.981 215.644C168.338 215.671 168.696 215.698 169.054 215.72C169.482 215.752 169.909 215.785 170.343 215.817C170.939 215.866 171.535 215.915 172.141 215.963C172.743 216.018 173.355 216.072 173.967 216.126C174.579 216.18 175.197 216.24 175.814 216.299C175.879 216.305 175.939 216.31 175.998 216.316C176.562 216.375 177.125 216.429 177.694 216.489C180.847 216.808 184.092 217.182 187.428 217.61C189.422 217.865 191.441 218.137 193.485 218.428C196.589 218.867 199.742 219.344 202.916 219.853C206.096 220.368 209.294 220.911 212.51 221.483C213.322 221.63 214.135 221.776 214.953 221.928C215.95 222.112 216.946 222.3 217.943 222.491C218.572 222.61 219.2 222.729 219.828 222.854C220.576 223 221.329 223.147 222.076 223.293C227.001 224.268 231.898 225.308 236.676 226.397C237.461 226.576 238.247 226.76 239.027 226.939C240.587 227.301 242.133 227.67 243.664 228.044C244.086 228.147 244.503 228.249 244.921 228.352C245.966 228.612 247.001 228.872 248.025 229.132V229.138C248.084 229.149 248.144 229.165 248.203 229.181C248.951 229.371 249.693 229.56 250.43 229.755C252.169 230.21 253.879 230.669 255.56 231.131C256.676 231.446 257.781 231.754 258.87 232.069C260.5 232.545 262.098 233.022 263.653 233.499C264.038 233.618 264.422 233.737 264.801 233.851C265.939 234.208 267.055 234.564 268.149 234.918C269.016 235.2 269.861 235.487 270.695 235.774C271.53 236.061 272.347 236.348 273.149 236.635C273.669 236.819 274.178 237.009 274.682 237.193C275.419 237.464 276.134 237.735 276.838 238.011C277.055 238.092 277.266 238.179 277.477 238.26C277.873 238.412 278.258 238.569 278.637 238.726C278.891 238.824 279.141 238.927 279.39 239.035C279.634 239.133 279.883 239.235 280.121 239.338C280.365 239.436 280.603 239.539 280.842 239.647C281.042 239.728 281.237 239.815 281.427 239.902C281.811 240.07 282.196 240.238 282.57 240.411C282.754 240.498 282.938 240.579 283.122 240.666L283.545 240.861C283.604 240.893 283.664 240.92 283.723 240.947C284.184 241.164 284.628 241.381 285.061 241.597C285.468 241.803 285.863 242.009 286.242 242.209C286.692 242.448 287.12 242.681 287.532 242.919C287.613 242.962 287.694 243.011 287.775 243.055C288.052 243.212 288.317 243.374 288.583 243.531C289.103 243.851 289.596 244.165 290.056 244.479C290.511 244.793 290.934 245.102 291.329 245.411C291.329 245.416 291.329 245.416 291.335 245.416C291.524 245.568 291.708 245.72 291.882 245.866C292.163 246.11 292.423 246.343 292.662 246.581C292.742 246.655 292.818 246.732 292.889 246.814C292.921 246.84 292.95 246.869 292.976 246.901C293.09 247.025 293.203 247.15 293.312 247.274C293.442 247.426 293.561 247.578 293.675 247.73C293.729 247.805 293.789 247.881 293.837 247.957C293.902 248.049 293.967 248.147 294.021 248.239C294.07 248.315 294.114 248.396 294.157 248.472C294.272 248.667 294.37 248.872 294.449 249.084C294.509 249.228 294.558 249.377 294.596 249.528C294.637 249.672 294.667 249.819 294.688 249.967V249.967Z" fill="black"/>
</g>
<defs>
<clipPath id="clip0_25_194">
<rect width="426.231" height="310" fill="white"/>
</clipPath>
</defs>
</svg>
