<svg width="651" height="445" viewBox="0 0 651 445" fill="none" xmlns="http://www.w3.org/2000/svg">
<g clip-path="url(#clip0_13_6)">
<path d="M574.898 433.813L564.006 433.812L558.825 392.782L574.899 392.783L574.898 433.813Z" fill="#FFB8B8"/>
<path d="M577.675 444.124L542.558 444.123V443.689C542.558 440.149 543.998 436.753 546.561 434.249C549.125 431.746 552.601 430.339 556.226 430.339H556.227L577.676 430.34L577.675 444.124Z" fill="#2F2E41"/>
<path d="M622.966 407.661L615.897 415.753L580.577 392.97L591.011 381.027L622.966 407.661Z" fill="#FFB8B8"/>
<path d="M632.8 412.29L610.005 438.382L609.667 438.1C606.91 435.802 605.2 432.528 604.914 428.998C604.627 425.469 605.789 421.972 608.141 419.279L608.142 419.278L622.065 403.343L632.8 412.29Z" fill="#2F2E41"/>
<path d="M497.566 232.032L494.176 262.57L631.224 260.661L571.456 165.545L522.657 163.833L497.566 232.032Z" fill="#2F2E41"/>
<path opacity="0.28" d="M497.566 232.032L494.176 262.57L631.224 260.661L571.456 165.545L522.657 163.833L497.566 232.032Z" fill="black"/>
<path d="M524.515 237.275L519.677 265.217V290.193L558.686 302.63C558.686 302.63 554.119 399.641 560.208 405.82L560.058 420.736L577.076 421.492L577.215 410.995L584.429 332.53L588.679 274.921L581.789 231.244L524.515 237.275Z" fill="#2F2E41"/>
<path d="M554.737 261.328L519.677 290.193C519.677 290.193 517.625 342.272 522.836 348.38C527.311 353.626 585.521 398.873 585.521 398.873C585.521 398.873 595.867 408.141 601.664 408.289C607.462 408.437 614.205 396.56 614.205 396.56L600.778 386.596C600.778 386.596 565.993 354.882 555.665 342.272C551.496 337.183 551.496 336.674 551.496 336.674L552.92 315.509L567.249 276.228L554.737 261.328Z" fill="#2F2E41"/>
<path d="M517.514 123.063L502.397 121.698L488.686 123.93L459.652 123.939L457.178 144.492L483.674 150.283L490.131 147.192L517.046 157.208L517.514 123.063Z" fill="#2F2E41"/>
<path d="M535.569 122.998C535.569 122.998 567.65 120.062 574.945 125.661C582.24 131.259 597.873 242.212 597.873 242.212L535.569 245.646L524.399 238.14L527.57 182.748L535.569 122.998Z" fill="#CCCCCC"/>
<path d="M545.361 122.307L509.973 123.066L476.979 268.677L503.034 274.276L545.361 122.307Z" fill="#2F2E41"/>
<path d="M570.518 121.076L598.394 129.598L596.811 189.425L631.224 260.953L590.768 265.115L558.791 187.878L570.518 121.076Z" fill="#2F2E41"/>
<path d="M616.485 268.218C617.463 267.378 618.239 266.339 618.761 265.174C619.282 264.008 619.536 262.746 619.504 261.474C619.472 260.203 619.154 258.954 618.575 257.816C617.995 256.677 617.166 255.676 616.148 254.884L621.756 235.776L610.698 229.616L603.167 256.708C601.918 258.468 601.373 260.614 601.636 262.739C601.898 264.865 602.95 266.823 604.592 268.241C606.233 269.66 608.351 270.441 610.543 270.437C612.735 270.433 614.849 269.643 616.485 268.218V268.218Z" fill="#FFB8B8"/>
<path d="M582.24 131.259L598.735 129.862C598.735 129.862 613.543 144.989 616.911 156.701C620.28 168.413 623.928 205.058 623.928 205.058L622.406 258.666L603.126 245.878L601.833 199.768L582.24 131.259Z" fill="#2F2E41"/>
<path d="M578.262 104.315C584.455 93.2478 580.291 79.3722 568.961 73.3225C557.63 67.2729 543.423 71.3401 537.229 82.4069C531.035 93.4736 535.2 107.349 546.53 113.399C557.861 119.449 572.068 115.381 578.262 104.315Z" fill="#FFB8B8"/>
<path d="M555.139 83.8268C552.071 83.1345 548.886 83.9017 545.779 84.3991C542.672 84.8964 539.248 85.0603 536.62 83.3671C534.679 82.1166 533.485 80.0479 532.365 78.058C531.897 77.3473 531.585 76.5497 531.449 75.7154C531.317 74.2438 532.276 72.901 533.294 71.8082C538.022 66.7323 544.931 63.9542 551.898 63.0717C557.644 62.2353 563.515 62.9355 568.886 65.0978C574.175 67.3635 578.721 71.5127 580.801 76.7753C581.759 79.4687 582.357 82.2715 582.58 85.1144C582.895 87.206 582.935 89.3282 582.7 91.4298C582.42 92.9878 582.001 94.5188 581.447 96.0052L578.003 106.164C577.755 107.124 577.293 108.018 576.648 108.783C576.317 109.157 575.871 109.416 575.376 109.522C574.882 109.628 574.365 109.575 573.904 109.37C574.18 108.266 574.222 107.12 574.028 106C573.92 105.442 573.644 104.928 573.234 104.525C572.825 104.121 572.301 103.847 571.731 103.737C570.461 103.605 569.376 104.567 568.172 104.981C567.621 105.14 567.043 105.192 566.471 105.134C565.899 105.075 565.345 104.907 564.84 104.639C564.334 104.371 563.888 104.009 563.526 103.573C563.164 103.136 562.894 102.635 562.73 102.096C562.697 101.988 562.669 101.878 562.645 101.767C562.455 100.606 562.774 99.3626 562.323 98.2719C561.795 96.9941 560.395 96.3245 559.343 95.4063C558.383 94.5411 557.696 93.4261 557.362 92.1926C557.029 90.959 557.063 89.6582 557.461 88.4429C557.742 87.5975 558.538 87.2131 558.378 86.2418C558.17 84.9677 556.246 84.0768 555.139 83.8268Z" fill="#2F2E41"/>
<path d="M295.19 180.361H0V0H295.19V180.361Z" fill="white"/>
<path d="M295.19 180.361H0V0H295.19V180.361ZM1.3479 179.045H293.842V1.31651H1.3479V179.045Z" fill="#3F3D56"/>
<path d="M259.134 430.168H90.6463V249.807H259.134V430.168Z" fill="white"/>
<path d="M259.134 430.168H90.6463V249.807H259.134V430.168ZM91.9942 428.852H257.786V251.124H91.9942V428.852Z" fill="#3F3D56"/>
<path d="M236.22 413.134H201.174V414.521H236.22V413.134Z" fill="#3F3D56"/>
<path d="M236.22 417.296H201.174V418.684H236.22V417.296Z" fill="#3F3D56"/>
<path d="M236.22 421.46H201.174V422.847H236.22V421.46Z" fill="#3F3D56"/>
<path d="M174.89 282.061V296.543C183.688 296.543 192.287 299.091 199.602 303.865C206.917 308.638 212.618 315.423 215.985 323.362C219.352 331.3 220.232 340.036 218.516 348.463C216.8 356.891 212.564 364.632 206.343 370.707L216.827 380.947C225.121 372.846 230.77 362.525 233.058 351.288C235.347 340.052 234.172 328.405 229.683 317.82C225.194 307.235 217.593 298.189 207.84 291.824C198.087 285.459 186.62 282.061 174.89 282.061Z" fill="#E6E6E6"/>
<path d="M216.827 380.947L206.343 370.707C198.738 378.137 188.634 382.622 177.903 383.333C167.172 384.043 156.541 380.931 147.979 374.572L139.005 386.106C150.422 394.581 164.598 398.729 178.906 397.781C193.214 396.832 206.686 390.852 216.827 380.947Z" fill="#575A89"/>
<path d="M130.409 339.987C130.409 334.282 131.56 328.633 133.795 323.362C136.031 318.091 139.307 313.302 143.438 309.267C147.568 305.233 152.471 302.033 157.868 299.85C163.265 297.667 169.049 296.543 174.89 296.543V282.061C162.475 282.061 150.372 285.867 140.289 292.941C130.205 300.016 122.649 310.003 118.686 321.494C114.722 332.986 114.551 345.403 118.196 356.995C121.842 368.586 129.12 378.768 139.004 386.106L147.979 374.573C142.515 370.524 138.085 365.295 135.036 359.295C131.988 353.294 130.404 346.686 130.409 339.987V339.987Z" fill="#6C63FF"/>
<path d="M508.496 318.265H340.008V137.904H508.496V318.265Z" fill="white"/>
<path d="M508.496 318.265H340.008V137.904H508.496V318.265ZM341.356 316.949H507.148V139.22H341.356V316.949Z" fill="#3F3D56"/>
<path d="M394.598 248.161H364.27V295.555H394.598V248.161Z" fill="#575A89"/>
<path d="M438.405 215.907H408.077V295.555H438.405V215.907Z" fill="#E6E6E6"/>
<path d="M482.212 178.386H451.884V295.555H482.212V178.386Z" fill="#6C63FF"/>
<path d="M492.321 296.872H356.183V159.297H357.53V295.556H492.321V296.872Z" fill="#3F3D56"/>
<path d="M459.498 142.706C464.625 142.706 468.781 138.647 468.781 133.639C468.781 128.632 464.625 124.573 459.498 124.573C454.372 124.573 450.216 128.632 450.216 133.639C450.216 138.647 454.372 142.706 459.498 142.706Z" fill="#FFB8B8"/>
<path d="M650.226 445H505.575C505.37 445 505.173 444.92 505.028 444.779C504.883 444.637 504.802 444.445 504.802 444.244C504.802 444.044 504.883 443.852 505.028 443.71C505.173 443.569 505.37 443.489 505.575 443.489H650.226C650.432 443.489 650.628 443.569 650.773 443.71C650.918 443.852 651 444.044 651 444.244C651 444.445 650.918 444.637 650.773 444.779C650.628 444.92 650.432 445 650.226 445Z" fill="#CCCCCC"/>
<path d="M254.195 142.641H40.9949C40.8179 142.641 40.6482 142.572 40.5231 142.45C40.398 142.328 40.3277 142.162 40.3277 141.989V42.1823C40.3277 42.0094 40.398 41.8437 40.5231 41.7215C40.6482 41.5992 40.8179 41.5306 40.9949 41.5306C41.1718 41.5306 41.3415 41.5992 41.4667 41.7215C41.5918 41.8437 41.6621 42.0094 41.6621 42.1823V141.337H254.195C254.283 141.337 254.37 141.354 254.451 141.386C254.533 141.419 254.606 141.467 254.669 141.527C254.731 141.588 254.78 141.66 254.814 141.739C254.848 141.818 254.865 141.903 254.865 141.989C254.865 142.075 254.848 142.16 254.814 142.239C254.78 142.318 254.731 142.39 254.669 142.451C254.606 142.511 254.533 142.559 254.451 142.592C254.37 142.624 254.283 142.641 254.195 142.641V142.641Z" fill="#3F3D56"/>
<path d="M86.5466 135.472H67.1551C66.6301 135.472 66.1266 135.268 65.7553 134.905C65.384 134.542 65.1751 134.051 65.1745 133.538V107.429C65.1751 106.916 65.384 106.425 65.7553 106.062C66.1266 105.7 66.6301 105.496 67.1551 105.495H86.5466C87.0716 105.496 87.5751 105.7 87.9464 106.062C88.3177 106.425 88.5266 106.916 88.5272 107.429V133.538C88.5266 134.051 88.3177 134.542 87.9464 134.905C87.5751 135.268 87.0717 135.472 86.5466 135.472V135.472Z" fill="#6C63FF"/>
<path d="M121.909 135.472H102.518C101.993 135.472 101.489 135.268 101.118 134.905C100.747 134.542 100.538 134.051 100.537 133.538V82.6656C100.538 82.1527 100.747 81.661 101.118 81.2984C101.489 80.9358 101.993 80.7318 102.518 80.7312H121.909C122.434 80.7318 122.938 80.9358 123.309 81.2984C123.68 81.661 123.889 82.1527 123.89 82.6656V133.538C123.889 134.051 123.68 134.542 123.309 134.905C122.938 135.268 122.434 135.472 121.909 135.472V135.472Z" fill="#6C63FF"/>
<path d="M157.272 135.472H137.88C137.355 135.472 136.852 135.268 136.481 134.905C136.109 134.542 135.9 134.051 135.9 133.538V107.429C135.9 106.916 136.109 106.425 136.481 106.062C136.852 105.7 137.355 105.496 137.88 105.495H157.272C157.797 105.496 158.3 105.7 158.672 106.062C159.043 106.425 159.252 106.916 159.253 107.429V133.538C159.252 134.051 159.043 134.542 158.672 134.905C158.3 135.268 157.797 135.472 157.272 135.472V135.472Z" fill="#6C63FF"/>
<path d="M192.635 135.472H173.243C172.73 135.483 172.233 135.295 171.862 134.949C171.491 134.602 171.275 134.127 171.263 133.626V72.8027C171.275 72.3016 171.491 71.8258 171.862 71.4797C172.233 71.1335 172.73 70.9452 173.243 70.956H192.635C193.148 70.9452 193.644 71.1335 194.016 71.4797C194.387 71.8258 194.602 72.3016 194.615 72.8027V133.626C194.602 134.127 194.387 134.602 194.016 134.949C193.644 135.295 193.148 135.483 192.635 135.472V135.472Z" fill="#6C63FF"/>
<path d="M227.997 135.472H208.606C208.081 135.472 207.577 135.268 207.206 134.905C206.835 134.542 206.626 134.051 206.625 133.538V55.2951C206.626 54.7822 206.835 54.2905 207.206 53.9279C207.577 53.5653 208.081 53.3613 208.606 53.3607H227.997C228.522 53.3613 229.026 53.5653 229.397 53.9279C229.768 54.2905 229.977 54.7822 229.978 55.2951V133.538C229.977 134.051 229.768 134.542 229.397 134.905C229.026 135.268 228.522 135.472 227.997 135.472V135.472Z" fill="#6C63FF"/>
<path d="M76.8508 97.6749C79.0618 97.6749 80.8542 95.9243 80.8542 93.7648C80.8542 91.6053 79.0618 89.8547 76.8508 89.8547C74.6399 89.8547 72.8475 91.6053 72.8475 93.7648C72.8475 95.9243 74.6399 97.6749 76.8508 97.6749Z" fill="#3F3D56"/>
<path d="M112.214 72.2594C114.424 72.2594 116.217 70.5088 116.217 68.3493C116.217 66.1898 114.424 64.4392 112.214 64.4392C110.003 64.4392 108.21 66.1898 108.21 68.3493C108.21 70.5088 110.003 72.2594 112.214 72.2594Z" fill="#3F3D56"/>
<path d="M147.576 97.6749C149.787 97.6749 151.58 95.9243 151.58 93.7648C151.58 91.6053 149.787 89.8547 147.576 89.8547C145.365 89.8547 143.573 91.6053 143.573 93.7648C143.573 95.9243 145.365 97.6749 147.576 97.6749Z" fill="#3F3D56"/>
<path d="M182.939 59.8775C185.15 59.8775 186.942 58.1269 186.942 55.9674C186.942 53.8079 185.15 52.0573 182.939 52.0573C180.728 52.0573 178.936 53.8079 178.936 55.9674C178.936 58.1269 180.728 59.8775 182.939 59.8775Z" fill="#3F3D56"/>
<path d="M218.302 45.5406C220.513 45.5406 222.305 43.79 222.305 41.6305C222.305 39.471 220.513 37.7204 218.302 37.7204C216.091 37.7204 214.298 39.471 214.298 41.6305C214.298 43.79 216.091 45.5406 218.302 45.5406Z" fill="#3F3D56"/>
<path d="M147.66 94.6407L112.214 68.709L77.2507 94.2863L76.4508 93.243L112.214 67.0801L147.492 92.8886L182.549 55.4187L182.69 55.3628L218.052 41.4462L218.551 42.6557L183.329 56.5165L147.66 94.6407Z" fill="#3F3D56"/>
</g>
<defs>
<clipPath id="clip0_13_6">
<rect width="651" height="445" fill="white"/>
</clipPath>
</defs>
</svg>
