<svg width="397" height="450" viewBox="0 0 397 450" fill="none" xmlns="http://www.w3.org/2000/svg">
<g clip-path="url(#clip0_13_59)">
<path d="M254.914 333.166C255.804 333.642 256.818 333.832 257.82 333.712C258.822 333.591 259.762 333.166 260.514 332.493C261.266 331.82 261.793 330.933 262.023 329.95C262.254 328.968 262.177 327.939 261.803 327.002C261.903 326.503 261.975 326.145 262.075 325.646C264 323.85 266.418 322.669 269.019 322.255C271.619 321.841 274.284 322.213 276.672 323.324C279.06 324.435 281.061 326.233 282.42 328.489C283.779 330.744 284.434 333.354 284.299 335.984C283.69 350.816 284.423 366.82 274.565 378.777C319.558 342.011 340.073 279.378 326.333 223.045C319.59 213.65 316.445 201.17 319.469 189.86C323.263 193.55 330.659 192.559 329.529 186.171C328.922 183.646 328.295 181.129 327.689 178.604C353.603 168.492 360.369 207.024 329.672 222.713C332.162 233.423 333.526 244.363 333.741 255.357C337.207 245.444 342.976 236.496 350.574 229.248C357.931 222.624 367.659 218.729 376.709 214.285C387.721 208.863 399.943 219.612 395.607 231.087C388.276 230.149 383.089 238.911 389.741 243.62C378.057 263.242 355.654 275.714 332.892 275.913C330.59 298.303 323.542 319.945 312.218 339.398C326.759 317.287 354.9 323.653 377.139 322.711C378.614 322.525 380.112 322.772 381.449 323.423C382.787 324.073 383.906 325.099 384.67 326.375C385.434 327.651 385.811 329.121 385.753 330.608C385.696 332.094 385.208 333.531 384.347 334.744C381.422 334.572 378.486 334.692 375.584 335.1C374.219 335.303 372.95 335.922 371.951 336.874C370.952 337.826 370.272 339.063 370.004 340.417C369.736 341.77 369.892 343.174 370.453 344.434C371.014 345.695 371.951 346.752 373.135 347.459C353.627 365.344 323.397 369.188 299.672 357.776C292.658 366.612 284.744 374.694 276.058 381.894L240.786 365.08C240.846 364.628 240.925 364.169 240.998 363.723C244.165 365.485 247.536 366.852 251.035 367.794C247.272 353.449 243.079 345.047 254.912 333.166H254.914Z" fill="#F2F2F2"/>
<path d="M192.587 299.233C191.942 300.009 191.074 300.568 190.101 300.834C189.128 301.101 188.096 301.061 187.146 300.722C186.196 300.382 185.373 299.759 184.789 298.936C184.205 298.114 183.888 297.131 183.881 296.122C183.6 295.698 183.399 295.394 183.118 294.97C180.657 294.032 177.972 293.85 175.408 294.448C172.843 295.046 170.516 296.396 168.723 298.325C166.931 300.254 165.756 302.675 165.348 305.276C164.94 307.878 165.319 310.542 166.435 312.927C172.594 326.433 177.952 341.532 191.592 348.887C136.054 331.808 93.4293 281.54 84.9056 224.185C87.6059 212.942 85.811 200.197 78.7448 190.863C76.6229 195.711 69.3992 197.583 68.0363 191.241C67.6455 188.674 67.2773 186.106 66.8864 183.539C39.0719 183.949 47.3403 222.187 81.6873 225.137C83.4208 235.996 86.2847 246.643 90.2322 256.905C83.2837 249.032 74.5653 242.921 64.794 239.074C55.4822 235.715 45.0038 235.777 34.9462 235.075C22.7023 234.207 15.438 248.772 23.7819 257.764C30.2173 254.13 38.3264 260.288 33.9416 267.159C52.1641 280.924 77.6171 284.025 98.7727 275.622C109.35 295.49 124.041 312.875 141.866 326.619C120.059 311.627 96.3982 328.137 75.4466 335.653C74.0099 336.038 72.7161 336.832 71.723 337.939C70.73 339.046 70.0805 340.418 69.8539 341.888C69.6273 343.358 69.8334 344.862 70.447 346.216C71.0606 347.571 72.0552 348.718 73.3095 349.517C75.9542 348.254 78.7178 347.258 81.5596 346.541C82.9 346.214 84.3089 346.309 85.5932 346.814C86.8775 347.318 87.9743 348.208 88.7333 349.36C89.4922 350.512 89.8762 351.871 89.8325 353.25C89.7888 354.63 89.3197 355.962 88.4894 357.064C113.303 366.268 142.749 358.426 160.417 338.908C170.247 344.445 180.625 348.945 191.384 352.337L217.709 323.46C217.483 323.064 217.236 322.669 217.001 322.283C214.732 325.109 212.126 327.647 209.24 329.84C207.314 315.135 208.028 305.772 192.588 299.232L192.587 299.233Z" fill="#F2F2F2"/>
<path d="M199.362 177.214C200.366 177.112 201.314 176.705 202.078 176.046C202.843 175.388 203.387 174.51 203.636 173.533C203.885 172.555 203.827 171.524 203.471 170.58C203.115 169.636 202.477 168.825 201.644 168.255C201.449 167.786 201.309 167.448 201.114 166.979C201.711 164.414 203.059 162.085 204.987 160.292C206.916 158.498 209.335 157.321 211.937 156.912C214.538 156.503 217.202 156.88 219.588 157.995C221.974 159.109 223.972 160.911 225.327 163.169C233.091 175.821 242.622 188.699 241.105 204.121C257.957 148.514 240.066 85.0814 197.251 45.9778C186.416 41.9379 176.847 33.3308 173.051 22.2564C178.258 23.2043 183.845 18.2577 179.345 13.5848C177.434 11.8271 175.51 10.0874 173.599 8.32959C189.474 -14.5136 216.574 13.7013 199.838 43.84C207.877 51.3423 215.109 59.6645 221.417 68.6707C218.767 58.5095 218.567 47.8644 220.834 37.6108C223.248 28.0104 229.152 19.3533 234.187 10.6184C240.305 -0.0224038 256.444 2.08655 259.243 14.0299C252.634 17.3385 253.214 27.5045 261.361 27.7043C262.602 50.5083 250.958 73.3529 232.173 86.2085C242.746 106.079 248.962 127.975 250.407 150.437C250.15 123.974 277.06 113.569 294.996 100.388C296.118 99.4106 297.499 98.7809 298.972 98.5754C300.445 98.3699 301.946 98.5976 303.291 99.2305C304.637 99.8635 305.77 100.874 306.551 102.14C307.332 103.406 307.728 104.871 307.69 106.358C305.166 107.847 302.795 109.582 300.614 111.54C299.594 112.469 298.886 113.69 298.587 115.037C298.288 116.385 298.413 117.791 298.945 119.064C299.477 120.337 300.39 121.415 301.559 122.149C302.727 122.883 304.094 123.238 305.472 123.165C299.248 148.888 276.297 168.934 250.239 172.688C249.342 183.934 247.279 195.056 244.083 205.876L205.427 211.584C205.225 211.175 205.035 210.75 204.847 210.339C208.458 210.036 212.019 209.291 215.449 208.122C204.327 198.312 196.162 193.675 199.361 177.215L199.362 177.214Z" fill="#F2F2F2"/>
<path d="M238.24 164.819C220.641 164.819 211.096 162.669 207.762 158.078C204.821 154.028 206.793 148.684 209.076 142.496C210.717 138.048 212.577 133.008 212.577 128.019C212.577 103.753 224.881 91.4489 249.147 91.4489C261.22 91.4489 274.184 97.8623 283.824 108.605C292.588 118.372 296.954 130.06 295.803 140.674C294.858 149.378 290.806 155.103 283.052 158.69L282.598 158.899L282.469 158.417C281.8 155.918 280.666 153.568 279.128 151.489C278.979 154.753 278.156 157.951 276.711 160.882L276.629 161.049L276.45 161.1C267.673 163.6 257.257 164.277 249.163 164.588C245.224 164.741 241.583 164.819 238.24 164.819Z" fill="#2F2E41"/>
<path d="M243.036 198.629C242.362 196.646 241.224 194.853 239.718 193.398C238.212 191.943 236.38 190.868 234.375 190.263C232.37 189.657 230.25 189.539 228.19 189.917C226.13 190.295 224.19 191.159 222.531 192.437L164.644 227.046L146.531 182.848C148.061 180.604 148.841 177.932 148.759 175.216C148.676 172.501 147.736 169.881 146.073 167.733C144.41 165.585 142.11 164.018 139.501 163.259C136.893 162.499 134.111 162.584 131.554 163.503C128.998 164.422 126.798 166.127 125.27 168.374C123.743 170.621 122.966 173.293 123.051 176.009C123.136 178.724 124.079 181.343 125.745 183.489C127.41 185.635 129.713 187.199 132.322 187.956C133.438 200.701 139.643 257.666 161.227 255.596C179.37 253.855 224.426 223.849 238.42 213.445C240.659 211.782 242.312 209.451 243.142 206.789C243.971 204.126 243.935 201.269 243.036 198.629Z" fill="#FFB6B6"/>
<path d="M286.658 450H236.276L227.827 408.227L225.087 450H178.286C178.304 417.195 180.013 384.412 183.406 351.783L183.986 349.807L184.902 346.646L185.482 344.662L195.167 311.405L195.932 308.765H254.25C257.606 311.918 260.701 315.336 263.506 318.988C264.456 320.199 265.448 321.51 266.465 322.922C267.171 323.923 267.903 324.974 268.634 326.075C275.132 335.749 279.989 346.429 283.01 357.685V357.693C283.523 359.618 283.977 361.588 284.372 363.603V363.611C284.725 365.402 285.036 367.218 285.28 369.076C285.465 370.429 285.624 371.8 285.742 373.187C286.443 380.872 286.197 388.613 285.011 396.238L286.658 450Z" fill="#2F2E41"/>
<path d="M19.5322 68.0286C22.8042 66.762 24.7424 63.8901 23.8613 61.614C22.9802 59.3378 19.6135 58.5194 16.3415 59.786C13.0696 61.0526 11.1314 63.9245 12.0125 66.2006C12.8936 68.4767 16.2603 69.2952 19.5322 68.0286Z" fill="#E6E6E6"/>
<path d="M60.7286 62.744C64.0006 61.4774 65.9388 58.6055 65.0577 56.3293C64.1766 54.0532 60.8099 53.2348 57.5379 54.5014C54.266 55.7679 52.3279 58.6398 53.2089 60.916C54.09 63.1921 57.4567 64.0105 60.7286 62.744Z" fill="#3F3D56"/>
<path d="M15.9594 103.176C19.2313 101.909 21.1695 99.0375 20.2884 96.7614C19.4073 94.4853 16.0406 93.6669 12.7687 94.9334C9.49674 96.2 7.55856 99.0719 8.43965 101.348C9.32074 103.624 12.6874 104.443 15.9594 103.176Z" fill="#FF6584"/>
<path d="M4.04153 118.68C5.54259 118.324 6.34543 116.287 5.8347 114.129C5.32398 111.972 3.69308 110.51 2.19202 110.866C0.690965 111.221 -0.111852 113.258 0.398874 115.416C0.909601 117.574 2.54047 119.035 4.04153 118.68Z" fill="#E6E6E6"/>
<path d="M3.79641 144.928C5.29747 144.573 6.10029 142.535 5.58956 140.378C5.07883 138.22 3.44796 136.759 1.94691 137.114C0.445848 137.469 -0.356969 139.507 0.153757 141.664C0.664483 143.822 2.29535 145.283 3.79641 144.928Z" fill="#3F3D56"/>
<path d="M39.9533 90.5617C41.4544 90.2064 42.2572 88.1691 41.7465 86.0114C41.2358 83.8536 39.6049 82.3924 38.1038 82.7477C36.6028 83.103 35.7999 85.1402 36.3107 87.298C36.8214 89.4557 38.4523 90.917 39.9533 90.5617Z" fill="#E6E6E6"/>
<path d="M18.2563 85.2928C19.7573 84.9375 20.5601 82.9003 20.0494 80.7425C19.5387 78.5847 17.9078 77.1235 16.4067 77.4788C14.9057 77.8341 14.1029 79.8714 14.6136 82.0291C15.1243 84.1869 16.7552 85.6481 18.2563 85.2928Z" fill="#FF6584"/>
<path d="M41.2536 61.1226C42.7547 60.7673 43.5575 58.7301 43.0468 56.5723C42.536 54.4145 40.9052 52.9533 39.4041 53.3086C37.9031 53.6639 37.1002 55.7011 37.611 57.8589C38.1217 60.0167 39.7526 61.4779 41.2536 61.1226Z" fill="#3F3D56"/>
<path d="M51.9492 242.792C53.5312 240.933 52.6479 237.583 49.9762 235.309C47.3045 233.035 43.8561 232.698 42.2741 234.556C40.6921 236.415 41.5755 239.765 44.2471 242.039C46.9188 244.314 50.3672 244.651 51.9492 242.792Z" fill="#E6E6E6"/>
<path d="M27.6865 209.081C29.2685 207.223 28.3852 203.873 25.7135 201.599C23.0418 199.324 19.5934 198.987 18.0114 200.846C16.4294 202.705 17.3128 206.055 19.9845 208.329C22.6561 210.603 26.1045 210.94 27.6865 209.081Z" fill="#3F3D56"/>
<path d="M84.5578 229.198C86.1398 227.34 85.2565 223.99 82.5848 221.715C79.9131 219.441 76.4648 219.104 74.8827 220.963C73.3007 222.822 74.1841 226.172 76.8558 228.446C79.5275 230.72 82.9758 231.057 84.5578 229.198Z" fill="#FF6584"/>
<path d="M100.757 229.571C102.412 228.094 102.92 225.964 101.893 224.814C100.866 223.663 98.692 223.927 97.0377 225.403C95.3834 226.88 94.875 229.01 95.9021 230.16C96.9293 231.311 99.103 231.047 100.757 229.571Z" fill="#E6E6E6"/>
<path d="M123.956 217.288C125.61 215.812 126.119 213.682 125.091 212.531C124.064 211.38 121.891 211.644 120.236 213.121C118.582 214.597 118.074 216.727 119.101 217.878C120.128 219.029 122.302 218.765 123.956 217.288Z" fill="#3F3D56"/>
<path d="M58.932 211.379C60.5863 209.903 61.0947 207.773 60.0675 206.622C59.0404 205.471 56.8666 205.735 55.2123 207.212C53.5581 208.689 53.0496 210.818 54.0768 211.969C55.104 213.12 57.2777 212.856 58.932 211.379Z" fill="#E6E6E6"/>
<path d="M64.6297 232.968C66.284 231.491 66.7924 229.361 65.7653 228.211C64.7381 227.06 62.5644 227.324 60.9101 228.8C59.2558 230.277 58.7474 232.407 59.7746 233.558C60.8017 234.708 62.9754 234.444 64.6297 232.968Z" fill="#FF6584"/>
<path d="M32.4251 224.253C34.0794 222.777 34.5878 220.647 33.5607 219.496C32.5335 218.345 30.3598 218.609 28.7055 220.086C27.0512 221.562 26.5428 223.692 27.57 224.843C28.5971 225.994 30.7709 225.73 32.4251 224.253Z" fill="#3F3D56"/>
<path d="M214.946 26.5849C217.136 25.5078 217.657 22.0823 216.108 18.9339C214.56 15.7855 211.529 14.1065 209.339 15.1836C207.149 16.2607 206.629 19.6862 208.177 22.8346C209.725 25.9829 212.756 27.662 214.946 26.5849Z" fill="#E6E6E6"/>
<path d="M223.82 67.1598C226.01 66.0827 226.53 62.6572 224.982 59.5088C223.434 56.3605 220.403 54.6814 218.213 55.7585C216.023 56.8357 215.502 60.2611 217.051 63.4095C218.599 66.5579 221.63 68.237 223.82 67.1598Z" fill="#3F3D56"/>
<path d="M179.621 26.1054C181.811 25.0282 182.331 21.6028 180.783 18.4544C179.235 15.306 176.204 13.6269 174.014 14.7041C171.824 15.7812 171.303 19.2067 172.852 22.355C174.4 25.5034 177.431 27.1825 179.621 26.1054Z" fill="#FF6584"/>
<path d="M161.053 13.229C163.158 12.5312 164.471 10.7786 163.985 9.31444C163.5 7.85028 161.4 7.22902 159.295 7.92685C157.191 8.62467 155.878 10.3773 156.363 11.8415C156.849 13.3056 158.949 13.9268 161.053 13.229Z" fill="#E6E6E6"/>
<path d="M134.884 15.2847C136.989 14.5868 138.302 12.8342 137.816 11.3701C137.331 9.9059 135.231 9.28467 133.126 9.9825C131.022 10.6803 129.709 12.4329 130.195 13.8971C130.68 15.3612 132.78 15.9825 134.884 15.2847Z" fill="#3F3D56"/>
<path d="M192.21 46.539C194.314 45.8412 195.627 44.0886 195.142 42.6244C194.656 41.1603 192.556 40.539 190.452 41.2368C188.347 41.9347 187.034 43.6873 187.52 45.1515C188.005 46.6156 190.105 47.2368 192.21 46.539Z" fill="#E6E6E6"/>
<path d="M195.557 24.4638C197.662 23.7659 198.975 22.0133 198.489 20.5491C198.004 19.085 195.904 18.4638 193.799 19.1616C191.695 19.8594 190.382 21.612 190.867 23.0762C191.353 24.5403 193.452 25.1616 195.557 24.4638Z" fill="#FF6584"/>
<path d="M221.649 45.2549C223.754 44.557 225.067 42.8044 224.581 41.3403C224.096 39.8761 221.996 39.2549 219.892 39.9527C217.787 40.6505 216.474 42.4031 216.96 43.8673C217.445 45.3315 219.545 45.9527 221.649 45.2549Z" fill="#3F3D56"/>
<path d="M229.729 171.575L257.485 170.145L270.377 190.516C270.377 190.516 294.633 194.571 292.952 223.154C291.27 251.737 263.439 276.819 263.439 276.819L264.628 291.704L262.562 297.608L262.827 300.923L265.646 304.434L265.936 308.065L263.439 313.809L266.835 319.31L195.432 312.392L192.821 302.881L196.63 297.773L194.503 291.111L197.701 284.703L199.369 264.349C199.369 264.349 181.123 236.937 202.069 216.29L210.476 201.999L219.882 190.522L229.729 171.575Z" fill="#6C63FF"/>
<path d="M243.527 165.823C259.77 165.823 272.938 152.655 272.938 136.412C272.938 120.169 259.77 107.001 243.527 107.001C227.284 107.001 214.116 120.169 214.116 136.412C214.116 152.655 227.284 165.823 243.527 165.823Z" fill="#FFB6B6"/>
<path d="M239.589 134.629C237.055 134.629 234.522 134.558 231.99 134.415L231.538 134.39L231.597 133.941C231.97 131.133 231.76 128.279 230.981 125.557C229.657 128.657 227.687 131.439 225.203 133.717L225.062 133.846L224.874 133.825C217.998 133.073 211.185 131.831 204.487 130.107L204.23 130.041L204.179 129.782C203.679 127.325 203.42 124.826 203.405 122.318C203.405 114.487 206.245 107.895 211.401 103.758C217.013 99.2543 225.058 97.8693 234.061 99.8557H262.85C266.015 99.8592 269.05 101.118 271.288 103.356C273.526 105.594 274.784 108.629 274.788 111.794V130.025L274.474 130.107C263.087 133.099 251.363 134.619 239.589 134.629Z" fill="#2F2E41"/>
<path d="M38.9071 101.915C37.6184 102.386 36.5692 103.35 35.9898 104.594C35.4104 105.838 35.3481 107.261 35.8165 108.551L66.8741 193.77C67.3454 195.058 68.3087 196.108 69.5526 196.687C70.7966 197.266 72.2195 197.329 73.5094 196.86L194.049 152.93C195.338 152.459 196.387 151.496 196.966 150.252C197.546 149.008 197.608 147.585 197.14 146.295L166.082 61.076C165.611 59.7872 164.647 58.738 163.404 58.1586C162.16 57.5791 160.737 57.5168 159.447 57.9852L38.9071 101.915Z" fill="#CCCCCC"/>
<path d="M149.187 164.582L75.404 191.472C74.0158 191.976 72.4842 191.909 71.1454 191.285C69.8066 190.662 68.7698 189.532 68.2626 188.145L40.0936 110.852C39.5894 109.464 39.6565 107.933 40.2801 106.594C40.9037 105.255 42.0329 104.218 43.42 103.711L157.148 62.2632C158.537 61.759 160.068 61.8261 161.407 62.4497C162.746 63.0733 163.783 64.2026 164.29 65.5897L177.901 102.937C182.253 114.92 181.674 128.14 176.29 139.697C170.907 151.254 161.16 160.203 149.187 164.582V164.582Z" fill="white"/>
<path d="M96.0961 108.744L78.5629 115.134C78.343 115.214 78.1095 115.251 77.8757 115.24C77.6419 115.23 77.4123 115.174 77.2002 115.075C76.9881 114.977 76.7975 114.837 76.6393 114.665C76.4811 114.492 76.3585 114.29 76.2783 114.07C76.1982 113.85 76.1621 113.617 76.1723 113.383C76.1824 113.149 76.2384 112.92 76.3372 112.708C76.4361 112.495 76.5757 112.305 76.7482 112.147C76.9207 111.988 77.1226 111.866 77.3425 111.786L94.8757 105.396C95.3198 105.234 95.81 105.255 96.2384 105.455C96.6668 105.654 96.9985 106.016 97.1603 106.46C97.3221 106.904 97.3009 107.394 97.1014 107.823C96.9018 108.251 96.5402 108.583 96.0962 108.744H96.0961Z" fill="#6C63FF"/>
<path d="M137.896 101.269L81.0586 121.983C80.8387 122.063 80.605 122.099 80.371 122.089C80.137 122.08 79.9073 122.024 79.6949 121.925C79.4825 121.826 79.2917 121.686 79.1333 121.514C78.975 121.341 78.8522 121.139 78.772 120.919C78.6918 120.699 78.6558 120.465 78.666 120.231C78.6762 119.997 78.7324 119.768 78.8314 119.555C78.9304 119.343 79.0703 119.153 79.2431 118.994C79.4158 118.836 79.618 118.714 79.8382 118.634L136.675 97.9199C136.895 97.8397 137.129 97.8037 137.362 97.8138C137.596 97.8239 137.826 97.88 138.038 97.9788C138.25 98.0776 138.441 98.2172 138.599 98.3897C138.757 98.5622 138.88 98.7641 138.96 98.984C139.04 99.2039 139.076 99.4374 139.066 99.6712C139.056 99.905 139 100.135 138.901 100.347C138.802 100.559 138.662 100.749 138.49 100.908C138.318 101.066 138.116 101.188 137.896 101.269V101.269Z" fill="#6C63FF"/>
<path d="M140.761 109.129L83.9234 129.843C83.7036 129.923 83.47 129.959 83.2362 129.949C83.0024 129.939 82.7729 129.883 82.5607 129.784C82.3486 129.686 82.158 129.546 81.9998 129.373C81.8416 129.201 81.719 128.999 81.6389 128.779C81.5587 128.559 81.5227 128.326 81.5328 128.092C81.5429 127.858 81.599 127.629 81.6978 127.416C81.7966 127.204 81.9362 127.014 82.1087 126.856C82.2812 126.697 82.4831 126.575 82.703 126.495L139.54 105.781C139.984 105.619 140.474 105.641 140.902 105.841C141.33 106.04 141.661 106.402 141.823 106.846C141.984 107.289 141.963 107.779 141.764 108.207C141.565 108.635 141.204 108.967 140.761 109.129V109.129Z" fill="#6C63FF"/>
<path d="M143.625 116.99L86.7882 137.704C86.5683 137.785 86.3346 137.821 86.1006 137.811C85.8666 137.801 85.6369 137.745 85.4245 137.646C85.2121 137.548 85.0213 137.408 84.8629 137.235C84.7046 137.063 84.5818 136.861 84.5016 136.641C84.4214 136.421 84.3854 136.187 84.3956 135.953C84.4058 135.719 84.462 135.489 84.561 135.277C84.66 135.065 84.7999 134.874 84.9727 134.716C85.1454 134.558 85.3477 134.435 85.5678 134.355L142.405 113.641C142.625 113.561 142.858 113.525 143.092 113.535C143.326 113.545 143.555 113.601 143.768 113.7C143.98 113.799 144.17 113.939 144.329 114.111C144.487 114.284 144.609 114.486 144.69 114.706C144.77 114.925 144.806 115.159 144.796 115.393C144.785 115.627 144.729 115.856 144.631 116.068C144.532 116.28 144.392 116.471 144.22 116.629C144.047 116.787 143.845 116.91 143.625 116.99V116.99Z" fill="#6C63FF"/>
<path d="M146.49 124.851L89.653 145.565C89.209 145.727 88.7188 145.705 88.2904 145.506C87.8619 145.306 87.5303 144.945 87.3685 144.501C87.2066 144.057 87.2278 143.566 87.4274 143.138C87.627 142.71 87.9885 142.378 88.4326 142.216L145.27 121.502C145.49 121.422 145.723 121.386 145.957 121.396C146.191 121.406 146.42 121.462 146.632 121.561C146.845 121.66 147.035 121.8 147.193 121.972C147.352 122.144 147.474 122.346 147.554 122.566C147.634 122.786 147.671 123.02 147.66 123.253C147.65 123.487 147.594 123.717 147.495 123.929C147.397 124.141 147.257 124.332 147.084 124.49C146.912 124.648 146.71 124.771 146.49 124.851H146.49Z" fill="#6C63FF"/>
<path d="M326.835 146.682L295.716 221.15C294.388 224.301 291.875 226.803 288.718 228.118C285.561 229.432 282.014 229.452 278.843 228.174C277.202 227.513 275.713 226.525 274.467 225.27C273.22 224.015 272.243 222.519 271.593 220.873C270.944 219.228 270.636 217.467 270.69 215.699C270.743 213.931 271.156 212.192 271.903 210.589L306.599 134.226L325.726 86.9367C324.073 85.2883 322.968 83.171 322.56 80.8726C322.153 78.5741 322.462 76.2059 323.448 74.0897C324.433 71.9735 326.046 70.2119 328.067 69.0442C330.088 67.8765 332.42 67.3594 334.745 67.5631C337.071 67.7667 339.277 68.6813 341.065 70.1826C342.852 71.6838 344.134 73.699 344.736 75.9542C345.339 78.2095 345.232 80.5955 344.431 82.7881C343.631 84.9807 342.174 86.8736 340.26 88.2096L326.835 146.682Z" fill="#FFB6B6"/>
</g>
<defs>
<clipPath id="clip0_13_59">
<rect width="396.503" height="450" fill="white"/>
</clipPath>
</defs>
</svg>
