<svg width="418" height="400" viewBox="0 0 418 400" fill="none" xmlns="http://www.w3.org/2000/svg">
<g clip-path="url(#clip0_32_14)">
<path d="M358.086 149.695C336.353 64.2377 261.26 2.54956 173.118 0.0753054C126.519 -1.23277 77.4849 14.2218 41.7841 68.3031C-22.0348 164.979 45.7059 231.785 92.933 263.53C115.749 278.898 136.308 297.376 154.014 318.43C185.914 356.285 247.283 403.325 320.371 329.62C373.345 276.199 372.562 206.618 358.086 149.695Z" fill="#F2F2F2"/>
<path d="M417.074 340.003C417.074 360.98 325.536 400 210.23 400C94.925 400 0 363.399 0 342.422C0 321.446 94.925 324.036 210.23 324.036C325.536 324.036 417.074 319.026 417.074 340.003Z" fill="#3F3D56"/>
<path opacity="0.1" d="M417.074 340.003C417.074 360.98 325.536 400 210.23 400C94.925 400 0 363.399 0 342.422C0 321.446 94.925 324.036 210.23 324.036C325.536 324.036 417.074 319.026 417.074 340.003Z" fill="black"/>
<path d="M208.778 380.162C324.084 380.162 417.557 363.157 417.557 342.181C417.557 321.204 324.084 304.199 208.778 304.199C93.4733 304.199 0 321.204 0 342.181C0 363.157 93.4733 380.162 208.778 380.162Z" fill="#3F3D56"/>
<path d="M287.819 213.006V314.586L304.81 342.277L306.103 344.383H373.146L374.5 213.006H287.819Z" fill="#2F2E41"/>
<path opacity="0.1" d="M287.819 213.006V314.586L304.81 342.277L305.852 213.006H287.819Z" fill="black"/>
<path d="M125.968 210.297V311.876L108.976 339.567L107.683 341.673H40.6399L39.2856 210.297H125.968Z" fill="#2F2E41"/>
<path opacity="0.1" d="M125.968 210.297V311.877L108.977 339.568L107.933 210.297H125.968Z" fill="black"/>
<path d="M394.816 208.265V214.36H30.4821V205.557L64.342 187.949H365.019L394.816 208.265Z" fill="#2F2E41"/>
<path opacity="0.1" d="M394.816 208.265V214.36H30.4821V205.557L394.816 208.265Z" fill="black"/>
<path opacity="0.1" d="M82.6263 238.74H66.3736L59.6017 233.999H90.0755L82.6263 238.74Z" fill="black"/>
<path opacity="0.1" d="M82.6263 258.379H66.3736L59.6017 253.638H90.0755L82.6263 258.379Z" fill="black"/>
<path opacity="0.1" d="M82.6263 286.144H66.3736L59.6017 281.403H90.0755L82.6263 286.144Z" fill="black"/>
<path opacity="0.1" d="M82.6263 313.908H66.3736L59.6017 309.169H90.0755L82.6263 313.908Z" fill="black"/>
<path opacity="0.1" d="M331.159 241.448H347.412L354.184 236.708H323.71L331.159 241.448Z" fill="black"/>
<path opacity="0.1" d="M331.159 261.087H347.412L354.184 256.347H323.71L331.159 261.087Z" fill="black"/>
<path opacity="0.1" d="M331.159 288.853H347.412L354.184 284.112H323.71L331.159 288.853Z" fill="black"/>
<path opacity="0.1" d="M331.159 316.618H347.412L354.184 311.877H323.71L331.159 316.618Z" fill="black"/>
<path d="M257.654 171.003L255.395 185.425C255.395 185.425 244.274 191.333 252.094 191.507C259.913 191.681 296.75 191.507 296.75 191.507C296.75 191.507 303.875 191.507 292.58 185.252L290.321 170.134L257.654 171.003Z" fill="#3F3D56"/>
<path opacity="0.1" d="M250.521 191.35C252.04 190.123 253.672 189.042 255.395 188.124L257.654 173.702L290.321 173.732L292.58 187.95C294.436 188.908 296.186 190.059 297.8 191.385C299.251 191.054 300.836 189.824 292.58 185.251L290.321 170.134L257.654 171.003L255.395 185.425C255.395 185.425 246.051 190.39 250.521 191.35Z" fill="black"/>
<path d="M342.227 70.4823H205.401C202.543 70.4823 200.226 72.7991 200.226 75.6569V167.826C200.226 170.684 202.543 173.001 205.401 173.001H342.227C345.085 173.001 347.402 170.684 347.402 167.826V75.6569C347.402 72.7991 345.085 70.4823 342.227 70.4823Z" fill="#3F3D56"/>
<path d="M342.45 75.9557H205.178V152.758H342.45V75.9557Z" fill="#F2F2F2"/>
<path d="M273.814 74.392C274.294 74.392 274.683 74.003 274.683 73.5232C274.683 73.0433 274.294 72.6543 273.814 72.6543C273.334 72.6543 272.945 73.0433 272.945 73.5232C272.945 74.003 273.334 74.392 273.814 74.392Z" fill="#F2F2F2"/>
<path d="M347.402 158.84V167.827C347.402 168.506 347.268 169.179 347.008 169.807C346.748 170.435 346.367 171.005 345.887 171.486C345.406 171.967 344.835 172.348 344.208 172.608C343.58 172.868 342.907 173.002 342.227 173.001H205.401C204.721 173.002 204.048 172.868 203.42 172.608C202.792 172.348 202.222 171.967 201.741 171.486C201.261 171.005 200.88 170.435 200.62 169.807C200.36 169.179 200.226 168.506 200.226 167.827V158.84H347.402Z" fill="#3F3D56"/>
<path d="M273.814 169.266C275.638 169.266 277.116 167.788 277.116 165.964C277.116 164.141 275.638 162.662 273.814 162.662C271.991 162.662 270.512 164.141 270.512 165.964C270.512 167.788 271.991 169.266 273.814 169.266Z" fill="#F2F2F2"/>
<path d="M268.669 200.89V202.628H175.186V201.238L175.314 200.89L177.618 194.634H266.758L268.669 200.89Z" fill="#3F3D56"/>
<path d="M304.645 199.189C304.474 199.917 303.832 200.685 302.379 201.411C297.166 204.018 286.567 200.716 286.567 200.716C286.567 200.716 278.4 199.326 278.4 195.677C278.629 195.52 278.869 195.378 279.116 195.251C281.308 194.092 288.574 191.231 301.459 195.372C302.408 195.67 303.256 196.226 303.908 196.977C304.197 197.262 304.414 197.61 304.542 197.994C304.67 198.379 304.705 198.788 304.645 199.189V199.189Z" fill="#3F3D56"/>
<path opacity="0.1" d="M304.645 199.189C298.264 201.634 292.577 201.816 286.74 197.762C283.797 195.719 281.123 195.213 279.116 195.251C281.307 194.092 288.574 191.231 301.459 195.372C302.408 195.67 303.256 196.226 303.908 196.977C304.197 197.262 304.414 197.61 304.542 197.994C304.67 198.379 304.705 198.788 304.645 199.189V199.189Z" fill="black"/>
<path d="M296.645 197.762C297.893 197.762 298.904 197.451 298.904 197.067C298.904 196.683 297.893 196.372 296.645 196.372C295.397 196.372 294.386 196.683 294.386 197.067C294.386 197.451 295.397 197.762 296.645 197.762Z" fill="#F2F2F2"/>
<path opacity="0.1" d="M268.669 200.89V202.628H175.186V201.238L175.314 200.89H268.669Z" fill="black"/>
<path d="M322.091 112.228C321.353 111.49 311.888 99.5665 310.29 97.5997C308.569 95.6329 307.831 96.0016 306.725 96.1246C305.619 96.2475 293.695 98.3372 292.343 98.4602C290.991 98.706 290.13 99.1977 290.991 100.427C291.728 101.533 299.595 112.597 301.316 115.178L269.97 122.677L245.139 81.0045C244.156 79.5294 243.91 79.0377 241.697 79.1606C239.484 79.2835 222.152 80.7587 220.922 80.7587C219.693 80.8816 218.341 81.3733 219.57 84.3235C220.799 87.2738 240.468 129.561 240.959 130.79C241.451 132.019 242.926 133.986 246.245 133.248C249.687 132.388 261.488 129.315 268.003 127.594C271.445 133.74 278.329 146.279 279.681 148.123C281.402 150.581 282.632 150.089 285.213 149.352C287.303 148.737 317.42 137.92 318.772 137.305C320.124 136.69 320.985 136.322 320.001 134.969C319.264 133.986 311.396 123.291 307.217 117.76C310.044 117.022 320.247 114.318 321.353 113.949C322.583 113.58 322.829 112.966 322.091 112.228V112.228ZM265.176 123.906C264.807 124.029 247.229 128.209 246.368 128.454C245.385 128.7 245.385 128.577 245.385 128.209C245.139 127.84 224.487 85.0611 224.118 84.5694C223.873 84.0777 223.873 83.586 224.118 83.586C224.364 83.586 240.714 82.1109 241.205 82.1109C241.82 82.1109 241.697 82.2338 241.943 82.6026C241.943 82.6026 264.93 122.308 265.299 122.923C265.791 123.537 265.545 123.783 265.176 123.906V123.906ZM314.592 133.126C314.838 133.617 315.207 133.863 314.224 134.109C313.363 134.478 284.598 144.189 283.984 144.435C283.369 144.681 283 144.804 282.263 143.697C281.525 142.591 272.183 126.488 272.183 126.488L302.791 118.497C303.529 118.251 303.775 118.128 304.267 118.866C304.758 119.727 314.347 132.757 314.592 133.126V133.126ZM316.559 111.49C315.822 111.613 304.635 114.441 304.635 114.441L295.416 101.902C295.17 101.533 294.924 101.165 295.539 101.042C296.153 100.919 306.602 99.0748 307.094 98.9519C307.586 98.8289 307.954 98.706 308.569 99.5665C309.184 100.304 317.051 110.384 317.42 110.753C317.788 111.122 317.297 111.368 316.559 111.49V111.49Z" fill="#FB503B"/>
<path d="M190.944 93.9338C201.164 93.9338 209.449 85.6487 209.449 75.4285C209.449 65.2082 201.164 56.9231 190.944 56.9231C180.723 56.9231 172.438 65.2082 172.438 75.4285C172.438 85.6487 180.723 93.9338 190.944 93.9338Z" fill="#FFB9B9"/>
<path d="M177.308 84.6813V113.9H207.501C207.501 113.9 203.605 89.5511 205.553 82.2464L177.308 84.6813Z" fill="#FFB9B9"/>
<path d="M237.207 124.127C237.207 124.127 208.475 110.005 208.475 109.031C208.475 108.057 205.553 101.726 203.605 101.726C201.657 101.726 185.1 96.369 175.847 104.161L174.873 110.492L139.323 133.867L149.063 169.416C149.063 169.416 155.394 176.234 153.446 181.104C151.498 185.974 154.907 210.81 154.907 210.81L231.363 208.375V175.26C231.363 175.26 233.798 167.469 235.259 165.034C236.72 162.599 235.259 155.294 235.259 155.294L246.947 140.684C246.947 140.684 245.486 127.049 237.207 124.127Z" fill="#D0CDE1"/>
<path opacity="0.1" d="M140.541 145.798L142.732 133.867C142.732 133.867 130.071 188.896 131.531 195.227C132.992 201.557 143.706 211.297 145.167 211.784C146.628 212.271 160.264 169.903 160.264 169.903L140.541 145.798Z" fill="black"/>
<path d="M147.602 132.406L139.323 133.867C139.323 133.867 126.662 188.896 128.123 195.227C129.584 201.557 140.297 211.297 141.758 211.784C143.219 212.271 156.855 169.903 156.855 169.903L147.602 132.406Z" fill="#D0CDE1"/>
<path opacity="0.1" d="M239.885 148.72L244.025 140.684C244.025 140.684 249.869 195.714 245.973 201.07C242.077 206.427 226.666 208.432 226.666 208.432L226.493 168.442L239.885 148.72Z" fill="black"/>
<path d="M240.616 134.354L246.947 140.684C246.947 140.684 252.79 195.714 248.895 201.07C244.999 206.427 229.588 208.432 229.588 208.432L229.415 168.442L240.616 134.354Z" fill="#D0CDE1"/>
<path d="M146.141 218.115C146.141 218.115 132.018 212.758 129.583 222.985C127.149 233.211 135.427 278.988 135.427 278.988C135.427 278.988 140.784 313.564 144.193 314.538C147.602 315.512 162.698 315.999 165.133 311.616C167.568 307.233 157.829 262.43 157.829 262.43L214.319 261.456C214.319 261.456 210.91 300.415 208.962 303.824C207.014 307.233 207.014 318.92 208.962 318.92C210.91 318.92 232.337 317.946 233.798 315.025C235.259 312.103 243.538 246.36 243.538 246.36C243.538 246.36 250.355 223.472 242.564 224.933C234.772 226.394 146.141 218.115 146.141 218.115Z" fill="#3F3D56"/>
<path d="M229.415 313.077C229.415 313.077 234.285 309.668 236.72 313.077C239.155 316.486 240.129 320.382 229.415 326.226C218.702 332.07 210.423 330.609 210.423 329.635V315.512L229.415 313.077Z" fill="#2F2E41"/>
<path d="M145.167 311.616C145.167 311.616 140.297 308.207 137.862 311.616C135.427 315.025 134.453 318.921 145.167 324.764C155.881 330.608 164.159 329.147 164.159 328.173V314.051L145.167 311.616Z" fill="#2F2E41"/>
<path d="M191.064 52.095C189.22 52.031 187.38 52.2932 185.628 52.8697C184.27 53.4158 182.972 54.1024 181.756 54.9183L173.586 59.9988C172.893 60.299 172.304 60.7978 171.893 61.4324C171.483 62.0671 171.27 62.809 171.28 63.5647L170.259 71.2103C170.002 73.1397 169.764 75.2031 170.628 76.9476C171.349 78.4036 172.724 79.3999 173.854 80.5669C175.663 82.4422 176.881 84.8081 177.356 87.3702C177.94 90.5623 177.566 94.4064 180.092 96.4436C181.46 97.5466 183.324 97.7553 185.078 97.8578C189.875 98.1379 194.688 97.9526 199.449 97.3047C200.206 97.248 200.944 97.0412 201.62 96.6963C202.479 96.1883 203.019 95.2917 203.525 94.4313C205.349 91.3252 207.23 88.0209 207.21 84.4187C207.2 82.6366 206.744 80.7226 207.6 79.1594C208.052 78.495 208.543 77.8576 209.069 77.2507C210.129 75.762 210.335 73.8492 210.508 72.0301C211.059 66.2198 210.483 61.7982 206.2 57.7053C202.203 53.8847 196.515 52.1302 191.064 52.095Z" fill="#2F2E41"/>
<path d="M145.606 275.647L129.354 358.265H137.48L153.056 277.002L145.606 275.647Z" fill="#2F2E41"/>
<path d="M197.751 282.419L207.909 377.227H214.681L208.586 279.71L197.751 282.419Z" fill="#2F2E41"/>
<path d="M225.516 279.71L239.737 342.69H246.509L232.965 278.356L225.516 279.71Z" fill="#2F2E41"/>
<path d="M171.34 279.71L169.309 329.823H174.726L178.79 279.71H171.34Z" fill="#2F2E41"/>
<path d="M134.094 266.844C134.094 266.844 123.259 194.382 153.733 192.351C184.207 190.319 227.548 192.351 227.548 192.351C227.548 192.351 252.604 190.319 245.155 266.844C245.155 266.844 251.927 289.191 190.979 287.16C130.031 285.128 134.094 266.844 134.094 266.844Z" fill="#6C63FF"/>
<path d="M411.752 296.434C411.752 309.07 404.24 313.482 394.974 313.482C385.707 313.482 378.195 309.07 378.195 296.434C378.195 283.798 394.974 267.723 394.974 267.723C394.974 267.723 411.752 283.798 411.752 296.434Z" fill="#6C63FF"/>
<path d="M394.533 300.974L401.685 287.891L394.56 299.314L394.637 294.56L399.566 285.094L394.658 293.301L394.797 284.749L400.075 277.214L394.818 283.405L394.905 267.723L394.383 287.593L389.039 279.413L394.319 289.27L393.819 298.821L393.804 298.567L387.617 289.925L393.785 299.463L393.722 300.658L393.711 300.676L393.717 300.774L392.448 313.519H394.143L394.346 312.49L400.499 302.974L394.361 311.548L394.533 300.974Z" fill="#3F3D56"/>
<path d="M405.689 340.891H385.686L380.516 311.674H409.734L405.689 340.891Z" fill="#2F2E41"/>
<path d="M111.768 143.363H70.1573V192.147H111.768V143.363Z" fill="#3F3D56"/>
<path d="M105.311 150.933H76.614V184.578H105.311V150.933Z" fill="#F2F2F2"/>
<path d="M93.8389 158.078L90.9246 163.126L88.0103 158.078H78.3065L90.9246 179.934L103.543 158.078H93.8389Z" fill="#4DBA87"/>
<path d="M93.839 158.078L90.9247 163.126L88.0103 158.078H83.3535L90.9247 171.192L98.4958 158.078H93.839Z" fill="#435466"/>
</g>
<defs>
<clipPath id="clip0_32_14">
<rect width="417.557" height="400" fill="white"/>
</clipPath>
</defs>
</svg>
