<svg width="412" height="400" viewBox="0 0 412 400" fill="none" xmlns="http://www.w3.org/2000/svg">
<g clip-path="url(#clip0_25_88)">
<path d="M387.215 110.401C383.362 103.45 379.087 96.7416 374.414 90.3129C371.14 85.8026 367.68 81.4429 364.035 77.2337H364.026C357.43 69.6138 350.256 62.5135 342.569 55.9959C340.996 54.6597 339.401 53.3509 337.785 52.0695C323.199 40.4657 307.024 31.0143 289.754 24.0041L289.907 49.2404L291.56 336.92H148.327L140.272 49.7832L140.872 24.9499C70.6498 54.4839 21.3432 123.923 21.3432 204.884C21.3301 221.594 23.462 238.237 27.6867 254.405C29.4711 261.239 31.6315 267.97 34.1579 274.566C35.07 276.961 36.0322 279.333 37.0446 281.685C37.5326 282.83 38.0297 283.965 38.545 285.096C39.2063 286.574 39.8949 288.047 40.6018 289.502C41.149 290.646 41.7115 291.783 42.2891 292.913C43.0325 294.395 43.8001 295.865 44.5921 297.323C45.2032 298.467 45.8325 299.603 46.471 300.734C56.7714 318.953 69.9246 335.404 85.4305 349.462C89.8496 353.47 94.448 357.271 99.2258 360.863C133.032 386.265 174.174 400 216.46 400C258.746 400 299.888 386.265 333.694 360.863C336.294 358.911 338.84 356.894 341.333 354.811C342.988 353.434 344.617 352.031 346.217 350.602C346.641 350.223 347.065 349.845 347.485 349.462C361.781 336.502 374.084 321.502 383.996 304.948C387.636 298.878 390.936 292.612 393.883 286.177C394.662 284.481 395.418 282.769 396.149 281.042C399.515 273.125 402.345 264.99 404.622 256.694C404.974 255.413 405.313 254.127 405.639 252.836V252.832C405.694 252.608 405.753 252.38 405.808 252.157C406.146 250.798 406.469 249.43 406.779 248.061V248.057C407.783 243.647 408.629 239.184 409.32 234.668C409.406 234.088 409.493 233.509 409.575 232.93C409.607 232.72 409.639 232.51 409.662 232.301V232.296C410.154 228.807 410.554 225.293 410.861 221.752C411.335 216.193 411.574 210.57 411.577 204.884C411.629 171.83 403.243 139.309 387.215 110.401V110.401Z" fill="#F2F2F2"/>
<path d="M368.053 322.665C379.602 307.06 384.044 285.08 375.06 267.871C366.635 287.228 351.634 302.981 332.713 312.343C325.402 315.928 316.898 319.153 313.514 326.558C311.408 331.166 311.809 336.607 313.502 341.382C315.195 346.156 318.074 350.405 320.922 354.595L321.072 355.85C339.005 348.415 356.505 338.269 368.053 322.665Z" fill="#E6E6E6"/>
<path d="M374.678 268.009C374.16 284.069 368.595 299.558 358.774 312.276C356.708 315.051 354.217 317.484 351.394 319.484C348.581 321.343 345.321 322.415 341.954 322.588C338.817 322.813 335.583 322.68 332.555 323.663C331.013 324.19 329.599 325.036 328.407 326.147C327.215 327.258 326.271 328.608 325.638 330.11C323.962 333.809 323.715 337.891 323.612 341.89C323.498 346.331 323.45 350.946 321.355 354.983C321.102 355.472 321.875 355.837 322.129 355.349C325.773 348.325 323.407 340.112 325.579 332.728C326.592 329.283 328.65 326.122 332.089 324.742C335.097 323.534 338.433 323.669 341.611 323.469C344.898 323.348 348.106 322.424 350.954 320.777C353.87 318.927 356.45 316.595 358.584 313.88C363.484 307.843 367.405 301.074 370.203 293.82C373.442 285.558 375.244 276.804 375.53 267.934C375.548 267.385 374.695 267.463 374.678 268.009V268.009Z" fill="white"/>
<path d="M362.177 308.367C364.535 309.725 367.298 310.201 369.974 309.71C372.65 309.219 375.064 307.792 376.786 305.685C377.132 305.257 376.484 304.698 376.137 305.126C374.538 307.092 372.289 308.42 369.796 308.873C367.303 309.325 364.731 308.871 362.543 307.593C362.068 307.316 361.704 308.091 362.177 308.367Z" fill="white"/>
<path d="M343.559 322.683C342.066 317.326 342.648 311.602 345.188 306.654C345.44 306.164 344.667 305.799 344.415 306.289C341.781 311.442 341.188 317.4 342.753 322.972C342.903 323.503 343.708 323.211 343.559 322.683H343.559Z" fill="white"/>
<path d="M372.308 285.598C371.286 285.262 370.364 284.679 369.624 283.899C368.883 283.119 368.349 282.167 368.067 281.129C367.924 280.596 367.119 280.888 367.261 281.417C367.578 282.562 368.17 283.613 368.986 284.476C369.802 285.34 370.817 285.991 371.942 286.371C372.045 286.416 372.162 286.42 372.267 286.382C372.373 286.344 372.461 286.268 372.512 286.168C372.56 286.065 372.565 285.948 372.527 285.841C372.489 285.734 372.41 285.647 372.308 285.598V285.598Z" fill="white"/>
<path d="M310.774 254.175C310.853 254.51 310.933 254.845 311.008 255.186C312.056 259.697 312.736 264.285 313.04 268.906C313.07 269.263 313.094 269.625 313.113 269.982C313.728 281.123 312.27 292.281 308.813 302.889C307.433 307.109 305.734 311.218 303.731 315.181C300.964 320.653 297.529 326.366 296.754 332.259C296.667 332.872 296.617 333.491 296.606 334.111L319.529 355.936C319.606 355.959 319.678 355.988 319.755 356.012L320.631 356.925C320.748 356.728 320.866 356.521 320.984 356.324C321.052 356.21 321.116 356.091 321.184 355.977C321.229 355.899 321.273 355.821 321.317 355.754C321.332 355.728 321.346 355.702 321.356 355.681C321.4 355.614 321.434 355.546 321.474 355.484C322.135 354.329 322.789 353.167 323.436 351.998C323.441 351.993 323.441 351.993 323.441 351.983C328.35 343.067 332.558 333.663 335.205 323.919C335.284 323.626 335.369 323.327 335.438 323.024C336.607 318.625 337.414 314.138 337.852 309.608C338.083 307.127 338.189 304.635 338.169 302.143C338.104 295.704 337.027 289.315 334.977 283.211C330.888 271.042 322.953 260.317 311.642 254.603C311.353 254.457 311.068 254.316 310.774 254.175Z" fill="#E6E6E6"/>
<path d="M310.548 254.515C319.804 267.65 324.687 283.367 324.502 299.435C324.523 302.894 323.999 306.336 322.949 309.632C321.822 312.811 319.865 315.629 317.281 317.795C314.912 319.863 312.249 321.704 310.423 324.312C309.509 325.661 308.89 327.187 308.607 328.792C308.324 330.397 308.384 332.043 308.781 333.624C309.671 337.587 311.931 340.994 314.257 344.249C316.84 347.864 319.58 351.577 320.338 356.061C320.429 356.604 321.267 356.43 321.175 355.888C319.857 348.086 313.022 342.953 310.311 335.75C309.046 332.389 308.786 328.626 310.701 325.453C312.376 322.679 315.12 320.778 317.537 318.705C320.089 316.629 322.094 313.959 323.377 310.93C324.591 307.697 325.247 304.282 325.315 300.83C325.594 293.06 324.649 285.294 322.515 277.818C320.127 269.271 316.295 261.196 311.184 253.942C310.867 253.494 310.234 254.069 310.548 254.515V254.515Z" fill="white"/>
<path d="M324.866 294.265C327.566 293.93 330.059 292.646 331.9 290.643C333.74 288.639 334.809 286.047 334.915 283.328C334.935 282.778 334.081 282.722 334.061 283.273C333.967 285.805 332.971 288.219 331.253 290.081C329.535 291.943 327.208 293.13 324.692 293.427C324.146 293.492 324.322 294.33 324.866 294.265H324.866Z" fill="white"/>
<path d="M318.62 316.905C314.203 313.526 311.222 308.606 310.271 303.126C310.177 302.583 309.339 302.757 309.433 303.299C310.433 309 313.546 314.114 318.151 317.62C318.59 317.954 319.057 317.237 318.62 316.905V316.905Z" fill="white"/>
<path d="M319.246 269.986C318.228 270.333 317.14 270.422 316.08 270.245C315.019 270.068 314.019 269.63 313.169 268.971C312.735 268.632 312.268 269.349 312.7 269.686C313.642 270.41 314.747 270.892 315.918 271.09C317.089 271.288 318.291 271.197 319.419 270.823C319.528 270.797 319.624 270.73 319.685 270.636C319.747 270.542 319.771 270.429 319.751 270.318C319.728 270.207 319.662 270.11 319.567 270.048C319.472 269.986 319.357 269.963 319.246 269.986Z" fill="white"/>
<path d="M9.10881 235.268C-1.13365 218.776 -3.77422 196.508 6.57821 180.086C13.4024 200.064 27.0732 216.984 45.1718 227.853C52.1668 232.019 60.3808 235.925 63.1516 243.581C64.8758 248.344 64.034 253.735 61.959 258.356C59.8837 262.978 56.6691 266.978 53.4896 270.922L53.238 272.162C35.9685 263.294 19.3513 251.759 9.10881 235.268Z" fill="#E6E6E6"/>
<path d="M6.94893 180.254C6.15949 196.304 10.4471 212.194 19.2027 225.667C21.0361 228.602 23.3205 231.228 25.9719 233.451C28.6246 235.533 31.7864 236.866 35.1287 237.313C38.2367 237.792 41.4713 237.921 44.4088 239.148C45.9031 239.798 47.2432 240.756 48.3411 241.96C49.439 243.164 50.2699 244.587 50.7795 246.135C52.1494 249.959 52.0637 254.046 51.8409 258.041C51.5936 262.476 51.2665 267.08 53.0261 271.273C53.2393 271.781 52.4384 272.082 52.2255 271.575C49.164 264.279 52.1901 256.285 50.6255 248.75C49.8954 245.233 48.1013 241.916 44.7854 240.26C41.8858 238.813 38.5503 238.676 35.3992 238.218C32.1323 237.83 29.01 236.648 26.3051 234.776C23.5492 232.695 21.1674 230.161 19.2617 227.281C14.868 220.867 11.5102 213.801 9.31137 206.344C6.75461 197.846 5.67028 188.974 6.1053 180.111C6.13245 179.562 6.97592 179.709 6.94894 180.254L6.94893 180.254Z" fill="white"/>
<path d="M16.1281 221.495C13.668 222.657 10.875 222.907 8.24782 222.2C5.62061 221.493 3.33028 219.875 1.78585 217.635C1.47491 217.181 2.16623 216.676 2.47759 217.131C3.91191 219.219 6.04551 220.726 8.49331 221.38C10.9411 222.033 13.5419 221.79 15.8262 220.694C16.3229 220.457 16.6219 221.259 16.1281 221.495V221.495Z" fill="white"/>
<path d="M33.5208 237.277C35.4437 232.059 35.3289 226.307 33.1994 221.169C32.988 220.66 33.7888 220.359 34 220.867C36.206 226.218 36.3133 232.204 34.3004 237.63C34.1082 238.147 33.3297 237.792 33.5208 237.277V237.277Z" fill="white"/>
<path d="M7.88145 197.978C8.92698 197.726 9.89373 197.219 10.6949 196.502C11.496 195.785 12.1065 194.879 12.4714 193.868C12.657 193.348 13.4353 193.705 13.2509 194.22C12.8426 195.336 12.1672 196.335 11.2838 197.13C10.4004 197.924 9.33592 198.49 8.18333 198.778C8.07696 198.815 7.96078 198.809 7.85839 198.763C7.756 198.716 7.67508 198.633 7.63209 198.529C7.59265 198.423 7.59672 198.305 7.64341 198.202C7.6901 198.099 7.77565 198.018 7.88145 197.978V197.978Z" fill="white"/>
<path d="M71.7656 171.66C71.6589 171.987 71.5523 172.315 71.4499 172.648C70.0389 177.059 68.9885 181.577 68.3092 186.158C68.251 186.511 68.1974 186.87 68.1495 187.225C66.6305 198.278 67.1769 209.518 69.761 220.372C70.7932 224.691 72.1525 228.924 73.8271 233.036C76.14 238.715 79.0996 244.688 79.3928 250.624C79.4304 251.243 79.4295 251.864 79.3903 252.483L54.7695 272.372C54.6909 272.389 54.6165 272.412 54.5376 272.43L53.5909 273.269C53.4897 273.063 53.3892 272.847 53.288 272.641C53.2288 272.522 53.1751 272.398 53.1159 272.279C53.0782 272.198 53.0407 272.116 53.0021 272.046C52.9894 272.019 52.977 271.992 52.9689 271.97C52.9302 271.899 52.9018 271.829 52.8677 271.764C52.3026 270.559 51.7449 269.348 51.1948 268.131C51.1902 268.125 51.1902 268.125 51.1912 268.115C47.0229 258.829 43.5932 249.114 41.7472 239.187C41.6917 238.889 41.6314 238.585 41.5872 238.277C40.78 233.798 40.3401 229.26 40.2721 224.709C40.2428 222.217 40.3398 219.725 40.5625 217.243C41.1504 210.83 42.7433 204.55 45.2828 198.633C50.3469 186.837 59.1273 176.792 70.8652 172.016C71.1655 171.894 71.4607 171.776 71.7656 171.66Z" fill="#E6E6E6"/>
<path d="M71.9626 172.017C61.6695 184.356 55.526 199.625 54.4047 215.655C54.1021 219.101 54.3446 222.574 55.1233 225.945C55.988 229.204 57.7097 232.172 60.1095 234.541C62.3028 236.795 64.8072 238.846 66.4144 241.594C67.2162 243.012 67.7091 244.584 67.8607 246.207C68.0123 247.829 67.8193 249.465 67.2942 251.008C66.0858 254.886 63.5562 258.098 60.9733 261.154C58.1054 264.546 55.0729 268.024 53.953 272.432C53.8173 272.966 52.9965 272.725 53.132 272.191C55.0805 264.522 62.3094 259.962 65.597 253.003C67.1311 249.756 67.6959 246.027 66.0451 242.709C64.6016 239.807 62.0208 237.69 59.7804 235.427C57.4054 233.15 55.624 230.327 54.5918 227.203C53.6439 223.883 53.268 220.425 53.4802 216.979C53.8341 209.212 55.407 201.549 58.1414 194.27C61.2159 185.946 65.6918 178.21 71.3753 171.395C71.7273 170.973 72.3122 171.598 71.9626 172.017V172.017Z" fill="white"/>
<path d="M54.462 210.472C51.7981 209.919 49.4176 208.436 47.7457 206.29C46.0737 204.144 45.2191 201.473 45.3345 198.755C45.3402 198.644 45.3888 198.54 45.4699 198.464C45.5509 198.388 45.6583 198.347 45.7692 198.349C45.8801 198.35 45.986 198.395 46.0646 198.474C46.1431 198.552 46.1882 198.658 46.1902 198.769C46.0781 201.3 46.8744 203.788 48.4354 205.783C49.9964 207.779 52.2193 209.15 54.7029 209.651C55.2425 209.76 54.9984 210.58 54.462 210.472V210.472Z" fill="white"/>
<path d="M58.847 233.545C63.5243 230.536 66.8956 225.874 68.2887 220.49C68.4262 219.956 69.2471 220.198 69.1096 220.731C67.6496 226.331 64.1314 231.175 59.2571 234.296C58.7923 234.593 58.3847 233.84 58.847 233.545V233.545Z" fill="white"/>
<path d="M62.0364 186.73C63.0225 187.158 64.0997 187.336 65.1712 187.245C66.2427 187.155 67.275 186.8 68.1754 186.212C68.6362 185.909 69.0433 186.662 68.5855 186.963C67.5877 187.608 66.4472 187.998 65.2635 188.101C64.0799 188.203 62.8892 188.014 61.7954 187.55C61.6886 187.515 61.5992 187.441 61.5454 187.342C61.4915 187.244 61.4772 187.128 61.5054 187.02C61.5379 186.911 61.6118 186.82 61.7113 186.765C61.8107 186.711 61.9275 186.698 62.0364 186.73V186.73Z" fill="white"/>
<path d="M199.241 66.928C214.213 66.928 226.349 54.7914 226.349 39.8202C226.349 24.8489 214.213 12.7123 199.241 12.7123C184.27 12.7123 172.133 24.8489 172.133 39.8202C172.133 54.7914 184.27 66.928 199.241 66.928Z" fill="#FF6584"/>
<path d="M282.24 38.4057C279.797 35.8253 277.219 33.3774 274.514 31.0725C269.234 26.5942 263.387 22.7862 256.87 20.3874C254.417 19.4814 251.882 18.814 249.3 18.3945C248.99 18.3444 248.684 18.2942 248.374 18.2532C248.351 18.2509 248.329 18.2509 248.306 18.2532C248.258 18.2397 248.209 18.2305 248.16 18.2258C247.526 18.1437 246.892 18.0799 246.254 18.0343C242.815 17.8057 239.362 18.1165 236.02 18.9555C234.081 19.4447 232.189 20.104 230.365 20.9256C228.538 21.8199 226.767 22.8235 225.061 23.9309C224.145 24.4874 223.201 24.9972 222.234 25.4586C219.409 26.7971 216.418 27.7541 213.341 28.3043C211.263 28.6771 209.159 28.8845 207.048 28.9245C205.214 28.961 203.486 29.0249 201.748 29.6861C199.894 30.3829 198.229 31.5038 196.885 32.9592C195.541 34.4146 194.556 36.1642 194.009 38.0682C193.966 38.2372 193.979 38.4157 194.044 38.5774C194.11 38.739 194.226 38.8754 194.374 38.9666C194.844 39.3041 195.3 39.6871 195.797 39.9881C196.236 40.1883 196.704 40.3161 197.183 40.3666C197.968 40.5308 198.754 40.6904 199.541 40.8455C202.437 41.4201 205.345 41.9293 208.265 42.3732C214.139 43.2625 220.046 43.8888 225.987 44.2521C226.023 44.2574 226.06 44.2604 226.097 44.2612C232.808 44.6663 239.536 44.7317 246.254 44.4573C247.271 44.4163 248.283 44.3661 249.3 44.3068C253.537 44.0697 257.763 43.6957 261.978 43.1849C265.877 42.7107 269.761 42.1224 273.63 41.4201C276.393 40.9184 279.146 40.359 281.889 39.7418C282.022 39.7024 282.143 39.6294 282.239 39.5296C282.336 39.4299 282.405 39.307 282.441 39.1727C282.476 39.0383 282.476 38.8972 282.441 38.7628C282.406 38.6285 282.336 38.5054 282.24 38.4057V38.4057Z" fill="#E6E6E6"/>
<path d="M225.896 74.5512C221.972 70.353 217.648 66.5469 212.986 63.1867C211.44 62.1013 209.848 61.0798 208.211 60.1449C206.204 58.9863 204.119 57.9669 201.972 57.094C201.493 56.8979 201.01 56.711 200.526 56.5331C197.78 55.5159 194.931 54.8003 192.03 54.3988C192.008 54.3943 191.985 54.3988 191.962 54.3943C191.916 54.3852 191.866 54.3761 191.821 54.3669C190.414 54.1846 188.997 54.0977 187.579 54.107C186.563 54.107 185.541 54.1617 184.529 54.262C182.893 54.4232 181.271 54.7036 179.676 55.1011C178.887 55.2973 178.103 55.5253 177.332 55.7852C176.208 56.1551 175.105 56.5844 174.026 57.0712C174.008 57.0804 173.994 57.0849 173.976 57.094C172.165 57.9798 170.411 58.9758 168.722 60.0765C168.686 60.0993 168.645 60.1221 168.608 60.1449C166.69 61.2922 164.661 62.2426 162.552 62.9815C160.741 63.6146 158.884 64.1056 156.997 64.4499C154.92 64.8237 152.815 65.0296 150.704 65.0656C148.871 65.1021 147.142 65.1659 145.409 65.8317C143.555 66.5283 141.888 67.6491 140.544 69.1045C139.199 70.5598 138.214 72.3095 137.666 74.2137C137.624 74.3828 137.636 74.5609 137.702 74.7224C137.767 74.8839 137.883 75.0203 138.031 75.1121C138.5 75.4495 138.961 75.8281 139.454 76.1291C139.892 76.3308 140.36 76.4587 140.84 76.5076C141.624 76.6717 142.409 76.8359 143.198 76.9909C146.093 77.5656 149.003 78.0733 151.926 78.5141C155.935 79.1207 159.96 79.6056 164.002 79.9689C165.918 80.1467 167.834 80.2927 169.753 80.4067C174.674 80.7031 179.599 80.8186 184.529 80.7533C185.546 80.7396 186.563 80.7168 187.58 80.6849C193.618 80.507 199.637 80.054 205.639 79.3259C212.328 78.5165 218.972 77.3674 225.545 75.8828C225.678 75.8438 225.798 75.7712 225.895 75.6719C225.992 75.5726 226.061 75.45 226.096 75.3161C226.132 75.1821 226.132 75.0413 226.097 74.9073C226.062 74.7733 225.992 74.6506 225.896 74.5512V74.5512Z" fill="#E6E6E6"/>
<path d="M158.327 1.79974L182.209 331.816L134.446 336.056V5.99849C140.137 1.55281 148.307 0.857274 158.327 1.79974Z" fill="#CCCCCC"/>
<path d="M276.21 1.79974L252.329 331.816L300.092 336.056V5.99849C294.4 1.55281 286.23 0.857274 276.21 1.79974Z" fill="#CCCCCC"/>
<path d="M301.215 6.14251C299.733 2.50867 296.582 -1.52588e-05 292.938 -1.52588e-05H141.09C136.024 -1.52588e-05 131.906 4.86125 131.906 10.8423V338.852C131.861 341.886 132.996 344.82 135.071 347.035C136.156 348.175 137.53 348.999 139.047 349.42C139.713 349.604 140.4 349.696 141.09 349.694H292.938C293.628 349.696 294.316 349.604 294.981 349.42C299.067 348.321 302.123 344.004 302.123 338.852V10.8423C302.127 9.23175 301.819 7.63569 301.215 6.14251V6.14251ZM299.076 338.852C299.076 342.846 296.322 346.098 292.938 346.098H141.09C138.286 346.098 135.91 343.864 135.185 340.822C135.03 340.177 134.952 339.516 134.952 338.852V10.8423C134.952 6.84776 137.706 3.60154 141.09 3.60154H292.938C293.561 3.60105 294.179 3.71227 294.762 3.92993C297.257 4.84513 299.076 7.59607 299.076 10.8423V338.852Z" fill="#CCCCCC"/>
<path d="M300.6 99.7036H133.43V102.752H300.6V99.7036Z" fill="#CCCCCC"/>
<path d="M300.6 36.7701H133.43V39.8188H300.6V36.7701Z" fill="#CCCCCC"/>
<path d="M300.6 150.515H133.43V153.564H300.6V150.515Z" fill="#CCCCCC"/>
<path d="M187.678 1.36811H184.629V193.704H187.678V1.36811Z" fill="#CCCCCC"/>
<path d="M249.4 1.36811H246.351V193.704H249.4V1.36811Z" fill="#CCCCCC"/>
<path d="M319.653 330.641H119.456C115.819 330.645 112.332 332.092 109.761 334.663C107.189 337.235 105.742 340.722 105.738 344.358C105.736 346.107 106.072 347.84 106.728 349.461C107.746 352.005 109.503 354.185 111.771 355.721C114.04 357.257 116.716 358.079 119.456 358.08H319.653C322.047 358.08 324.4 357.452 326.477 356.26C328.554 355.068 330.283 353.353 331.491 351.286C331.836 350.701 332.134 350.091 332.385 349.461C333.041 347.84 333.377 346.107 333.375 344.358C333.37 340.721 331.922 337.234 329.35 334.663C326.777 332.092 323.29 330.645 319.653 330.641Z" fill="#CCCCCC"/>
<path d="M300.6 186.591H134.446V196.753H300.6V186.591Z" fill="#CCCCCC"/>
<path d="M215.998 183.542H219.047C220.529 183.542 221.951 184.131 222.999 185.179C224.047 186.228 224.636 187.649 224.636 189.132V189.132H210.409C210.409 188.398 210.554 187.671 210.835 186.993C211.115 186.315 211.527 185.698 212.046 185.179C212.565 184.66 213.181 184.249 213.859 183.968C214.538 183.687 215.264 183.542 215.998 183.542V183.542Z" fill="#CCCCCC"/>
<path d="M220.454 215.251C237.844 215.251 251.942 201.153 251.942 183.763C251.942 166.372 237.844 152.274 220.454 152.274C203.063 152.274 188.965 166.372 188.965 183.763C188.965 201.153 203.063 215.251 220.454 215.251Z" fill="#FFB8B8"/>
<path d="M185.328 153.47C185.566 149.854 187.957 146.154 195.554 144.221C195.554 144.221 208.593 127.548 226.311 136.291C226.311 136.291 234.901 134.813 241.271 143.725C241.271 143.725 247.586 140.001 250.25 146.603C250.25 146.603 257.656 160.068 254.93 173.803C252.203 187.538 250.807 189.252 250.807 189.252C250.807 189.252 254.283 160.842 234.264 162.812C214.246 164.782 198.129 157.742 193.596 173.155C189.831 185.954 190.305 192.601 190.305 192.601C190.305 192.601 177.717 179.833 181.997 169.78C184.186 164.638 184.96 159.047 185.328 153.47Z" fill="#2F2E41"/>
<path d="M134.824 355.846H308.996C307.832 342.561 307.071 291.775 307.071 288.432C307.071 273.69 295.008 257.601 295.008 257.601L290.69 255.215L254.63 243.964L245.298 231.843C244.321 230.57 243.062 229.541 241.62 228.837C240.178 228.133 238.592 227.772 236.987 227.785L207.509 228.006C204.915 228.026 202.422 229.014 200.518 230.776L182.264 247.71L155.491 260.495L155.445 260.45L155.166 260.658L151.192 263.519L148.637 265.366C148.637 265.366 141.932 273.41 136.573 297.537C135.767 301.165 135.201 348.14 134.824 355.846Z" fill="#6C63FF"/>
<path d="M349.309 349.461C348.89 349.845 348.465 350.223 348.041 350.602C346.436 352.029 344.808 353.432 343.157 354.811C340.663 356.891 338.116 358.908 335.518 360.863H101.05C96.2753 357.278 91.6769 353.478 87.2549 349.461H349.309Z" fill="#CCCCCC"/>
<path d="M263.364 352.198H177.172L178.996 343.533H261.539L263.364 352.198Z" fill="#2F2E41"/>
<path d="M341.342 314.803H318.914C318.408 314.801 317.908 314.911 317.448 315.124C316.989 315.336 316.582 315.647 316.256 316.034C315.943 315.974 315.625 315.943 315.307 315.943C314.608 315.942 313.916 316.079 313.27 316.346C312.624 316.613 312.037 317.005 311.542 317.499C311.047 317.993 310.655 318.58 310.387 319.226C310.12 319.871 309.982 320.564 309.982 321.263C309.982 321.962 310.12 322.654 310.387 323.3C310.655 323.945 311.047 324.532 311.542 325.026C312.037 325.52 312.624 325.912 313.27 326.179C313.916 326.446 314.608 326.583 315.307 326.582C316.11 326.582 316.903 326.398 317.624 326.044L317.998 330.641L319.484 348.809C319.555 349.036 319.65 349.255 319.767 349.461C320.068 350.013 320.511 350.474 321.051 350.795C321.591 351.116 322.208 351.285 322.836 351.286H337.421C338.049 351.285 338.666 351.115 339.207 350.794C339.748 350.473 340.192 350.013 340.494 349.461C340.608 349.254 340.701 349.035 340.772 348.809L344.694 319.34C344.856 318.816 344.892 318.261 344.799 317.72C344.707 317.179 344.489 316.667 344.163 316.226C343.837 315.785 343.412 315.426 342.922 315.179C342.432 314.932 341.891 314.803 341.342 314.803ZM315.307 325.064C314.3 325.063 313.334 324.662 312.622 323.949C311.91 323.236 311.51 322.27 311.51 321.263C311.51 320.255 311.91 319.289 312.622 318.576C313.334 317.864 314.3 317.463 315.307 317.462C315.375 317.462 315.439 317.48 315.508 317.484C315.358 318.097 315.376 318.738 315.562 319.34L317.168 324.557C316.602 324.886 315.961 325.061 315.307 325.064V325.064Z" fill="#3F3D56"/>
<path d="M290.685 218.382H148.711C147.491 218.384 146.322 218.87 145.459 219.732C144.597 220.595 144.111 221.764 144.109 222.984V318.789C144.11 320.009 144.596 321.178 145.458 322.041C146.321 322.904 147.491 323.389 148.711 323.39H290.685C291.905 323.389 293.075 322.904 293.938 322.041C294.8 321.178 295.286 320.009 295.287 318.789V222.984C295.285 221.764 294.799 220.595 293.937 219.732C293.074 218.87 291.905 218.384 290.685 218.382Z" fill="#3F3D56"/>
<path d="M235.687 295.148H202.473C202.003 295.148 201.553 295.336 201.221 295.668C200.889 296.001 200.703 296.452 200.704 296.922V349.388H237.461V296.922C237.461 296.689 237.415 296.458 237.326 296.243C237.237 296.027 237.106 295.832 236.942 295.667C236.777 295.502 236.581 295.371 236.366 295.282C236.151 295.193 235.92 295.147 235.687 295.148V295.148ZM219.192 324.959C218.153 324.954 217.158 324.539 216.424 323.804C215.689 323.07 215.274 322.075 215.27 321.037V314.985C215.271 313.946 215.685 312.949 216.42 312.215C217.155 311.48 218.152 311.068 219.192 311.068C220.231 311.068 221.228 311.48 221.963 312.215C222.699 312.949 223.112 313.946 223.114 314.985V321.037C223.109 322.075 222.694 323.07 221.96 323.804C221.225 324.539 220.23 324.954 219.192 324.959V324.959Z" fill="#2F2E41"/>
<path d="M200.59 347.711V352.773C200.591 353.036 200.695 353.287 200.88 353.473C201.066 353.658 201.317 353.763 201.58 353.763H236.585C236.847 353.762 237.098 353.657 237.283 353.472C237.469 353.286 237.573 353.035 237.575 352.773V347.711H200.59Z" fill="#3F3D56"/>
<path d="M287.666 317.787C288.904 317.787 289.907 316.783 289.907 315.545C289.907 314.308 288.904 313.304 287.666 313.304C286.428 313.304 285.425 314.308 285.425 315.545C285.425 316.783 286.428 317.787 287.666 317.787Z" fill="#2F2E41"/>
<path d="M166.633 312.295C166.53 312.295 166.428 312.315 166.333 312.354C166.238 312.394 166.151 312.452 166.079 312.524C166.006 312.597 165.948 312.684 165.909 312.779C165.869 312.874 165.849 312.976 165.849 313.079V317.115C165.849 317.323 165.932 317.521 166.079 317.668C166.226 317.815 166.426 317.897 166.633 317.897C166.841 317.897 167.04 317.815 167.187 317.668C167.334 317.521 167.417 317.323 167.418 317.115V313.079C167.418 312.976 167.397 312.874 167.358 312.779C167.318 312.684 167.261 312.597 167.188 312.524C167.115 312.452 167.029 312.394 166.933 312.354C166.838 312.315 166.736 312.295 166.633 312.295V312.295Z" fill="#2F2E41"/>
<path d="M170.893 312.295C170.79 312.295 170.688 312.315 170.592 312.354C170.497 312.394 170.411 312.452 170.338 312.524C170.265 312.597 170.207 312.684 170.168 312.779C170.129 312.874 170.108 312.976 170.108 313.079V317.115C170.108 317.323 170.191 317.522 170.338 317.67C170.485 317.817 170.685 317.899 170.893 317.899C171.101 317.899 171.3 317.817 171.447 317.67C171.595 317.522 171.677 317.323 171.677 317.115V313.079C171.677 312.976 171.657 312.874 171.617 312.779C171.578 312.684 171.52 312.597 171.447 312.524C171.375 312.452 171.288 312.394 171.193 312.354C171.098 312.315 170.996 312.295 170.893 312.295V312.295Z" fill="#2F2E41"/>
<path d="M175.152 312.295C175.049 312.295 174.947 312.315 174.852 312.354C174.757 312.394 174.67 312.452 174.598 312.524C174.525 312.597 174.467 312.684 174.428 312.779C174.388 312.874 174.368 312.976 174.368 313.079V317.115C174.368 317.323 174.451 317.521 174.598 317.668C174.745 317.815 174.944 317.897 175.152 317.897C175.36 317.897 175.559 317.815 175.706 317.668C175.853 317.521 175.936 317.323 175.936 317.115V313.079C175.936 312.976 175.916 312.874 175.877 312.779C175.837 312.684 175.779 312.597 175.707 312.524C175.634 312.452 175.547 312.394 175.452 312.354C175.357 312.315 175.255 312.295 175.152 312.295Z" fill="#2F2E41"/>
<path d="M179.411 312.295C179.308 312.295 179.206 312.315 179.111 312.354C179.016 312.394 178.929 312.452 178.857 312.524C178.784 312.597 178.726 312.684 178.687 312.779C178.647 312.874 178.627 312.976 178.627 313.079V317.115C178.627 317.323 178.71 317.521 178.857 317.668C179.004 317.815 179.204 317.897 179.411 317.897C179.619 317.897 179.818 317.815 179.965 317.668C180.112 317.521 180.195 317.323 180.196 317.115V313.079C180.196 312.976 180.175 312.874 180.136 312.779C180.097 312.684 180.039 312.597 179.966 312.524C179.893 312.452 179.807 312.394 179.712 312.354C179.616 312.315 179.514 312.295 179.411 312.295V312.295Z" fill="#2F2E41"/>
<path d="M182.81 349.918C189.358 349.918 194.667 344.61 194.667 338.061C194.667 331.513 189.358 326.204 182.81 326.204C176.261 326.204 170.953 331.513 170.953 338.061C170.953 344.61 176.261 349.918 182.81 349.918Z" fill="#FFB8B8"/>
<path d="M265.644 352.198C272.193 352.198 277.501 346.889 277.501 340.341C277.501 333.792 272.193 328.484 265.644 328.484C259.096 328.484 253.787 333.792 253.787 340.341C253.787 346.889 259.096 352.198 265.644 352.198Z" fill="#FFB8B8"/>
<path d="M388.03 197.223C386.858 195.285 385.47 193.216 383.295 192.583C380.777 191.851 378.191 193.306 375.997 194.743C369.435 199.039 363.116 203.695 357.069 208.689L357.075 208.764C361.783 208.439 365.691 220.958 370.399 220.633C373.801 220.398 378.12 207.288 381.126 205.679C382.266 205.068 383.378 204.253 384.671 204.196C386.277 204.125 387.677 205.247 388.778 206.419C395.287 213.35 397.171 223.95 404.474 230.04C399.869 218.684 394.37 207.71 388.03 197.223V197.223Z" fill="#3F3D56"/>
<path d="M400.56 214.059C403.994 220.261 407.637 226.34 411.487 232.296V232.301C411.464 232.51 411.432 232.72 411.4 232.93C410.935 232.219 410.475 231.504 410.019 230.787C406.562 225.364 403.277 219.839 400.163 214.21C398.686 211.533 397.245 208.834 395.84 206.115C394.755 204.008 393.692 201.889 392.652 199.758C392.356 199.147 392.069 198.535 391.781 197.92C391.106 196.479 390.441 195.028 389.729 193.606C388.917 191.982 387.928 190.286 386.436 189.196C385.758 188.679 384.947 188.366 384.097 188.293C382.9 188.3 381.728 188.636 380.709 189.264C372.994 193.319 365.793 198.284 359.261 204.054C352.72 209.8 346.874 216.291 341.84 223.394C341.685 223.613 341.32 223.403 341.475 223.18C342.091 222.313 342.711 221.461 343.349 220.612C351.262 210.09 360.964 201.041 372.012 193.879C373.868 192.675 375.76 191.528 377.689 190.436C378.661 189.884 379.637 189.342 380.631 188.831C381.583 188.273 382.65 187.942 383.75 187.864C387.536 187.805 389.497 192.092 390.842 194.974C391.261 195.881 391.689 196.787 392.123 197.692C393.76 201.112 395.462 204.505 397.226 207.871C398.312 209.946 399.423 212.008 400.56 214.059Z" fill="#3F3D56"/>
<path d="M358.888 201.936C358.668 201.691 358.449 201.446 358.228 201.201C356.483 199.271 354.611 197.364 352.214 196.257C351.072 195.713 349.824 195.424 348.559 195.41C347.253 195.446 345.966 195.727 344.764 196.238C344.192 196.466 343.633 196.725 343.083 197.001C342.454 197.317 341.836 197.655 341.222 197.995C340.068 198.634 338.928 199.301 337.804 199.995C335.568 201.378 333.401 202.865 331.304 204.459C330.218 205.285 329.153 206.138 328.111 207.019C327.142 207.837 326.193 208.677 325.263 209.538C325.064 209.722 324.767 209.425 324.966 209.242C325.211 209.013 325.459 208.786 325.707 208.562C326.407 207.929 327.118 207.308 327.841 206.7C329.159 205.588 330.511 204.519 331.897 203.492C334.052 201.896 336.282 200.407 338.586 199.028C339.737 198.338 340.904 197.678 342.087 197.047C342.444 196.857 342.806 196.67 343.171 196.494C344.001 196.076 344.862 195.725 345.748 195.445C347.003 195.039 348.33 194.909 349.64 195.063C350.905 195.247 352.123 195.668 353.231 196.305C355.584 197.62 357.409 199.654 359.185 201.638C359.364 201.84 359.068 202.138 358.888 201.936Z" fill="#3F3D56"/>
<path d="M341.67 211.222C341.072 211.252 340.481 211.082 339.99 210.741C338.687 209.754 338.722 207.385 340.094 203.497C340.467 202.443 341.053 201.478 341.814 200.659C342.575 199.841 343.496 199.188 344.52 198.739C345.479 198.31 346.517 198.086 347.568 198.079C348.618 198.073 349.659 198.285 350.623 198.703C350.791 198.776 350.957 198.854 351.121 198.938C352.237 199.563 353.283 200.306 354.241 201.153C355.056 201.859 355.925 202.501 356.84 203.072L357.146 203.251L356.856 203.455C349.469 208.656 344.461 211.222 341.67 211.222Z" fill="#3F3D56"/>
<path d="M370.078 180.271C367.649 180.271 365.295 179.427 363.418 177.885C361.541 176.343 360.258 174.197 359.787 171.814C357.756 172.225 355.892 173.229 354.431 174.698C352.969 176.168 351.976 178.037 351.576 180.07C351.176 182.104 351.388 184.21 352.184 186.123C352.98 188.037 354.325 189.671 356.049 190.821C357.774 191.971 359.8 192.584 361.872 192.583C363.945 192.582 365.97 191.968 367.694 190.817C369.417 189.666 370.761 188.031 371.556 186.117C372.351 184.203 372.561 182.097 372.16 180.064C371.475 180.202 370.777 180.271 370.078 180.271V180.271Z" fill="#3F3D56"/>
<path opacity="0.74" d="M89.3036 197.145C97.9482 197.145 104.956 190.137 104.956 181.492C104.956 172.848 97.9482 165.84 89.3036 165.84C80.6589 165.84 73.6511 172.848 73.6511 181.492C73.6511 190.137 80.6589 197.145 89.3036 197.145Z" fill="#3F3D56"/>
<path opacity="0.74" d="M104.956 197.145C113.601 197.145 120.609 190.137 120.609 181.492C120.609 172.848 113.601 165.84 104.956 165.84C96.3114 165.84 89.3036 172.848 89.3036 181.492C89.3036 190.137 96.3114 197.145 104.956 197.145Z" fill="#6C63FF"/>
<path opacity="0.74" d="M97.2622 184.67C105.907 184.67 112.915 177.662 112.915 169.017C112.915 160.373 105.907 153.365 97.2622 153.365C88.6176 153.365 81.6097 160.373 81.6097 169.017C81.6097 177.662 88.6176 184.67 97.2622 184.67Z" fill="#FF6584"/>
<path d="M138.191 164.532L97.9865 177.163L98.2598 178.033L138.465 165.402L138.191 164.532Z" fill="#3F3D56"/>
<path d="M138.448 166.645C139.455 166.645 140.272 165.829 140.272 164.821C140.272 163.814 139.455 162.997 138.448 162.997C137.44 162.997 136.623 163.814 136.623 164.821C136.623 165.829 137.44 166.645 138.448 166.645Z" fill="#3F3D56"/>
<path d="M399.455 246.903C402.127 248.786 404.695 250.706 407.632 252.157C407.577 252.38 407.518 252.608 407.463 252.831C407.103 252.663 406.751 252.485 406.4 252.302C403.422 250.743 400.859 248.622 398.064 246.78C396.678 245.822 395.164 245.064 393.567 244.527C391.903 244.027 390.163 243.823 388.428 243.925C381.19 244.281 374.988 248.599 368.262 250.775C364.969 251.842 361.467 252.412 358.033 251.742C354.599 251.071 351.548 249.247 348.515 247.596C345.524 245.964 342.263 244.322 338.77 244.322C335.924 244.327 332.933 245.467 331.409 247.984C331.362 248.059 331.287 248.113 331.201 248.134C331.115 248.155 331.023 248.141 330.947 248.096C330.87 248.051 330.814 247.978 330.791 247.892C330.767 247.807 330.778 247.715 330.821 247.637C331.162 247.064 331.581 246.54 332.066 246.082C334.054 244.199 336.978 243.455 339.664 243.674C343.139 243.957 346.308 245.599 349.313 247.25C352.501 249.001 355.766 250.884 359.451 251.267C363.09 251.65 366.693 250.697 370.068 249.416C376.603 246.93 383.051 242.79 390.32 243.25C393.75 243.469 396.687 244.956 399.455 246.903Z" fill="#3F3D56"/>
<path d="M113.409 115.012V115.938C113.102 115.877 112.791 115.847 112.478 115.847H107.708V126.089C107.707 127.606 107.104 129.06 106.032 130.132C104.96 131.204 103.506 131.807 101.989 131.808H94.9391V133.386C94.939 134.018 95.0646 134.645 95.3084 135.228H94.3325C94.1286 134.635 94.0253 134.013 94.027 133.386V131.808H90.1506V130.896H94.027V120.653C94.0278 119.137 94.6306 117.683 95.7029 116.61C96.7752 115.538 98.2293 114.935 99.7457 114.934H106.796V113.338H107.708V114.934H112.478C112.79 114.935 113.101 114.961 113.409 115.012V115.012Z" fill="#6C63FF"/>
<path d="M101.989 107.638H89.2567C87.7403 107.639 86.2862 108.241 85.2139 109.314C84.1417 110.386 83.5389 111.84 83.538 113.357V126.089C83.5389 127.606 84.1417 129.06 85.2139 130.132C86.2862 131.204 87.7403 131.807 89.2567 131.808H101.989C103.506 131.807 104.96 131.204 106.032 130.132C107.104 129.06 107.707 127.606 107.708 126.089V113.338C107.703 111.825 107.098 110.375 106.026 109.307C104.954 108.239 103.503 107.638 101.989 107.638V107.638ZM106.796 126.089C106.794 127.364 106.287 128.585 105.386 129.486C104.485 130.387 103.264 130.894 101.989 130.896H89.2567C87.9825 130.894 86.7609 130.387 85.8598 129.486C84.9588 128.585 84.4518 127.364 84.4501 126.089V113.357C84.4518 112.082 84.9588 110.861 85.8598 109.96C86.7609 109.059 87.9825 108.552 89.2567 108.55H101.989C103.261 108.551 104.48 109.056 105.38 109.953C106.281 110.85 106.79 112.067 106.796 113.338V126.089Z" fill="#3F3D56"/>
<path d="M94.027 130.896V131.808H94.9391V130.896H94.027ZM94.027 130.896V131.808H94.9391V130.896H94.027ZM113.409 115.012C113.101 114.961 112.79 114.935 112.478 114.935H99.7457C98.2293 114.935 96.7752 115.538 95.7029 116.61C94.6306 117.683 94.0278 119.137 94.027 120.653V133.386C94.0253 134.013 94.1286 134.635 94.3325 135.228C94.7175 136.358 95.4464 137.34 96.4171 138.035C97.3878 138.73 98.5517 139.104 99.7457 139.105H112.478C113.995 139.104 115.449 138.501 116.521 137.429C117.593 136.356 118.196 134.902 118.197 133.386V120.653C118.197 119.298 117.715 117.987 116.838 116.954C115.961 115.921 114.746 115.233 113.409 115.012V115.012ZM117.285 133.386C117.283 134.66 116.776 135.882 115.875 136.783C114.974 137.684 113.753 138.191 112.478 138.192H99.7457C98.4715 138.191 97.2499 137.684 96.3489 136.783C95.4479 135.882 94.9409 134.66 94.9391 133.386V120.653C94.9408 119.379 95.4477 118.157 96.3488 117.256C97.2498 116.355 98.4714 115.848 99.7457 115.847H112.478C113.753 115.847 114.975 116.354 115.877 117.255C116.778 118.156 117.284 119.379 117.285 120.653V133.386ZM94.027 130.896V131.808H94.9391V130.896H94.027Z" fill="#3F3D56"/>
<path d="M85.0203 249.781H30.9338C30.5573 249.781 30.1962 249.93 29.9295 250.196C29.6629 250.462 29.5124 250.822 29.5109 251.199V254.405C31.2953 261.239 33.4557 267.97 35.9822 274.566H85.0203C85.2066 274.567 85.3911 274.53 85.5633 274.459C85.7354 274.388 85.8918 274.283 86.0236 274.151C86.1553 274.02 86.2598 273.863 86.331 273.691C86.4022 273.519 86.4387 273.334 86.4386 273.148V251.199C86.4382 250.823 86.2886 250.462 86.0227 250.196C85.7568 249.931 85.3963 249.781 85.0203 249.781V249.781Z" fill="#6C63FF"/>
<path d="M79.8669 281.685H38.8688C39.3568 282.83 39.8539 283.965 40.3692 285.096H79.8669C82.0924 285.128 82.0696 281.653 79.8669 281.685Z" fill="#E4E4E4"/>
<path d="M79.8669 289.502H42.426C42.9732 290.646 43.5356 291.783 44.1133 292.913H79.8669C82.0924 292.945 82.0696 289.475 79.8669 289.502Z" fill="#E4E4E4"/>
<path d="M79.8669 297.323H46.4164C47.0275 298.468 47.6568 299.603 48.2953 300.734H79.8669C82.0924 300.766 82.0696 297.291 79.8669 297.323Z" fill="#E4E4E4"/>
<path d="M360.264 87.1044H360.005C360.813 87.1052 361.611 87.2938 362.334 87.6555H361.152C359.878 87.657 358.656 88.1638 357.755 89.0649C356.854 89.966 356.347 91.1877 356.346 92.462V105.195C356.347 106.469 356.854 107.691 357.755 108.592C358.656 109.493 359.878 110 361.152 110.002H361.906C361.3 110.239 360.655 110.362 360.005 110.363H360.264C361.659 110.361 362.997 109.806 363.983 108.819C364.97 107.833 365.525 106.495 365.526 105.1V92.3669C365.525 90.9717 364.97 89.6341 363.983 88.6476C362.997 87.661 361.659 87.1061 360.264 87.1044V87.1044Z" fill="#3F3D56"/>
<path opacity="0.21" d="M360.264 87.1044H360.005C360.813 87.1052 361.611 87.2938 362.334 87.6555H361.152C359.878 87.657 358.656 88.1638 357.755 89.0649C356.854 89.966 356.347 91.1877 356.346 92.462V105.195C356.347 106.469 356.854 107.691 357.755 108.592C358.656 109.493 359.878 110 361.152 110.002H361.906C361.3 110.239 360.655 110.362 360.005 110.363H360.264C361.659 110.361 362.997 109.806 363.983 108.819C364.97 107.833 365.525 106.495 365.526 105.1V92.3669C365.525 90.9717 364.97 89.6341 363.983 88.6476C362.997 87.661 361.659 87.1061 360.264 87.1044V87.1044Z" fill="black"/>
<path d="M326.517 87.1044H326.257C327.066 87.1052 327.864 87.2938 328.587 87.6555H327.404C326.13 87.657 324.908 88.1638 324.007 89.0649C323.106 89.966 322.599 91.1877 322.598 92.462V105.195C322.599 106.469 323.106 107.691 324.007 108.592C324.908 109.493 326.13 110 327.404 110.002H328.158C327.553 110.239 326.908 110.362 326.257 110.363H326.517C327.912 110.361 329.25 109.806 330.236 108.819C331.223 107.833 331.778 106.495 331.779 105.1V92.3669C331.778 90.9717 331.223 89.6341 330.236 88.6476C329.25 87.661 327.912 87.1061 326.517 87.1044V87.1044Z" fill="#6C63FF"/>
<path opacity="0.21" d="M326.517 87.1044H326.257C327.066 87.1052 327.864 87.2938 328.587 87.6555H327.404C326.13 87.657 324.908 88.1638 324.007 89.0649C323.106 89.966 322.599 91.1877 322.598 92.462V105.195C322.599 106.469 323.106 107.691 324.007 108.592C324.908 109.493 326.13 110 327.404 110.002H328.158C327.553 110.239 326.908 110.362 326.257 110.363H326.517C327.912 110.361 329.25 109.806 330.236 108.819C331.223 107.833 331.778 106.495 331.779 105.1V92.3669C331.778 90.9717 331.223 89.6341 330.236 88.6476C329.25 87.661 327.912 87.1061 326.517 87.1044V87.1044Z" fill="black"/>
<path d="M327.456 110.041C326.182 110.04 324.96 109.533 324.059 108.632C323.158 107.731 322.651 106.509 322.65 105.235V92.5016C322.651 91.2273 323.158 90.0056 324.059 89.1045C324.96 88.2034 326.182 87.6966 327.456 87.6951H328.639C327.915 87.3335 327.118 87.1448 326.309 87.1441H313.575C312.18 87.1457 310.843 87.7006 309.856 88.6872C308.869 89.6738 308.314 91.0114 308.313 92.4066V105.14C308.314 106.535 308.869 107.872 309.856 108.859C310.843 109.846 312.18 110.401 313.575 110.402H326.309C326.959 110.401 327.604 110.279 328.21 110.041L327.456 110.041Z" fill="#6C63FF"/>
<path d="M361.203 110.041C359.929 110.04 358.707 109.533 357.806 108.632C356.905 107.731 356.398 106.509 356.396 105.235V92.5016C356.398 91.2273 356.905 90.0056 357.806 89.1045C358.707 88.2034 359.929 87.6966 361.203 87.6951H362.386C361.662 87.3335 360.865 87.1448 360.056 87.1441H347.322C345.927 87.1457 344.589 87.7006 343.602 88.6872C342.616 89.6738 342.061 91.0114 342.059 92.4066V105.14C342.061 106.535 342.616 107.872 343.602 108.859C344.589 109.846 345.927 110.401 347.322 110.402H360.056C360.707 110.401 361.351 110.279 361.957 110.041L361.203 110.041Z" fill="#3F3D56"/>
<path d="M376.238 90.3128C380.911 96.7416 385.186 103.45 389.039 110.401H381.068C379.672 110.399 378.335 109.844 377.348 108.858C376.362 107.871 375.807 106.534 375.805 105.139V92.4061C375.804 91.686 375.952 90.9735 376.238 90.3128V90.3128Z" fill="#FF6584"/>
<path d="M360.254 117.082L355.794 110.401L352.533 105.517C352.343 105.232 352.076 105.006 351.763 104.867C351.449 104.727 351.103 104.679 350.764 104.728C350.424 104.777 350.106 104.922 349.845 105.145C349.584 105.367 349.392 105.659 349.291 105.987L347.918 110.401L345.154 119.271C345.045 119.625 345.047 120.003 345.158 120.356C345.269 120.708 345.486 121.019 345.778 121.245C346.071 121.472 346.425 121.604 346.794 121.623C347.164 121.643 347.53 121.55 347.845 121.356L348.826 120.749C349.023 120.627 349.248 120.558 349.48 120.548C349.711 120.537 349.942 120.587 350.149 120.69C350.356 120.794 350.534 120.949 350.665 121.14C350.795 121.332 350.875 121.553 350.896 121.784L351.794 131.589C351.837 132.039 352.045 132.458 352.379 132.763C352.713 133.068 353.148 133.238 353.6 133.24C353.655 133.24 353.71 133.235 353.769 133.231L355.146 133.108C355.384 133.086 355.615 133.018 355.826 132.907C356.037 132.796 356.224 132.644 356.377 132.461C356.53 132.278 356.644 132.066 356.715 131.838C356.785 131.61 356.81 131.371 356.788 131.133L355.862 121.009C355.84 120.771 355.882 120.532 355.982 120.315C356.082 120.098 356.237 119.911 356.432 119.773C356.627 119.636 356.855 119.552 357.093 119.53C357.331 119.508 357.57 119.55 357.787 119.65L357.988 119.741C358.347 119.907 358.75 119.95 359.137 119.865C359.523 119.78 359.871 119.571 360.128 119.27C360.384 118.969 360.535 118.592 360.558 118.198C360.581 117.803 360.474 117.411 360.254 117.082V117.082Z" fill="#CCCCCC"/>
</g>
<defs>
<clipPath id="clip0_25_88">
<rect width="411.577" height="400" fill="white"/>
</clipPath>
</defs>
</svg>
