<svg width="650" height="345" viewBox="0 0 650 345" fill="none" xmlns="http://www.w3.org/2000/svg">
<g clip-path="url(#clip0_25_265)">
<path d="M650 61.3043V133.717L648.776 131.894L560.951 1.22413L560.125 0H608.796L609.616 1.22413L648.776 59.4803L650 61.3043Z" fill="#6C63FF"/>
<path d="M342.842 -0.000147837C297.81 -0.0577248 253.212 8.78378 211.608 26.0163C170.005 43.2488 132.217 68.5327 100.415 100.415C94.9617 105.868 89.7184 111.473 84.6852 117.228C74.347 129.013 64.8353 141.499 56.2181 154.595C53.7331 158.371 51.3256 162.197 48.9957 166.071C40.629 179.972 33.2596 194.449 26.943 209.393C26.2514 211.021 25.5761 212.655 24.9171 214.295C21.2508 223.336 17.9885 232.494 15.1302 241.771C7.78899 265.559 3.0886 290.083 1.1139 314.9C0.373298 324.149 0.00197918 333.462 -6.10352e-05 342.841V343.453H650V-0.000147837H342.842ZM648.776 342.229H1.2241C1.23635 333.905 1.54646 325.656 2.15444 317.483C3.99173 292.45 8.60229 267.697 15.9014 243.681C18.7536 234.292 21.9935 225.08 25.621 216.046C32.333 199.312 40.3662 183.14 49.6445 167.681C51.9642 163.794 54.3696 159.959 56.8607 156.174C65.459 143.034 74.9521 130.502 85.2728 118.667C147.948 46.7492 240.18 1.22398 342.842 1.22398H648.776V342.229Z" fill="#3F3D56"/>
<path d="M303.334 294.319C311.589 319.162 308.69 342.489 308.69 342.489C308.69 342.489 292.407 325.536 284.152 300.692C275.897 275.849 278.797 252.522 278.797 252.522C278.797 252.522 295.08 269.475 303.334 294.319Z" fill="#6C63FF"/>
<path d="M314.046 294.319C305.791 319.162 308.69 342.489 308.69 342.489C308.69 342.489 324.973 325.536 333.228 300.692C341.483 275.849 338.584 252.522 338.584 252.522C338.584 252.522 322.301 269.475 314.046 294.319Z" fill="#6C63FF"/>
<path d="M317.371 294.587C317.924 320.761 308.268 342.192 308.268 342.192C308.268 342.192 297.715 321.188 297.162 295.015C296.608 268.841 306.265 247.41 306.265 247.41C306.265 247.41 316.818 268.414 317.371 294.587Z" fill="#3F3D56"/>
<path d="M308.263 343.769C321.156 343.769 331.608 343.195 331.608 342.488C331.608 341.78 321.156 341.207 308.263 341.207C295.37 341.207 284.918 341.78 284.918 342.488C284.918 343.195 295.37 343.769 308.263 343.769Z" fill="#3F3D56"/>
<path d="M85.6951 342.885C93.0105 342.885 98.9409 336.955 98.9409 329.64C98.9409 322.325 93.0105 316.394 85.6951 316.394C78.3796 316.394 72.4492 322.325 72.4492 329.64C72.4492 336.955 78.3796 342.885 85.6951 342.885Z" fill="#F2F2F2"/>
<path d="M88.125 308.211C83.3762 308.217 78.8239 310.107 75.4666 313.465C72.1092 316.824 70.221 321.377 70.2161 326.126C70.2161 326.224 70.2161 326.322 70.2222 326.42C70.2805 329.726 71.251 332.952 73.0266 335.742C74.8022 338.531 77.3138 340.776 80.2845 342.229C81.3359 342.747 82.4371 343.157 83.5713 343.453C86.5587 344.237 89.6976 344.237 92.6849 343.453C93.8191 343.157 94.9203 342.747 95.9717 342.229C99.6139 340.455 102.547 337.498 104.292 333.842C106.038 330.186 106.492 326.046 105.582 322.098C104.671 318.151 102.449 314.628 99.2788 312.106C96.1083 309.583 92.1765 308.21 88.125 308.211ZM92.5074 342.229C91.0798 342.622 89.6056 342.819 88.125 342.817C87.8313 342.817 87.5375 342.811 87.2498 342.792H87.2437C86.0615 342.734 84.8895 342.545 83.7488 342.229C81.3372 341.569 79.1042 340.376 77.2137 338.74C75.3231 337.104 73.823 335.065 72.8235 332.773V332.767C71.4699 329.645 71.1028 326.185 71.7715 322.849C72.4402 319.513 74.1127 316.461 76.5648 314.103C79.0169 311.744 82.1313 310.192 85.4907 309.654C88.85 309.115 92.2937 309.617 95.36 311.091C98.4263 312.565 100.969 314.941 102.646 317.901C104.324 320.86 105.057 324.262 104.746 327.65C104.436 331.038 103.097 334.251 100.91 336.856C98.7223 339.462 95.7905 341.337 92.5074 342.229V342.229Z" fill="#3F3D56"/>
<path d="M238.699 239.637H139.545V257.244H238.699V239.637Z" fill="#F2F2F2"/>
<path d="M547.791 74.9923H448.637V92.5991H547.791V74.9923Z" fill="#F2F2F2"/>
<path d="M547.791 113.552H448.637V131.159H547.791V113.552Z" fill="#F2F2F2"/>
<path d="M547.791 150.888H448.637V168.495H547.791V150.888Z" fill="#F2F2F2"/>
<path d="M547.791 188.224H448.637V205.831H547.791V188.224Z" fill="#F2F2F2"/>
<path d="M547.791 226.784H448.637V244.391H547.791V226.784Z" fill="#F2F2F2"/>
<path d="M547.791 265.344H448.637V282.951H547.791V265.344Z" fill="#F2F2F2"/>
<path d="M138.932 233.374V257.856H271.138V233.374H138.932ZM269.914 256.632H140.157V234.598H269.914V256.632Z" fill="#3F3D56"/>
<path d="M359.276 101.78C362.656 101.78 365.396 99.0397 365.396 95.6594C365.396 92.2791 362.656 89.5388 359.276 89.5388C355.895 89.5388 353.155 92.2791 353.155 95.6594C353.155 99.0397 355.895 101.78 359.276 101.78Z" fill="#3F3D56"/>
<path d="M359.276 139.728C362.656 139.728 365.396 136.988 365.396 133.607C365.396 130.227 362.656 127.487 359.276 127.487C355.895 127.487 353.155 130.227 353.155 133.607C353.155 136.988 355.895 139.728 359.276 139.728Z" fill="#3F3D56"/>
<path d="M359.276 177.676C362.656 177.676 365.396 174.936 365.396 171.555C365.396 168.175 362.656 165.435 359.276 165.435C355.895 165.435 353.155 168.175 353.155 171.555C353.155 174.936 355.895 177.676 359.276 177.676Z" fill="#3F3D56"/>
<path d="M359.276 215.624C362.656 215.624 365.396 212.883 365.396 209.503C365.396 206.123 362.656 203.383 359.276 203.383C355.895 203.383 353.155 206.123 353.155 209.503C353.155 212.883 355.895 215.624 359.276 215.624Z" fill="#3F3D56"/>
<path d="M359.276 253.572C362.656 253.572 365.396 250.832 365.396 247.451C365.396 244.071 362.656 241.331 359.276 241.331C355.895 241.331 353.155 244.071 353.155 247.451C353.155 250.832 355.895 253.572 359.276 253.572Z" fill="#3F3D56"/>
<path d="M359.276 291.52C362.656 291.52 365.396 288.779 365.396 285.399C365.396 282.019 362.656 279.278 359.276 279.278C355.895 279.278 353.155 282.019 353.155 285.399C353.155 288.779 355.895 291.52 359.276 291.52Z" fill="#3F3D56"/>
<path d="M582.067 95.0473H414.361V96.2715H582.067V95.0473Z" fill="#3F3D56"/>
<path d="M582.067 132.995H414.361V134.219H582.067V132.995Z" fill="#3F3D56"/>
<path d="M582.067 170.943H414.361V172.167H582.067V170.943Z" fill="#3F3D56"/>
<path d="M582.067 208.891H414.361V210.115H582.067V208.891Z" fill="#3F3D56"/>
<path d="M582.067 246.839H414.361V248.063H582.067V246.839Z" fill="#3F3D56"/>
<path d="M582.067 284.787H414.361V286.011H582.067V284.787Z" fill="#3F3D56"/>
<path d="M612.278 320.241L596.19 307.042L609.389 290.953L625.477 304.153L612.278 320.241ZM597.913 306.872L612.109 318.519L623.755 304.322L609.559 292.676L597.913 306.872Z" fill="#3F3D56"/>
<path d="M379.179 32.4811L364.036 20.0585L351.614 35.2009L366.756 47.6235L379.179 32.4811Z" fill="#6C63FF"/>
<path d="M286.44 133.607C286.468 150.872 280.978 167.693 270.771 181.618C269.608 183.209 268.39 184.764 267.111 186.263C263.498 190.521 259.458 194.398 255.053 197.831C254.613 198.174 254.166 198.517 253.713 198.853C252.061 200.09 250.361 201.263 248.615 202.373C248.082 202.709 247.55 203.04 247.011 203.358C245.793 204.099 244.553 204.805 243.29 205.476C242.671 205.806 242.047 206.131 241.423 206.443C228.594 212.844 214.303 215.745 199.993 214.854C185.683 213.963 171.863 209.312 159.926 201.369C159.29 200.953 158.666 200.524 158.047 200.084C156.885 199.263 155.74 198.407 154.626 197.525C153.598 196.717 152.594 195.879 151.608 195.022C146.42 190.511 141.824 185.361 137.929 179.696C137.17 178.588 136.435 177.462 135.725 176.317C129.123 165.603 125.095 153.503 123.957 140.97C122.82 128.436 124.604 115.809 129.169 104.081C133.734 92.3528 140.956 81.8429 150.268 73.3766C159.58 64.9104 170.728 58.7184 182.837 55.2871C194.945 51.8557 207.684 51.2785 220.053 53.6007C232.423 55.923 244.085 61.0814 254.124 68.6708C264.164 76.2602 272.307 86.074 277.914 97.3412C283.521 108.608 286.44 121.022 286.44 133.607Z" fill="#3F3D56"/>
<path d="M201.97 129.591C214.218 129.591 224.147 119.662 224.147 107.413C224.147 95.1648 214.218 85.2355 201.97 85.2355C189.721 85.2355 179.792 95.1648 179.792 107.413C179.792 119.662 189.721 129.591 201.97 129.591Z" fill="#A0616A"/>
<path d="M186.723 118.04C186.723 118.04 194.115 134.673 183.95 141.142C173.786 147.61 200.584 174.408 200.584 174.408L230.154 142.99C230.154 142.99 214.445 132.825 217.217 116.192L186.723 118.04Z" fill="#A0616A"/>
<path d="M255.053 197.831C254.612 198.174 254.166 198.517 253.713 198.853C252.06 200.09 250.361 201.263 248.614 202.373C248.082 202.709 247.549 203.04 247.011 203.358L246.784 202.128L248.914 201.02L255.053 197.831Z" fill="#A0616A"/>
<path d="M247.011 203.358C247.549 203.04 248.082 202.709 248.614 202.373L248.633 202.128L248.914 201.02L260.647 155.005L225.081 138.638L204.283 151.308L185.651 139.82C185.651 139.82 174.708 140.218 171.935 142.99C169.762 145.163 159.106 150.164 154.577 152.232C153.316 152.808 152.533 153.157 152.533 153.157C152.533 153.157 153.23 174.126 154.626 197.525C155.74 198.407 156.884 199.263 158.047 200.084C158.666 200.524 159.29 200.953 159.926 201.369C171.862 209.312 185.683 213.964 199.993 214.854C214.302 215.745 228.594 212.844 241.423 206.443L247.011 203.358Z" fill="#6C63FF"/>
<path d="M159.927 152.232V201.369C159.29 200.953 158.666 200.524 158.048 200.084C156.885 199.263 155.74 198.407 154.626 197.525C153.598 196.717 152.594 195.879 151.609 195.022C146.42 190.51 141.824 185.361 137.929 179.696C137.17 178.588 136.435 177.462 135.725 176.317C136.325 174.346 136.998 172.169 137.745 169.786C142.366 155.005 152.533 152.232 152.533 152.232H159.927Z" fill="#6C63FF"/>
<path d="M247.011 203.358C247.549 203.04 248.082 202.709 248.614 202.373C250.359 201.265 252.058 200.092 253.713 198.853C254.166 198.517 254.613 198.174 255.053 197.831C259.458 194.398 263.498 190.521 267.111 186.263C268.39 184.764 269.608 183.209 270.771 181.618C267.007 169.854 260.648 155.005 260.648 155.005L247.709 154.081C247.709 154.081 242.457 196.117 241.423 206.443L247.011 203.358Z" fill="#6C63FF"/>
<path d="M188.372 81.7437C187.263 82.6881 186.105 83.5741 184.903 84.398C183.388 85.6552 181.988 87.0455 180.721 88.5523L179.291 90.1532C178.074 91.5157 176.783 93.0707 176.834 94.8967C176.853 95.5743 177.061 96.2317 177.143 96.9046C177.466 99.574 175.835 102.508 177.178 104.837C177.566 105.511 178.167 106.037 178.595 106.686C179.14 107.518 179.381 108.512 179.278 109.501C180.721 109.56 181.905 108.267 182.358 106.895C182.811 105.523 182.749 104.042 182.97 102.614C183.19 101.186 183.809 99.6748 185.107 99.0393C187.874 97.6832 191.052 101.209 194.007 100.33C196.069 99.7168 197.157 97.1598 199.266 96.7311C200.775 96.4242 202.228 97.321 203.631 97.9566C205.034 98.5923 206.925 98.8865 207.918 97.7083C208.574 96.9282 208.644 95.6781 209.516 95.148C210.56 94.5127 211.867 95.3973 212.658 96.3294C213.448 97.2614 214.321 98.4012 215.543 98.3673C217.164 98.3223 218.405 96.1639 219.943 96.6759C221.68 97.2539 220.881 100.032 221.934 101.529C222.825 102.794 224.69 102.719 226.223 102.51C226.482 102.536 226.743 102.497 226.982 102.394C227.221 102.292 227.43 102.131 227.589 101.926C227.749 101.722 227.854 101.479 227.895 101.223C227.936 100.966 227.911 100.703 227.822 100.459L227.182 91.9684C227.179 91.3832 227.051 90.8054 226.807 90.2739C226.361 89.4663 225.438 89.0573 224.81 88.3813C223.49 86.9602 223.553 84.4688 221.912 83.4354C221.06 82.8988 219.945 82.9149 219.099 82.3689C218.014 81.6686 217.664 80.2661 216.904 79.222C215.817 77.7293 213.918 77.0372 212.081 76.8473C210.244 76.6575 208.391 76.8865 206.545 76.8263C202.793 76.7039 199.041 75.6479 195.271 76.2661C191.981 76.8054 190.6 79.5967 188.372 81.7437Z" fill="#2F2E41"/>
<path d="M625.54 77.5461C626.955 77.5461 628.103 76.3989 628.103 74.9839C628.103 73.5688 626.955 72.4216 625.54 72.4216C624.125 72.4216 622.977 73.5688 622.977 74.9839C622.977 76.3989 624.125 77.5461 625.54 77.5461Z" fill="#3F3D56"/>
<path d="M607.79 46.3309C609.205 46.3309 610.353 45.1838 610.353 43.7687C610.353 42.3536 609.205 41.2065 607.79 41.2065C606.375 41.2065 605.227 42.3536 605.227 43.7687C605.227 45.1838 606.375 46.3309 607.79 46.3309Z" fill="#3F3D56"/>
<path d="M600.445 12.6674C601.86 12.6674 603.007 11.5203 603.007 10.1052C603.007 8.69009 601.86 7.54294 600.445 7.54294C599.03 7.54294 597.883 8.69009 597.883 10.1052C597.883 11.5203 599.03 12.6674 600.445 12.6674Z" fill="#3F3D56"/>
</g>
<defs>
<clipPath id="clip0_25_265">
<rect width="650" height="344.041" fill="white"/>
</clipPath>
</defs>
</svg>
