<svg width="296" height="288" viewBox="0 0 296 288" fill="none" xmlns="http://www.w3.org/2000/svg">
<path d="M0 0H295.057V287.66H0V0Z" fill="#FF00C4"/>
<rect x="11.5064" y="12.3282" width="271.222" height="263.003" fill="#32001E"/>
<path d="M104.379 119.173L80.9557 68.6274H56.7101L89.1746 134.378L55.0663 201.362H78.4901L102.736 149.172L127.803 201.362L152.871 201.773L117.53 131.502L150.405 68.6274H127.803L104.379 119.173Z" fill="#FF00C4"/>
<path d="M214.101 101.092V67.8055H236.703V194.787C236.703 194.787 223.142 204.65 200.951 202.184C178.76 199.718 164.283 186.947 159.857 164.788C156.334 147.153 159.446 129.447 173.829 114.242C188.212 99.0372 214.101 101.092 214.101 101.092Z" fill="#FF00C4" stroke="black"/>
<path d="M214.101 182.048V120.406C214.101 120.406 207.001 119.098 202.595 119.995C194.826 121.578 190.73 125.058 186.157 131.091C180.434 138.641 180.815 153.282 180.815 153.282C180.815 153.282 181.889 167.38 186.979 173.829C191.518 179.579 195.307 182.122 202.595 182.87C207.11 183.333 214.101 182.048 214.101 182.048Z" fill="#32001E"/>
</svg>
