<svg width="191" height="173" viewBox="0 0 191 173" fill="none" xmlns="http://www.w3.org/2000/svg">
<g opacity="0.7">
<path opacity="0.7" d="M38.54 61.41L95.16 172.22L0 61.41H38.54Z" fill="#EA6C00"/>
<path opacity="0.7" d="M151.79 61.41L95.17 172.22L190.33 61.41H151.79Z" fill="#EA6C00"/>
<path opacity="0.7" d="M38.54 61.41H151.77L95.16 172.22L38.54 61.41Z" fill="#FDAD00"/>
<path opacity="0.7" d="M95.16 0L41.52 5.67L38.52 61.41L95.16 0Z" fill="#FDD231"/>
<path opacity="0.7" d="M95.16 0L148.79 5.67L151.79 61.41L95.16 0Z" fill="#FDD231"/>
<path opacity="0.7" d="M190.33 61.41L148.81 5.67L151.81 61.41H190.33Z" fill="#FDAD00"/>
<path opacity="0.7" d="M0 61.41L41.52 5.67L38.52 61.41H0Z" fill="#FDAD00"/>
<path opacity="0.7" d="M95.16 0L38.54 61.41H151.77L95.16 0Z" fill="#FEEEB7"/>
</g>
</svg>
